<mxfile host="65bd71144e">
    <diagram id="ki5sc1wD9i3xgFud7XXa" name="Page-1">
        <mxGraphModel dx="-36844" dy="-14854" grid="1" gridSize="10" guides="1" tooltips="1" connect="1" arrows="1" fold="1" page="1" pageScale="1" pageWidth="850" pageHeight="1100" math="0" shadow="0">
            <root>
                <mxCell id="0"/>
                <mxCell id="1" parent="0"/>
                <mxCell id="lQurSwyLrw8fbkpN2eua-17" value="" style="rounded=0;whiteSpace=wrap;html=1;fontSize=38;fillColor=none;arcSize=8;labelBackgroundColor=default;fontFamily=Helvetica;strokeWidth=5;fontColor=#000000;" parent="1" vertex="1">
                    <mxGeometry x="39315.44" y="19080" width="524.56" height="280" as="geometry"/>
                </mxCell>
                <mxCell id="QgR1jz5Ba6JC49zfSx_E-1" value="" style="rounded=0;whiteSpace=wrap;html=1;labelBackgroundColor=default;fontSize=25;strokeWidth=5;dashed=1;fillColor=none;fontFamily=Helvetica;fontColor=#000000;" parent="1" vertex="1">
                    <mxGeometry x="40460" y="17230" width="2470" height="1740" as="geometry"/>
                </mxCell>
                <mxCell id="QgR1jz5Ba6JC49zfSx_E-2" value="" style="rounded=0;whiteSpace=wrap;html=1;fontSize=38;strokeWidth=4;arcSize=7;fillColor=none;fontFamily=Helvetica;fontColor=#000000;" parent="1" vertex="1">
                    <mxGeometry x="37950" y="16730" width="2399.31" height="2690" as="geometry"/>
                </mxCell>
                <mxCell id="QgR1jz5Ba6JC49zfSx_E-3" value="" style="rounded=0;whiteSpace=wrap;html=1;fontSize=38;fillColor=none;arcSize=8;labelBackgroundColor=default;dashed=1;strokeWidth=5;fontFamily=Helvetica;fontColor=#000000;" parent="1" vertex="1">
                    <mxGeometry x="38549.31" y="17323" width="1310" height="1730" as="geometry"/>
                </mxCell>
                <mxCell id="QgR1jz5Ba6JC49zfSx_E-4" value="" style="rounded=0;whiteSpace=wrap;html=1;fontFamily=Helvetica;fontSize=25;fillColor=#d0cee2;strokeColor=#56517e;strokeWidth=2;fontColor=#000000;" parent="1" vertex="1">
                    <mxGeometry x="41012.5" y="17509" width="1737.5" height="1168.36" as="geometry"/>
                </mxCell>
                <mxCell id="QgR1jz5Ba6JC49zfSx_E-5" value="" style="rounded=0;whiteSpace=wrap;html=1;arcSize=17;direction=west;fillColor=default;strokeColor=#82b366;fontFamily=Helvetica;fontSize=25;fontColor=#000000;" parent="1" vertex="1">
                    <mxGeometry x="41160" y="18010" width="1410" height="590.05" as="geometry"/>
                </mxCell>
                <mxCell id="QgR1jz5Ba6JC49zfSx_E-6" value="" style="aspect=fixed;html=1;points=[];align=center;image;fontSize=25;image=img/lib/azure2/containers/Kubernetes_Services.svg;fontFamily=Helvetica;fontColor=#000000;" parent="1" vertex="1">
                    <mxGeometry x="42670" y="17467.68" width="127.3" height="112.32" as="geometry"/>
                </mxCell>
                <mxCell id="QgR1jz5Ba6JC49zfSx_E-7" style="edgeStyle=orthogonalEdgeStyle;rounded=0;orthogonalLoop=1;jettySize=auto;html=1;fontSize=25;fillColor=#60a917;strokeColor=#2D7600;strokeWidth=4;fontFamily=Helvetica;fontColor=#000000;" parent="1" source="QgR1jz5Ba6JC49zfSx_E-8" edge="1">
                    <mxGeometry relative="1" as="geometry">
                        <mxPoint x="41858.13" y="18059.78" as="targetPoint"/>
                        <Array as="points">
                            <mxPoint x="41858.13" y="17931.5"/>
                            <mxPoint x="41858.13" y="17931.5"/>
                        </Array>
                    </mxGeometry>
                </mxCell>
                <mxCell id="QgR1jz5Ba6JC49zfSx_E-8" value="&lt;font style=&quot;font-size: 38px;&quot;&gt;Ingress-Nginx controller&lt;/font&gt;" style="rounded=1;whiteSpace=wrap;html=1;fillColor=#dae8fc;strokeColor=#6c8ebf;dashed=1;strokeWidth=4;fontFamily=Helvetica;fontSize=38;fontColor=#000000;" parent="1" vertex="1">
                    <mxGeometry x="41625.95" y="17687.15" width="473.75" height="154.35" as="geometry"/>
                </mxCell>
                <mxCell id="QgR1jz5Ba6JC49zfSx_E-9" value="" style="sketch=0;html=1;dashed=0;whitespace=wrap;fillColor=#2875E2;strokeColor=#ffffff;points=[[0.005,0.63,0],[0.1,0.2,0],[0.9,0.2,0],[0.5,0,0],[0.995,0.63,0],[0.72,0.99,0],[0.5,1,0],[0.28,0.99,0]];shape=mxgraph.kubernetes.icon;prIcon=ns;fontFamily=Helvetica;fontSize=25;fontColor=#000000;" parent="1" vertex="1">
                    <mxGeometry x="42480" y="17945.28" width="180" height="120" as="geometry"/>
                </mxCell>
                <mxCell id="QgR1jz5Ba6JC49zfSx_E-10" value="api" style="text;html=1;strokeColor=none;fillColor=none;align=center;verticalAlign=middle;whiteSpace=wrap;rounded=0;strokeWidth=2;fontSize=38;fontFamily=Helvetica;fontColor=#000000;" parent="1" vertex="1">
                    <mxGeometry x="42390" y="17987" width="140" height="60" as="geometry"/>
                </mxCell>
                <mxCell id="QgR1jz5Ba6JC49zfSx_E-12" value="" style="rounded=1;whiteSpace=wrap;html=1;fontSize=25;strokeWidth=4;fillColor=#dae8fc;strokeColor=#6c8ebf;dashed=1;fontFamily=Helvetica;fontColor=#000000;" parent="1" vertex="1">
                    <mxGeometry x="41183" y="18280" width="430" height="310" as="geometry"/>
                </mxCell>
                <mxCell id="QgR1jz5Ba6JC49zfSx_E-13" value="" style="sketch=0;html=1;dashed=0;whitespace=wrap;fillColor=#2875E2;strokeColor=#ffffff;points=[[0.005,0.63,0],[0.1,0.2,0],[0.9,0.2,0],[0.5,0,0],[0.995,0.63,0],[0.72,0.99,0],[0.5,1,0],[0.28,0.99,0]];shape=mxgraph.kubernetes.icon;prIcon=deploy;fontSize=25;fontFamily=Helvetica;fontColor=#000000;" parent="1" vertex="1">
                    <mxGeometry x="41455.689999999995" y="18422.28" width="68.44" height="80.52" as="geometry"/>
                </mxCell>
                <mxCell id="QgR1jz5Ba6JC49zfSx_E-15" value="" style="sketch=0;html=1;dashed=0;whitespace=wrap;fillColor=#2875E2;strokeColor=#ffffff;points=[[0.005,0.63,0],[0.1,0.2,0],[0.9,0.2,0],[0.5,0,0],[0.995,0.63,0],[0.72,0.99,0],[0.5,1,0],[0.28,0.99,0]];shape=mxgraph.kubernetes.icon;prIcon=svc;fontSize=25;fontFamily=Helvetica;fontColor=#000000;" parent="1" vertex="1">
                    <mxGeometry x="41465.41" y="18283.61" width="70" height="67.39" as="geometry"/>
                </mxCell>
                <mxCell id="QgR1jz5Ba6JC49zfSx_E-16" value="&lt;font style=&quot;font-size: 38px;&quot;&gt;redis-cm&lt;/font&gt;" style="text;html=1;strokeColor=none;fillColor=none;align=center;verticalAlign=middle;whiteSpace=wrap;rounded=0;fontSize=38;fontFamily=Helvetica;fontColor=#000000;" parent="1" vertex="1">
                    <mxGeometry x="41200" y="18371.68" width="153.39" height="30" as="geometry"/>
                </mxCell>
                <mxCell id="QgR1jz5Ba6JC49zfSx_E-17" value="" style="sketch=0;html=1;dashed=0;whitespace=wrap;fillColor=#2875E2;strokeColor=#ffffff;points=[[0.005,0.63,0],[0.1,0.2,0],[0.9,0.2,0],[0.5,0,0],[0.995,0.63,0],[0.72,0.99,0],[0.5,1,0],[0.28,0.99,0]];shape=mxgraph.kubernetes.icon;prIcon=pod;fontSize=25;fontFamily=Helvetica;fontColor=#000000;" parent="1" vertex="1">
                    <mxGeometry x="41251.69" y="18426.68" width="79.11" height="68.28" as="geometry"/>
                </mxCell>
                <mxCell id="QgR1jz5Ba6JC49zfSx_E-18" value="&lt;span style=&quot;font-size: 38px;&quot;&gt;redis-service&lt;/span&gt;" style="text;html=1;strokeColor=none;fillColor=none;align=center;verticalAlign=middle;whiteSpace=wrap;rounded=0;fontSize=38;fontFamily=Helvetica;fontColor=#000000;" parent="1" vertex="1">
                    <mxGeometry x="41391.62" y="18369.61" width="217.57" height="30" as="geometry"/>
                </mxCell>
                <mxCell id="QgR1jz5Ba6JC49zfSx_E-19" value="&lt;span style=&quot;font-size: 36px;&quot;&gt;redis-deployment&lt;/span&gt;" style="text;html=1;strokeColor=none;fillColor=none;align=center;verticalAlign=middle;whiteSpace=wrap;rounded=0;fontSize=36;fontFamily=Helvetica;fontColor=#000000;" parent="1" vertex="1">
                    <mxGeometry x="41420" y="18520" width="137.57" height="30" as="geometry"/>
                </mxCell>
                <mxCell id="QgR1jz5Ba6JC49zfSx_E-20" value="&lt;span style=&quot;font-size: 38px;&quot;&gt;redis-&amp;lt;pod-id&amp;gt;&lt;/span&gt;" style="text;html=1;strokeColor=none;fillColor=none;align=center;verticalAlign=middle;whiteSpace=wrap;rounded=0;fontSize=38;fontFamily=Helvetica;fontColor=#000000;" parent="1" vertex="1">
                    <mxGeometry x="41194" y="18529.41" width="193.31" height="8.59" as="geometry"/>
                </mxCell>
                <mxCell id="QgR1jz5Ba6JC49zfSx_E-22" value="" style="rounded=1;whiteSpace=wrap;html=1;fontSize=25;strokeWidth=4;fillColor=#dae8fc;strokeColor=#6c8ebf;dashed=1;fontFamily=Helvetica;fontColor=#000000;" parent="1" vertex="1">
                    <mxGeometry x="41650" y="18281.68" width="430" height="308.32" as="geometry"/>
                </mxCell>
                <mxCell id="QgR1jz5Ba6JC49zfSx_E-23" value="" style="sketch=0;html=1;dashed=0;whitespace=wrap;fillColor=#2875E2;strokeColor=#ffffff;points=[[0.005,0.63,0],[0.1,0.2,0],[0.9,0.2,0],[0.5,0,0],[0.995,0.63,0],[0.72,0.99,0],[0.5,1,0],[0.28,0.99,0]];shape=mxgraph.kubernetes.icon;prIcon=deploy;fontSize=25;fontFamily=Helvetica;fontColor=#000000;" parent="1" vertex="1">
                    <mxGeometry x="41930.14" y="18427.84" width="79.86" height="62.16" as="geometry"/>
                </mxCell>
                <mxCell id="QgR1jz5Ba6JC49zfSx_E-25" value="" style="sketch=0;html=1;dashed=0;whitespace=wrap;fillColor=#2875E2;strokeColor=#ffffff;points=[[0.005,0.63,0],[0.1,0.2,0],[0.9,0.2,0],[0.5,0,0],[0.995,0.63,0],[0.72,0.99,0],[0.5,1,0],[0.28,0.99,0]];shape=mxgraph.kubernetes.icon;prIcon=svc;fontSize=25;fontFamily=Helvetica;fontColor=#000000;" parent="1" vertex="1">
                    <mxGeometry x="41932.82" y="18281.16" width="74.51" height="68.84" as="geometry"/>
                </mxCell>
                <mxCell id="QgR1jz5Ba6JC49zfSx_E-26" value="&lt;font style=&quot;font-size: 38px;&quot;&gt;integration-cm&lt;/font&gt;" style="text;html=1;strokeColor=none;fillColor=none;align=center;verticalAlign=middle;whiteSpace=wrap;rounded=0;fontSize=38;fontFamily=Helvetica;fontColor=#000000;" parent="1" vertex="1">
                    <mxGeometry x="41692.5" y="18369.61" width="119.85" height="31.72" as="geometry"/>
                </mxCell>
                <mxCell id="QgR1jz5Ba6JC49zfSx_E-27" value="" style="sketch=0;html=1;dashed=0;whitespace=wrap;fillColor=#2875E2;strokeColor=#ffffff;points=[[0.005,0.63,0],[0.1,0.2,0],[0.9,0.2,0],[0.5,0,0],[0.995,0.63,0],[0.72,0.99,0],[0.5,1,0],[0.28,0.99,0]];shape=mxgraph.kubernetes.icon;prIcon=pod;fontSize=25;fontFamily=Helvetica;fontColor=#000000;" parent="1" vertex="1">
                    <mxGeometry x="41719.869999999995" y="18419.56" width="65.11" height="83.24" as="geometry"/>
                </mxCell>
                <mxCell id="QgR1jz5Ba6JC49zfSx_E-28" value="&lt;span style=&quot;font-size: 38px;&quot;&gt;integration-service&lt;/span&gt;" style="text;html=1;strokeColor=none;fillColor=none;align=center;verticalAlign=middle;whiteSpace=wrap;rounded=0;fontSize=38;fontFamily=Helvetica;fontColor=#000000;" parent="1" vertex="1">
                    <mxGeometry x="41897.65" y="18371.27" width="144.85" height="30" as="geometry"/>
                </mxCell>
                <mxCell id="QgR1jz5Ba6JC49zfSx_E-29" value="&lt;span style=&quot;font-size: 39px;&quot;&gt;integration-deployment&lt;/span&gt;" style="text;html=1;strokeColor=none;fillColor=none;align=center;verticalAlign=middle;whiteSpace=wrap;rounded=0;fontSize=39;fontFamily=Helvetica;fontColor=#000000;" parent="1" vertex="1">
                    <mxGeometry x="41890.74" y="18524.68" width="145.75" height="26.65" as="geometry"/>
                </mxCell>
                <mxCell id="QgR1jz5Ba6JC49zfSx_E-30" value="&lt;span style=&quot;font-size: 38px;&quot;&gt;integration-&amp;lt;pod-id&amp;gt;&lt;/span&gt;" style="text;html=1;strokeColor=none;fillColor=none;align=center;verticalAlign=middle;whiteSpace=wrap;rounded=0;fontSize=38;fontFamily=Helvetica;fontColor=#000000;" parent="1" vertex="1">
                    <mxGeometry x="41680" y="18520" width="144.85" height="30" as="geometry"/>
                </mxCell>
                <mxCell id="QgR1jz5Ba6JC49zfSx_E-40" style="edgeStyle=orthogonalEdgeStyle;rounded=0;orthogonalLoop=1;jettySize=auto;html=1;fontSize=25;fillColor=#60a917;strokeColor=#2D7600;strokeWidth=4;fontFamily=Helvetica;fontColor=#000000;" parent="1" edge="1">
                    <mxGeometry relative="1" as="geometry">
                        <mxPoint x="41861" y="18129.78" as="sourcePoint"/>
                        <mxPoint x="41861" y="18281.68" as="targetPoint"/>
                        <Array as="points">
                            <mxPoint x="41861" y="18200"/>
                            <mxPoint x="41861" y="18200"/>
                        </Array>
                    </mxGeometry>
                </mxCell>
                <mxCell id="QgR1jz5Ba6JC49zfSx_E-41" style="edgeStyle=orthogonalEdgeStyle;rounded=0;orthogonalLoop=1;jettySize=auto;html=1;fontSize=25;fillColor=#60a917;strokeColor=#2D7600;strokeWidth=4;fontFamily=Helvetica;fontColor=#000000;" parent="1" edge="1">
                    <mxGeometry relative="1" as="geometry">
                        <mxPoint x="41870" y="18229" as="sourcePoint"/>
                        <mxPoint x="41364" y="18279" as="targetPoint"/>
                        <Array as="points">
                            <mxPoint x="41364" y="18229"/>
                        </Array>
                    </mxGeometry>
                </mxCell>
                <mxCell id="QgR1jz5Ba6JC49zfSx_E-42" style="edgeStyle=orthogonalEdgeStyle;rounded=0;orthogonalLoop=1;jettySize=auto;html=1;fontSize=25;fillColor=#60a917;strokeColor=#2D7600;strokeWidth=4;fontFamily=Helvetica;fontColor=#000000;entryX=0.5;entryY=0;entryDx=0;entryDy=0;" parent="1" edge="1">
                    <mxGeometry relative="1" as="geometry">
                        <mxPoint x="41860" y="18229" as="sourcePoint"/>
                        <mxPoint x="42330" y="18280" as="targetPoint"/>
                        <Array as="points">
                            <mxPoint x="42330" y="18229"/>
                        </Array>
                    </mxGeometry>
                </mxCell>
                <mxCell id="QgR1jz5Ba6JC49zfSx_E-43" value="" style="rounded=1;whiteSpace=wrap;html=1;fontSize=25;strokeWidth=4;fillColor=#dae8fc;strokeColor=#6c8ebf;dashed=1;fontFamily=Helvetica;fontColor=#000000;" parent="1" vertex="1">
                    <mxGeometry x="41460.13" y="18059.78" width="688.24" height="70" as="geometry"/>
                </mxCell>
                <mxCell id="QgR1jz5Ba6JC49zfSx_E-44" value="" style="sketch=0;html=1;dashed=0;whitespace=wrap;fillColor=#2875E2;strokeColor=#ffffff;points=[[0.005,0.63,0],[0.1,0.2,0],[0.9,0.2,0],[0.5,0,0],[0.995,0.63,0],[0.72,0.99,0],[0.5,1,0],[0.28,0.99,0]];shape=mxgraph.kubernetes.icon;prIcon=ing;fontSize=25;fontFamily=Helvetica;fontColor=#000000;" parent="1" vertex="1">
                    <mxGeometry x="42118.369999999995" y="18034.78" width="62.65" height="65" as="geometry"/>
                </mxCell>
                <mxCell id="QgR1jz5Ba6JC49zfSx_E-46" value="api.oldmutual.com/api/*&amp;nbsp;" style="text;html=1;strokeColor=none;fillColor=none;align=center;verticalAlign=middle;whiteSpace=wrap;rounded=0;fontSize=38;fontFamily=Helvetica;fontColor=#000000;" parent="1" vertex="1">
                    <mxGeometry x="41583.939999999995" y="18079.68" width="201.42" height="30" as="geometry"/>
                </mxCell>
                <mxCell id="QgR1jz5Ba6JC49zfSx_E-47" value="api-service" style="text;html=1;strokeColor=none;fillColor=none;align=center;verticalAlign=middle;whiteSpace=wrap;rounded=0;fontSize=38;fontFamily=Helvetica;fontColor=#000000;" parent="1" vertex="1">
                    <mxGeometry x="41940.13" y="18079.78" width="195" height="30" as="geometry"/>
                </mxCell>
                <mxCell id="QgR1jz5Ba6JC49zfSx_E-48" value="" style="sketch=0;html=1;dashed=0;whitespace=wrap;fillColor=#2875E2;strokeColor=#ffffff;points=[[0.005,0.63,0],[0.1,0.2,0],[0.9,0.2,0],[0.5,0,0],[0.995,0.63,0],[0.72,0.99,0],[0.5,1,0],[0.28,0.99,0]];shape=mxgraph.kubernetes.icon;prIcon=ns;fontFamily=Helvetica;fontSize=25;fontColor=#000000;" parent="1" vertex="1">
                    <mxGeometry x="42044.369999999995" y="17641.5" width="112.5" height="80" as="geometry"/>
                </mxCell>
                <mxCell id="QgR1jz5Ba6JC49zfSx_E-49" value="nginx-controller" style="text;html=1;strokeColor=none;fillColor=none;align=center;verticalAlign=middle;whiteSpace=wrap;rounded=0;strokeWidth=2;fontSize=38;fontFamily=Helvetica;fontColor=#000000;" parent="1" vertex="1">
                    <mxGeometry x="41960.869999999995" y="17574.5" width="305.74" height="51" as="geometry"/>
                </mxCell>
                <mxCell id="QgR1jz5Ba6JC49zfSx_E-50" value="" style="edgeStyle=orthogonalEdgeStyle;rounded=0;orthogonalLoop=1;jettySize=auto;html=1;fillColor=#60a917;strokeColor=#2D7600;strokeWidth=5;fontFamily=Helvetica;fontSize=38;fontColor=#000000;" parent="1" source="QgR1jz5Ba6JC49zfSx_E-51" edge="1">
                    <mxGeometry relative="1" as="geometry">
                        <mxPoint x="38996.33333333333" y="16769.68" as="targetPoint"/>
                    </mxGeometry>
                </mxCell>
                <mxCell id="QgR1jz5Ba6JC49zfSx_E-51" value="" style="sketch=0;aspect=fixed;pointerEvents=1;shadow=0;dashed=0;html=1;strokeColor=none;labelPosition=center;verticalLabelPosition=bottom;verticalAlign=top;align=center;fillColor=#00188D;shape=mxgraph.mscae.enterprise.client_application;fontFamily=Helvetica;fontSize=38;fontColor=#000000;" parent="1" vertex="1">
                    <mxGeometry x="38900.1" y="16500" width="193.51" height="123.85" as="geometry"/>
                </mxCell>
                <mxCell id="QgR1jz5Ba6JC49zfSx_E-53" style="edgeStyle=orthogonalEdgeStyle;rounded=0;orthogonalLoop=1;jettySize=auto;html=1;entryX=0.5;entryY=1;entryDx=0;entryDy=0;fontSize=38;strokeWidth=5;fillColor=#a20025;strokeColor=#6F0000;fontFamily=Helvetica;fontColor=#000000;" parent="1" source="QgR1jz5Ba6JC49zfSx_E-55" edge="1">
                    <mxGeometry relative="1" as="geometry">
                        <mxPoint x="39146.880000000005" y="17620" as="sourcePoint"/>
                        <Array as="points">
                            <mxPoint x="39414" y="17620"/>
                        </Array>
                        <mxPoint x="39413.505000000005" y="17571" as="targetPoint"/>
                    </mxGeometry>
                </mxCell>
                <mxCell id="QgR1jz5Ba6JC49zfSx_E-54" style="edgeStyle=orthogonalEdgeStyle;rounded=0;orthogonalLoop=1;jettySize=auto;html=1;fontSize=38;strokeWidth=5;fillColor=#60a917;strokeColor=#2D7600;fontFamily=Helvetica;fontColor=#000000;" parent="1" source="QgR1jz5Ba6JC49zfSx_E-55" target="QgR1jz5Ba6JC49zfSx_E-72" edge="1">
                    <mxGeometry relative="1" as="geometry">
                        <mxPoint x="39146.880000000005" y="17730" as="sourcePoint"/>
                        <Array as="points">
                            <mxPoint x="39407" y="17730"/>
                        </Array>
                    </mxGeometry>
                </mxCell>
                <mxCell id="QgR1jz5Ba6JC49zfSx_E-192" style="edgeStyle=orthogonalEdgeStyle;rounded=0;orthogonalLoop=1;jettySize=auto;html=1;strokeWidth=5;fillColor=#60a917;strokeColor=#2D7600;fontFamily=Helvetica;fontSize=38;fontColor=#000000;" parent="1" source="QgR1jz5Ba6JC49zfSx_E-55" target="QgR1jz5Ba6JC49zfSx_E-200" edge="1">
                    <mxGeometry relative="1" as="geometry">
                        <Array as="points">
                            <mxPoint x="38180" y="17672"/>
                            <mxPoint x="38180" y="16867"/>
                        </Array>
                        <mxPoint x="38444.31" y="17636" as="targetPoint"/>
                    </mxGeometry>
                </mxCell>
                <mxCell id="QgR1jz5Ba6JC49zfSx_E-55" value="" style="sketch=0;aspect=fixed;html=1;points=[];align=center;image;fontSize=38;image=img/lib/mscae/Application_Gateway.svg;fontFamily=Helvetica;fontColor=#000000;" parent="1" vertex="1">
                    <mxGeometry x="38915.2" y="17600" width="154.41" height="154.41" as="geometry"/>
                </mxCell>
                <mxCell id="QgR1jz5Ba6JC49zfSx_E-56" value="Application&lt;br style=&quot;font-size: 38px;&quot;&gt;Gateway" style="text;html=1;strokeColor=none;fillColor=none;align=center;verticalAlign=middle;whiteSpace=wrap;rounded=0;fontSize=38;fontColor=#000000;fontFamily=Helvetica;" parent="1" vertex="1">
                    <mxGeometry x="38957.880000000005" y="17815" width="60" height="30" as="geometry"/>
                </mxCell>
                <mxCell id="QgR1jz5Ba6JC49zfSx_E-57" style="edgeStyle=orthogonalEdgeStyle;rounded=0;orthogonalLoop=1;jettySize=auto;html=1;exitX=0.5;exitY=1;exitDx=0;exitDy=0;fontSize=38;fontFamily=Helvetica;fontColor=#000000;" parent="1" source="QgR1jz5Ba6JC49zfSx_E-56" target="QgR1jz5Ba6JC49zfSx_E-56" edge="1">
                    <mxGeometry relative="1" as="geometry"/>
                </mxCell>
                <mxCell id="QgR1jz5Ba6JC49zfSx_E-224" style="edgeStyle=orthogonalEdgeStyle;rounded=0;orthogonalLoop=1;jettySize=auto;html=1;strokeWidth=5;fontSize=38;fillColor=#008a00;strokeColor=#005700;fontFamily=Helvetica;fontColor=#000000;" parent="1" source="QgR1jz5Ba6JC49zfSx_E-58" edge="1">
                    <mxGeometry relative="1" as="geometry">
                        <Array as="points">
                            <mxPoint x="39150" y="18390"/>
                            <mxPoint x="39150" y="18390"/>
                        </Array>
                        <mxPoint x="39150" y="18480" as="targetPoint"/>
                    </mxGeometry>
                </mxCell>
                <mxCell id="QgR1jz5Ba6JC49zfSx_E-58" value="" style="rounded=0;whiteSpace=wrap;html=1;fontSize=38;fontFamily=Helvetica;fillColor=none;strokeWidth=3;fontColor=#000000;" parent="1" vertex="1">
                    <mxGeometry x="38747.88" y="18110" width="703.12" height="240" as="geometry"/>
                </mxCell>
                <mxCell id="QgR1jz5Ba6JC49zfSx_E-59" style="edgeStyle=orthogonalEdgeStyle;rounded=0;orthogonalLoop=1;jettySize=auto;html=1;fontSize=38;fontColor=#000000;strokeWidth=5;startArrow=classic;startFill=0;fillColor=#60a917;strokeColor=#2D7600;fontFamily=Helvetica;" parent="1" source="QgR1jz5Ba6JC49zfSx_E-60" target="QgR1jz5Ba6JC49zfSx_E-171" edge="1">
                    <mxGeometry relative="1" as="geometry">
                        <mxPoint x="38252.857142857145" y="18297.27" as="targetPoint"/>
                    </mxGeometry>
                </mxCell>
                <mxCell id="QgR1jz5Ba6JC49zfSx_E-208" style="edgeStyle=orthogonalEdgeStyle;rounded=0;orthogonalLoop=1;jettySize=auto;html=1;strokeWidth=5;fillColor=#60a917;strokeColor=#2D7600;endArrow=none;endFill=0;fontFamily=Helvetica;fontSize=38;fontColor=#000000;" parent="1" edge="1">
                    <mxGeometry relative="1" as="geometry">
                        <Array as="points">
                            <mxPoint x="39059" y="18060"/>
                            <mxPoint x="38180" y="18060"/>
                            <mxPoint x="38180" y="17670"/>
                        </Array>
                        <mxPoint x="39059" y="18110" as="sourcePoint"/>
                        <mxPoint x="38190" y="17670" as="targetPoint"/>
                    </mxGeometry>
                </mxCell>
                <mxCell id="QgR1jz5Ba6JC49zfSx_E-60" value="" style="aspect=fixed;html=1;points=[];align=center;image;fontSize=38;image=img/lib/azure2/app_services/API_Management_Services.svg;fontFamily=Helvetica;fontColor=#000000;" parent="1" vertex="1">
                    <mxGeometry x="38917.47" y="18140" width="140.83" height="130" as="geometry"/>
                </mxCell>
                <mxCell id="QgR1jz5Ba6JC49zfSx_E-61" style="edgeStyle=orthogonalEdgeStyle;rounded=0;orthogonalLoop=1;jettySize=auto;html=1;fontSize=38;fontColor=#000000;startArrow=classic;startFill=0;strokeWidth=5;fillColor=#60a917;strokeColor=#2D7600;fontFamily=Helvetica;entryX=-0.069;entryY=0.669;entryDx=0;entryDy=0;entryPerimeter=0;" parent="1" source="QgR1jz5Ba6JC49zfSx_E-64" target="QgR1jz5Ba6JC49zfSx_E-101" edge="1">
                    <mxGeometry relative="1" as="geometry">
                        <Array as="points"/>
                        <mxPoint x="39356.880000000005" y="18897.5" as="sourcePoint"/>
                        <mxPoint x="39930" y="18856" as="targetPoint"/>
                    </mxGeometry>
                </mxCell>
                <mxCell id="QgR1jz5Ba6JC49zfSx_E-64" value="" style="aspect=fixed;html=1;points=[];align=center;image;fontSize=38;image=img/lib/azure2/containers/Kubernetes_Services.svg;fontFamily=Helvetica;fontColor=#000000;" parent="1" vertex="1">
                    <mxGeometry x="39097.38" y="18803" width="119" height="105" as="geometry"/>
                </mxCell>
                <mxCell id="QgR1jz5Ba6JC49zfSx_E-65" value="API-Management" style="text;html=1;strokeColor=none;fillColor=none;align=center;verticalAlign=middle;whiteSpace=wrap;rounded=0;fontSize=38;fontColor=#000000;fontFamily=Helvetica;" parent="1" vertex="1">
                    <mxGeometry x="38767.880000000005" y="18280" width="460" height="30" as="geometry"/>
                </mxCell>
                <mxCell id="fNkq7-LuSQphSgBtCGgK-10" value="" style="edgeStyle=orthogonalEdgeStyle;rounded=0;orthogonalLoop=1;jettySize=auto;html=1;fontFamily=Helvetica;fontSize=25;startArrow=none;startFill=0;endArrow=none;endFill=0;fontColor=#000000;" parent="1" source="QgR1jz5Ba6JC49zfSx_E-66" target="QgR1jz5Ba6JC49zfSx_E-68" edge="1">
                    <mxGeometry relative="1" as="geometry"/>
                </mxCell>
                <mxCell id="fNkq7-LuSQphSgBtCGgK-22" value="" style="edgeStyle=orthogonalEdgeStyle;rounded=0;orthogonalLoop=1;jettySize=auto;html=1;strokeWidth=5;fontFamily=Helvetica;fontSize=25;fontColor=#000000;startArrow=none;startFill=0;endArrow=block;endFill=1;entryX=0.5;entryY=1;entryDx=0;entryDy=0;dashed=1;dashPattern=1 1;" parent="1" source="QgR1jz5Ba6JC49zfSx_E-66" target="QgR1jz5Ba6JC49zfSx_E-1" edge="1">
                    <mxGeometry relative="1" as="geometry">
                        <mxPoint x="39159.020000000004" y="19082" as="targetPoint"/>
                        <Array as="points">
                            <mxPoint x="39159" y="19560"/>
                            <mxPoint x="41695" y="19560"/>
                        </Array>
                    </mxGeometry>
                </mxCell>
                <mxCell id="QgR1jz5Ba6JC49zfSx_E-66" value="Backend Service" style="text;html=1;strokeColor=none;fillColor=none;align=center;verticalAlign=middle;whiteSpace=wrap;rounded=0;fontSize=38;fontColor=#000000;fontFamily=Helvetica;" parent="1" vertex="1">
                    <mxGeometry x="38944.020000000004" y="18972" width="430" height="30" as="geometry"/>
                </mxCell>
                <mxCell id="QgR1jz5Ba6JC49zfSx_E-67" value="Browser" style="text;html=1;strokeColor=none;fillColor=none;align=center;verticalAlign=middle;whiteSpace=wrap;rounded=0;fontSize=38;fontColor=#000000;fontFamily=Helvetica;" parent="1" vertex="1">
                    <mxGeometry x="38801.1" y="16422" width="394.42" height="30" as="geometry"/>
                </mxCell>
                <mxCell id="fNkq7-LuSQphSgBtCGgK-11" value="" style="edgeStyle=orthogonalEdgeStyle;rounded=0;orthogonalLoop=1;jettySize=auto;html=1;fontFamily=Helvetica;fontSize=25;startArrow=none;startFill=0;endArrow=none;endFill=0;fontColor=#000000;" parent="1" source="QgR1jz5Ba6JC49zfSx_E-68" target="QgR1jz5Ba6JC49zfSx_E-64" edge="1">
                    <mxGeometry relative="1" as="geometry"/>
                </mxCell>
                <mxCell id="QgR1jz5Ba6JC49zfSx_E-68" value="AKS" style="text;html=1;strokeColor=none;fillColor=none;align=center;verticalAlign=middle;whiteSpace=wrap;rounded=0;fontSize=38;fontColor=#000000;fontFamily=Helvetica;" parent="1" vertex="1">
                    <mxGeometry x="39126.88" y="18929" width="60" height="30" as="geometry"/>
                </mxCell>
                <mxCell id="QgR1jz5Ba6JC49zfSx_E-69" style="edgeStyle=orthogonalEdgeStyle;rounded=0;orthogonalLoop=1;jettySize=auto;html=1;fontSize=38;fillColor=#60a917;strokeColor=#2D7600;strokeWidth=5;fontFamily=Helvetica;fontColor=#000000;" parent="1" target="QgR1jz5Ba6JC49zfSx_E-55" edge="1">
                    <mxGeometry relative="1" as="geometry">
                        <mxPoint x="38927" y="17166" as="sourcePoint"/>
                        <mxPoint x="38926.880000000005" y="17547" as="targetPoint"/>
                        <Array as="points">
                            <mxPoint x="38927" y="17510"/>
                            <mxPoint x="38927" y="17510"/>
                        </Array>
                    </mxGeometry>
                </mxCell>
                <mxCell id="QgR1jz5Ba6JC49zfSx_E-70" style="edgeStyle=orthogonalEdgeStyle;rounded=0;orthogonalLoop=1;jettySize=auto;html=1;fontSize=38;strokeWidth=5;fillColor=#a20025;strokeColor=#6F0000;fontFamily=Helvetica;fontColor=#000000;" parent="1" edge="1">
                    <mxGeometry relative="1" as="geometry">
                        <mxPoint x="39060" y="17160" as="sourcePoint"/>
                        <mxPoint x="39065" y="17600" as="targetPoint"/>
                        <Array as="points">
                            <mxPoint x="39065" y="17160"/>
                        </Array>
                    </mxGeometry>
                </mxCell>
                <mxCell id="QgR1jz5Ba6JC49zfSx_E-71" style="edgeStyle=orthogonalEdgeStyle;rounded=0;orthogonalLoop=1;jettySize=auto;html=1;fontSize=38;strokeWidth=5;entryX=0.5;entryY=0;entryDx=0;entryDy=0;fillColor=#60a917;strokeColor=#2D7600;fontFamily=Helvetica;fontColor=#000000;" parent="1" source="QgR1jz5Ba6JC49zfSx_E-72" target="QgR1jz5Ba6JC49zfSx_E-58" edge="1">
                    <mxGeometry relative="1" as="geometry">
                        <Array as="points">
                            <mxPoint x="39407" y="18060"/>
                            <mxPoint x="39099" y="18060"/>
                        </Array>
                    </mxGeometry>
                </mxCell>
                <mxCell id="QgR1jz5Ba6JC49zfSx_E-72" value="API Management Backend Pool" style="text;html=1;strokeColor=default;fillColor=none;align=center;verticalAlign=middle;whiteSpace=wrap;rounded=0;fontSize=38;strokeWidth=1;dashed=1;fontColor=#000000;fontFamily=Helvetica;" parent="1" vertex="1">
                    <mxGeometry x="39283.130000000005" y="17778.28" width="273.75" height="147.72" as="geometry"/>
                </mxCell>
                <mxCell id="QgR1jz5Ba6JC49zfSx_E-74" value="https://api.oldmutual.com/external/api1" style="text;html=1;strokeColor=none;fillColor=none;align=center;verticalAlign=middle;whiteSpace=wrap;rounded=0;strokeWidth=6;fontSize=38;fontColor=#000000;fontFamily=Helvetica;" parent="1" vertex="1">
                    <mxGeometry x="38555.03" y="17249.32" width="60" height="30" as="geometry"/>
                </mxCell>
                <mxCell id="QgR1jz5Ba6JC49zfSx_E-75" value="https://api.oldmutual.com/xyz" style="text;html=1;strokeColor=none;fillColor=#f5f5f5;align=center;verticalAlign=middle;whiteSpace=wrap;rounded=0;strokeWidth=6;fontSize=38;fontColor=#000000;fontFamily=Helvetica;" parent="1" vertex="1">
                    <mxGeometry x="39287.69" y="17252.32" width="60" height="30" as="geometry"/>
                </mxCell>
                <mxCell id="QgR1jz5Ba6JC49zfSx_E-76" value="/*" style="text;html=1;strokeColor=none;fillColor=none;align=center;verticalAlign=middle;whiteSpace=wrap;rounded=0;strokeWidth=6;fontSize=38;fontFamily=Helvetica;fontColor=#000000;" parent="1" vertex="1">
                    <mxGeometry x="39186.880000000005" y="17580" width="60" height="30" as="geometry"/>
                </mxCell>
                <mxCell id="QgR1jz5Ba6JC49zfSx_E-77" value="/external/*" style="text;html=1;strokeColor=none;fillColor=none;align=center;verticalAlign=middle;whiteSpace=wrap;rounded=0;strokeWidth=6;fontSize=38;fontColor=#000000;fontFamily=Helvetica;" parent="1" vertex="1">
                    <mxGeometry x="39201.96" y="17690" width="60" height="30" as="geometry"/>
                </mxCell>
                <mxCell id="QgR1jz5Ba6JC49zfSx_E-78" value="api.oldmutual.com&lt;br style=&quot;font-size: 38px;&quot;&gt;certificate" style="text;html=1;strokeColor=none;fillColor=none;align=center;verticalAlign=middle;whiteSpace=wrap;rounded=0;fontSize=38;fontFamily=Helvetica;fontColor=#000000;" parent="1" vertex="1">
                    <mxGeometry x="38733.880000000005" y="17619" width="20" height="10" as="geometry"/>
                </mxCell>
                <mxCell id="QgR1jz5Ba6JC49zfSx_E-79" value="" style="sketch=0;aspect=fixed;pointerEvents=1;shadow=0;dashed=0;html=1;strokeColor=none;labelPosition=center;verticalLabelPosition=bottom;verticalAlign=top;align=center;fillColor=#00188D;shape=mxgraph.azure.certificate;fontSize=38;fontFamily=Helvetica;fontColor=#000000;" parent="1" vertex="1">
                    <mxGeometry x="38693.88" y="17500" width="100" height="80" as="geometry"/>
                </mxCell>
                <mxCell id="QgR1jz5Ba6JC49zfSx_E-80" value="" style="rounded=0;whiteSpace=wrap;html=1;fontSize=38;strokeWidth=6;fillColor=#ffe6cc;strokeColor=#000000;fontFamily=Helvetica;fontColor=#000000;" parent="1" vertex="1">
                    <mxGeometry x="39902.03" y="17341.09" width="392.57" height="184.55" as="geometry"/>
                </mxCell>
                <mxCell id="QgR1jz5Ba6JC49zfSx_E-82" value="Requests to any non specified URL is dropped" style="text;html=1;strokeColor=none;fillColor=none;align=center;verticalAlign=middle;whiteSpace=wrap;rounded=0;fontSize=38;fontColor=#000000;fontFamily=Helvetica;" parent="1" vertex="1">
                    <mxGeometry x="39906.880000000005" y="17416.63" width="387.57" height="30" as="geometry"/>
                </mxCell>
                <mxCell id="QgR1jz5Ba6JC49zfSx_E-83" value="" style="rounded=0;whiteSpace=wrap;html=1;fontSize=38;strokeWidth=6;fillColor=#ffe6cc;strokeColor=#000000;fontFamily=Helvetica;fontColor=#000000;" parent="1" vertex="1">
                    <mxGeometry x="39901.880000000005" y="17631" width="392.57" height="184.55" as="geometry"/>
                </mxCell>
                <mxCell id="QgR1jz5Ba6JC49zfSx_E-84" value="API request to /external/* is sent to API Management" style="text;html=1;strokeColor=none;fillColor=none;align=center;verticalAlign=middle;whiteSpace=wrap;rounded=0;fontSize=38;fontColor=#000000;fontFamily=Helvetica;" parent="1" vertex="1">
                    <mxGeometry x="39915.03" y="17708.27" width="361.85" height="30" as="geometry"/>
                </mxCell>
                <mxCell id="QgR1jz5Ba6JC49zfSx_E-87" value="Sink Pool" style="text;html=1;strokeColor=default;fillColor=none;align=center;verticalAlign=middle;whiteSpace=wrap;rounded=0;fontSize=38;strokeWidth=3;dashed=1;fontColor=#000000;fontFamily=Helvetica;" parent="1" vertex="1">
                    <mxGeometry x="39275.3" y="17516.64" width="273.75" height="54.36" as="geometry"/>
                </mxCell>
                <mxCell id="QgR1jz5Ba6JC49zfSx_E-88" value="/*" style="text;html=1;strokeColor=none;fillColor=none;align=center;verticalAlign=middle;whiteSpace=wrap;rounded=0;strokeWidth=6;fontSize=38;fontColor=#000000;fontFamily=Helvetica;" parent="1" vertex="1">
                    <mxGeometry x="39186.9" y="17580" width="60" height="30" as="geometry"/>
                </mxCell>
                <mxCell id="QgR1jz5Ba6JC49zfSx_E-90" value="" style="rounded=0;whiteSpace=wrap;html=1;fontSize=38;strokeWidth=6;fillColor=#ffe6cc;strokeColor=#000000;fontFamily=Helvetica;fontColor=#000000;" parent="1" vertex="1">
                    <mxGeometry x="39906.88" y="18440" width="392.57" height="184.55" as="geometry"/>
                </mxCell>
                <mxCell id="QgR1jz5Ba6JC49zfSx_E-91" value="AGW-Ingress then sends to request to AKS which is the backend service" style="text;html=1;strokeColor=none;fillColor=none;align=center;verticalAlign=middle;whiteSpace=wrap;rounded=0;fontSize=38;fontFamily=Helvetica;fontColor=#000000;" parent="1" vertex="1">
                    <mxGeometry x="39922.24" y="18517.27" width="361.85" height="30" as="geometry"/>
                </mxCell>
                <mxCell id="QgR1jz5Ba6JC49zfSx_E-94" value="api.oldmutual.com&lt;br style=&quot;font-size: 38px;&quot;&gt;certificate" style="text;html=1;strokeColor=none;fillColor=none;align=center;verticalAlign=middle;whiteSpace=wrap;rounded=0;fontSize=38;fontFamily=Helvetica;fontColor=#000000;" parent="1" vertex="1">
                    <mxGeometry x="39280.020000000004" y="18220" width="20" height="10" as="geometry"/>
                </mxCell>
                <mxCell id="QgR1jz5Ba6JC49zfSx_E-96" value="&amp;nbsp;AD 2" style="text;html=1;strokeColor=none;fillColor=none;align=center;verticalAlign=middle;whiteSpace=wrap;rounded=0;fontSize=38;fontColor=#000000;fontFamily=Helvetica;" parent="1" vertex="1">
                    <mxGeometry x="38284.810000000005" y="18657.27" width="109.13" height="22.73" as="geometry"/>
                </mxCell>
                <mxCell id="QgR1jz5Ba6JC49zfSx_E-97" value="" style="rounded=0;whiteSpace=wrap;html=1;fontSize=38;strokeWidth=6;fillColor=#ffe6cc;strokeColor=#000000;fontFamily=Helvetica;fontColor=#000000;" parent="1" vertex="1">
                    <mxGeometry x="39906.880000000005" y="17908" width="392.57" height="184.55" as="geometry"/>
                </mxCell>
                <mxCell id="QgR1jz5Ba6JC49zfSx_E-98" value="API Management Authenticates user with Azure AD" style="text;html=1;strokeColor=none;fillColor=none;align=center;verticalAlign=middle;whiteSpace=wrap;rounded=0;fontSize=38;fontColor=#000000;fontFamily=Helvetica;" parent="1" vertex="1">
                    <mxGeometry x="39920.03" y="17984.27" width="361.85" height="30" as="geometry"/>
                </mxCell>
                <mxCell id="QgR1jz5Ba6JC49zfSx_E-103" value="" style="sketch=0;html=1;dashed=0;whitespace=wrap;fillColor=#2875E2;strokeColor=#ffffff;points=[[0.005,0.63,0],[0.1,0.2,0],[0.9,0.2,0],[0.5,0,0],[0.995,0.63,0],[0.72,0.99,0],[0.5,1,0],[0.28,0.99,0]];shape=mxgraph.kubernetes.icon;prIcon=cm;fontFamily=Helvetica;fontSize=25;fontColor=#000000;" parent="1" vertex="1">
                    <mxGeometry x="41250" y="18270" width="70.09" height="90" as="geometry"/>
                </mxCell>
                <mxCell id="QgR1jz5Ba6JC49zfSx_E-104" value="" style="sketch=0;html=1;dashed=0;whitespace=wrap;fillColor=#2875E2;strokeColor=#ffffff;points=[[0.005,0.63,0],[0.1,0.2,0],[0.9,0.2,0],[0.5,0,0],[0.995,0.63,0],[0.72,0.99,0],[0.5,1,0],[0.28,0.99,0]];shape=mxgraph.kubernetes.icon;prIcon=cm;fontFamily=Helvetica;fontSize=25;fontColor=#000000;" parent="1" vertex="1">
                    <mxGeometry x="41721.52" y="18284.61" width="67.48" height="65.39" as="geometry"/>
                </mxCell>
                <mxCell id="QgR1jz5Ba6JC49zfSx_E-106" style="edgeStyle=orthogonalEdgeStyle;rounded=0;orthogonalLoop=1;jettySize=auto;html=1;strokeWidth=5;fillColor=#60a917;strokeColor=#2D7600;startArrow=classic;startFill=0;fontFamily=Helvetica;fontSize=25;fontColor=#000000;" parent="1" source="QgR1jz5Ba6JC49zfSx_E-107" target="QgR1jz5Ba6JC49zfSx_E-108" edge="1">
                    <mxGeometry relative="1" as="geometry">
                        <mxPoint x="40985.74" y="18037.68" as="targetPoint"/>
                        <Array as="points">
                            <mxPoint x="40734" y="17601"/>
                        </Array>
                    </mxGeometry>
                </mxCell>
                <mxCell id="NxfhWxnYNg09Ixo6E7Rh-32" value="" style="edgeStyle=orthogonalEdgeStyle;rounded=0;orthogonalLoop=1;jettySize=auto;html=1;strokeColor=#2D7600;strokeWidth=5;fontSize=38;endArrow=block;endFill=1;entryX=0.5;entryY=0;entryDx=0;entryDy=0;" parent="1" edge="1">
                    <mxGeometry relative="1" as="geometry">
                        <mxPoint x="40734" y="17600" as="sourcePoint"/>
                        <mxPoint x="40733.59" y="17851.99" as="targetPoint"/>
                        <Array as="points">
                            <mxPoint x="40734" y="17660"/>
                            <mxPoint x="40734" y="17660"/>
                        </Array>
                    </mxGeometry>
                </mxCell>
                <mxCell id="QgR1jz5Ba6JC49zfSx_E-107" value="" style="aspect=fixed;html=1;points=[];align=center;image;fontSize=25;image=img/lib/azure2/identity/Azure_AD_B2C.svg;dashed=1;strokeWidth=4;fontFamily=Helvetica;fontColor=#000000;" parent="1" vertex="1">
                    <mxGeometry x="40662.29" y="17310" width="148.59" height="137.83" as="geometry"/>
                </mxCell>
                <mxCell id="QgR1jz5Ba6JC49zfSx_E-108" value="" style="sketch=0;aspect=fixed;html=1;points=[];align=center;image;fontSize=25;image=img/lib/mscae/Azure_Firewall.svg;dashed=1;strokeWidth=4;fontFamily=Helvetica;fontColor=#000000;" parent="1" vertex="1">
                    <mxGeometry x="40934" y="17525.97" width="151.03" height="151.03" as="geometry"/>
                </mxCell>
                <mxCell id="QgR1jz5Ba6JC49zfSx_E-109" value="" style="shape=image;verticalLabelPosition=bottom;labelBackgroundColor=default;verticalAlign=top;aspect=fixed;imageAspect=0;image=data:image/png,iVBORw0KGgoAAAANSUhEUgAAAxoAAAJFCAYAAABa74HEAAAgAElEQVR4nOzdeXReWVrf++/e55x30izZ8mx5tiXbVa5yDXaVqxqqobuBHkLTnQZCQgcIXAjhkrvgQu4iyYWVFUiAe2ElTJfQ3PQKcCHNkE7TQDc91Oiaq1zlebY8W7Jla3qnc/a+f7xytbsGW5IlvdPvs1YtFtWu0pHq1Tnnt/d+nsd47z0iIiIiIiJzyFb7AkREREREpPEoaIiIiIiIyJxT0BARERERkTmnoCEiIiIiInNOQUNEREREROacgoaIiIiIiMy5sNoXICIi9evWBunGVO86RESk9ihoiIjIe0oSz/BowqXrngtXY85fTRi6kXBjwpEveYrlStKwBlqyllzasKg9YFl3wPKpvxZ3WFoy2kAXEWk2ChoiIvIW7+HqqGPfqRJvnCrx+qkSl64lXJ+AxAe3bFsYwL9tS8NX/h7J1N/3tKYdi9otG1dE3L8hxY51KdYuCQmDBf/WRERkgRlNBhcRkZFxx/OHi3ztjSKvHi9yfdJibIT3MXiHd8ms/r3GWDAWY0PwnsiW2LIy4tGBNO/bnmHd0hCrzQ4RkYakoCEi0qS8h9OXY/7HC5N8dV+BC9cALN7FVHYm5oexIRhLLirzwMY03707y8Ob06QiFXmIiDQSBQ0RkSZ07HyZP/raBF99o0g+TuFdeda7FrNmLDaIwCcMrLJ8//tyvH9HVseqREQahIKGiEgTGR5N+OxXJvj88wXGixbvytW+JACMCTDG8+DGiB/6QAsPbExX+5JEROQuKWiIiDSBxHn+7tUCv/vFcS5eD3FJCbyr9mW9gwlSRIHjow+l+WcfamVRuwo4RETqlYKGiEiDu3w94Tf/aoy/31fGeaZqMGqYsdggxYqumJ/5eBuPDmQ0o0NEpA4paIiINLBXjpX49396gzPXAnxcrPblzIixIanQ80+eyPJDH2gjpYbsIiJ1RUFDRKQBOQ9/tXeC3/irCSZLtVOLMWPGYm3EE9sN/+ofdtDZqqNUIiL1QkFDRKTBeOD/+Zsx/uBLeZLKWalqX9JdM0Ga+9Z6fvEHOlnerbZUIiL1QEFDRKSBeOB3vjDGZ/6+ODVsr3Fu8cam2LAU/uMPd7B6sc5RiYjUOu1Bi4g0COfh9744xh98ebJS8N1AIQPAuxLHL3t+/g9vMHilxgvaRUREQUNEpFF85kvjfObLhamA0Vgh4yaflDl6Ef7NH40yPLrAAwZFRGRGFDRERBrAF17M8/t/N0GSxDRqyLjJJyX2D3p++U9HyZca+3sVEalnChoiInXu1eNFfu0vxkiaaIHfJyWePJDwu389Vu1LERGR96CgISJSx66OOv7D58YZLxh8A3SXmgnvYv74qSJ/83K+2pciIiLvQkFDRKROOQ+//dfjnLhsan/a97zweA//6X+OMzjUjN+/iEhtU9AQEalTX91X4AsvFvFJqdqXUjXexQyNBvzn/zmBc6rXEBGpJQoaIiJ16MaE4/e+OEbSwB2mpsslRb6yr8Dfv16s9qWIiMgtFDREROrQnz6V5/RwiHdNVAF+G8YG/MGXJhidbK46FRGRWqagISJSZ84Px/z3ZybwSbnal1IzfFLmxGXP559XYbiISK1Q0BARqTOfezbP9XyI99rN+Cbe8blnJxkZ166GiEgtUNAQEakj54djvvhyEafdjHfwLuHcVcMXXypU+1JERAQFDRGRuvLl14tcHfPQZDMzps0n/PVLBQqaGC4iUnUKGiIidSJfcvzNy4WmG8w3E947jpwv8/Kx5m35KyJSKxQ0RETqxL6TZU5cjLWbcQc2iPjSazo+JSJSbQoaIiJ14sk3S5ggVe3LqHk+iXnhSIlLIyqWFxGpJgUNEZE6MDrpePFoAe/ial9KzfM+YXjU8+ZpHZ8SEakmBQ0RkTpw6lLC4FCsoDFNxgbsPaSgISJSTQoaIiJ14JUTRTxRtS+jfriEA4MxeXWfEhGpGgUNEZE6cOCM5mbMhPcJZ66UeWp/nnxJxfMiItUQVvsCRETkvY2MJ7x4tMgbp0p4p9X5mSjHnj95coLXThTZtSXD/etTtOeCal+WiEjTMN57PblERGrM8GjCS8cKvHi0wNBowIuHCySJbtczkTjYsNyydlmEx9KZczy0KcNDmzJ0tmhDX0RkviloiIjUkMvXY144XOCl40WKSRrvy4yOx7x6LEYbGjPjPPT1BqxfbvAerA2wQUQ2KrFzfYpdm7P0dmpjX0RkvihoiIhUmQcuXkt47lCe108WKCYRSVIG77EWrlz37D+dYKp9oXXGe1jSZelf/bbdC2MIgoh0ELNjbYpHB3Is69aRKhGRuaalHBGRKnEeBofKPHOgwIHBEolJkZQN3t/SltVDoQjOQaDTPjM2UXA4b7G3pjTvSeIS+cTy4kl45cR1tq9JsWtzhrVLIowSnYjInFDQEBFZYM7DqctlnnxzkiPnyiQEuMQBhXf8WQ+UE6/djFlKXOUv+y4bFt474lKBGHj1RMy+UzcYWJVi95YsG5crcIiI3C0FDRGRBRInnqPnSzy9P8+JKw5PMFXg/d5D+AxUVuP10jtLBnzlx3e7c8LOxThv2H/Ws//sGOt7LY8MZOlfmSIK9cMXEZkNBQ0RkXlWij0HzhR5+mCes8OACXBJjPfJHf/ZysuxXnRnwxjDW2WIxlSKNm5n6kgVGE4OhZz4+iSruvM8vCXDjrVp0pH+O4iIzISChojIPCmWPftOFXnmYJ6LI+AxuKTM7XYwZG4ZY2ZxBMoTl4sADF6NGHw2zzMH8jzSn2XHujTZlAKHiMh0qOuUiMgcmyx6Xj1R5NlDeYZHDRgztVI+c8bAqYuOU5fdNxc0yx15D9m04b4NAenw9ken7iQII8DQnYt5eHOWBzdmaMupOl9E5HYUNERE5shY3vHS0QJ7D+cZmbR47/HuzsejbuetoHHJYfVeOyOVoAH3bwiJ5mj/3tgAYyrD/x7cmOahTRm6WtUaV0Tk3ShoiIjcpWtjCS8cLfDS0QJjxQjvE1wyN8ejrIEzVzzHzycKGjPkPbRkDTs3BnO+G2RtiA1CsmGJ+9eneWQgy+J2BQ4RkVspaIiIzNLQjcqQvVdPFJkoBXiX4L2b069hDVwacRw4o6NTM+U9LO60bO2bx4RmDNaGZMOYe9ZmeGxrlqVdChwiIqBicBGRGfEeLo7EPHeowL5Tpakp3gbvyvP0FQ25jCW0DqdloRnxQCaaXsOp2X8Rj0vKTDrLSyc8r58aZcvKgMe2Zlm9KNIulIg0NQUNEZFpcN5z5krMswfzHDwXE/sUSQzevXPI3lzy3hNasNbgEiWNmfAeggXaXPDeEZcLJMbyxmDIm2dG2bgs5H3bcqxfFmmqu4g0JQUNEZHbcA5OXCrx3KECh8/HxC7EJQ7v8wvy9T2QCiEdQXx3deVNJ7DQnrMYDP6uek5Nn/eOpFwJn0cvGo5fGmdtr+HRqeF/YaDzbyLSPBQ0RETeReLg8Lkizx4scPxSAiYiiT3eFxf8WgILLRnDeN7PYiZE8wqsIZPy83ds6g6SuIgzhhOXUxy/NMGqnjyPDmTY3qfhfyLSHFQMLiJyi3LsOXi2soNx8nICWJJkvuovpiewhjNXHMcvJJoRPgNtOcuO9bZmiuhtUBnmsawLHunPcu/aFLm0zlSJSONS0BARAQplz/7TlSne50cMYEjiMnc35m1uWAMj4559J5IauJr64Dws7zZsWR1UbUfjvdggwhhLdy5m15YMOzdkaNfwPxFpQAoaItLUJouefaeKPHcoz8WRyu3Q3eWQvblmTKU+47XjCeMFr12NaXDes21NyJIug5vbjsNzxhiLDQLaMwkPb87w4MYsXa0KHCLSOBQ0RKQpjeUdrxwv8uzBSa7n53bI3nwwBo6f9wwOJTVzFKiWpSPD/RsC0ql5bG07R4wNsEFILorZuT7FQ5syLO1SCaWI1D8FDRFpKtcnHC8fK7D3cIEbkwbv3ZwP2ZsP1sDVMXjzVIJu27fnPCztMvSvrrPBeVPD/zJhzL3rMjzSn2VFd519DyIit1DQEJGmMDSa8PzhPC8fLzFZCnAuwdfYEak7SRy8diJhIq/b9u14D9vXBizuMHU55NAYQxCmCE3MwKqQPVtzrF4cYNVyTETqjIKGiDQsj+fitYS9hwq8cqJA7NMkSYx3tXtE6nashcErnhMXHLVQpF6rWrOG+zYEdX/EzBhLEKawlNmwLOCxgRwblmv4n4jUDwUNEWk43sOFazFP7c+zf7BMKQlJklLtH9a/A2MgX/S8djyhVJ9Zad55YP0yS1+vrcvdjHdnCMIIS8Ka3oDHtmXZvDwiCus8SYlIw1PQEJGG4TycuRzz9f0THL2QkPiIJC7VRQ3GdBkDJy44zlxxdb9iP9c8kEtVdjNSUd3nyndhCKMU+ITlXfDY1ixb+9JkNPxPRGqUgoaI1D3n4NiFEk8dmOTEJUfi7dQMjMZzc1fj1WMJpQS1ur2F85XdjDVLGmk3491ZGwKepZ2GR/sz7FifIZvSp0FEaouChojUrSSpTPF+an+eM8MOTEhcLtHo9QvWwMlLjlMXHVbn9YHK7kVL1nDfuoAobPRPwDdUhv8ZunIJu7dkeGBjhrasPhQiUhsUNESk7pRiz5unS+w9nOf0lQSwuDot8J4NY6BUrgzwmyx61IyoEjT6V1uW9diaHdA3n4yxGGvpyDoe2pTh4c1ZOlsUOESkuhQ0RKRu5Iue104UeP5IgQvXK21AG/WI1J1YC5evOQ4ONuFb9dt4LIvaDVv7Kp+JZmZsQBCEZIIyOzek2d2fpbdDszhEpDoUNESk5o3mHS8fK/LikTxXJ0PwniQuVfuyqs7akCPnypwfdpimOSz0NsbS02b4jgdSXLoek/igpie8LxRrA2yQIjRF7luXZteWDCsXharpEZEFpaAhIjXr+njCi8eKvHSswPXJEOfiuhuyN9cqw9zSGEpsWx2xZWWaf///jXF22OF98/1sjA34+U+08ok9OY5fLPP0gTxHz8ckNF7HsdkwxmCDFIGJ2d4XsXtLhjVLInUsE5EFoaAhIjVn6EbCS8cKvHi0yGScwiVlrVJPzVJI2ZitqyP2bM2yenEEwN5DRX7uD68zUQSa6MXaBBEfeTDk33xf51t1Kt57zg4nPHMwz4HB0tQMlXIj9rqdkZvD/3AlNq0IebQ/y6YVKQ3/E5F5paAhIjXj0kjCC0fyvHyiRKFcOQLT7CvSlSMwEamgxD1rUjy2Nceyrneeuf+TJyf4tb+YmAoajX9bt0GG+9Z6fvWHO+l4l6Jn7+HSSMxzh/O8frJE0aUrOxxNviMGEAQRxnjW9Roe3Zqlf2WKMNAWh4jMPQUNEakqD5wbqrwQ7jtVIvYpkqSEb8bWQbcwxmKDiNZ0zH1rUzwykGVR++2Len/zf4zy2a8WoMGPUBkbsrbX8Bs/1smKnvCOf354NOaFI0VePFZgsnTzCF5zf74qO2QpIGFlt+GR/gzb+1JkUtriEJG5o6AhIlXhvGfwSsyzhwq8capIQjh1PKq5b0k2iCptSjMxO9dn2N2fmXab0nICv/4Xo3zuuTI+KdOIP0sTpFjRDb/y6Xb6V0Uz+mevjTteOV5g76E8Y8UQ7z0uac6uZbe6OfxvWZdh1+YM92/Q8D8RmRsKGiKyoBIHpy6VeHJ/nqMXErwJp4p2m/tWZIMQMHS3eHZtSfPQxgytsxi8Fifwq38+yp/vjfFJYw0vNDZkWRf86g91smWGIeNWo5MJ+06VePZgnqvjFo9XDRDfPPxv1+YMD2xM055Ta1wRmT0FDRFZEOXYc/xSmafezHPiUhmH2pDeLPAGT3dLwp6BHPevT9OSubvjK+UY/q+/HOVzz1VqEhqhzsWGGTYscfziD7SzacXsQ8atJguON88UefpAnks3bGUuiwrHMcZgbEBn1vPAxjS7tmj4n4jMjoKGiMyrUuw5OFjiyTfznBvxgNUMDCAIUxgcSzrhfVuzbOtLk5nD4ypx4vmjr03wu39boFz2eF+voc5gwzQ71zn+z3/UydJ3KYS/W6XYc+BMkacPFjh79eZntDGPns2EsQE2CGmJyuxYm2bPQJae9kCT6EVk2hQ0RGReFMqefSeLPHMwz6XrgLG4pKwjUjYEHGt6A963PcuWlSmieez48+SbBf7j50a5PGqn6jbqhzEWa+ATe7L884+00ZKe3zfc2HmOXSjz9P48xy9q1+2mm53PIlNi+5oUj23Nsqw7wCpxiMgdKGiIyJyaLHpeOV7guUN5hkYN4HFN31LUEEQpcDEblloe25Zj0/IU4QIdfx+8kvCrf36DF455XJLUwWC/ypC5njbHT32khQ/uzBAs4IQ55+HUpcrwv0Pn4qk6onJDHEG7K6bSqSqkTP+qiPdtq8xyUd4QkfeioCEic2J00vH8kTwvHi0wWohwzqmjDzdnFiQMrKwM2Vu3tDpTmUsx/NXeCX7/bycYmQymCsVrjzGVozlP3BPxEx9uo6/3zu1r54v3cP5qzDMH87xxukTZafgf3DL8z5fYvDxiz0CGDcujBQ2DIlIfFDRE5K5cH3c8eyjPK8cLjBWDqRXz5l75NcYSRCmsL7G9L+LRgSx9NbLye/pyzB98aZyv7CtTdiEuKdbEi7OxERjDhqWOH/5AG++/N4OtofrjSyMxzxwssO9UkaJL4+KSduqodEszONYtCXlsa5YtKyMN/xORtyhoiMisXL4es/dQgddOlsjHES4pN/2L182V3siU2LE+zSNbMizvDjC1kDBukTjPG6fKfPYrE7xwtEwpCfGuVJXAYWyIMYZVizyfeizHhx/OzXstxt24NuZ47nCe104UGS1WZr9o2vg3uqet6IY9/Zk5b24gIvVJQUNEZuT81ZjnDuXZd6pIIa5MWa6FFfFqskGIDSIytsh9G9I8siVLb2dArb9mxYln/5kyf/7sJM8eKDBWTOHxeBfDvO1KmUq4sCGWEgOrAj66K8sT92ToqKMWqjcmHC8cLfDysQLX8xHeJZVjVU3OWIvBsLTTsGdrhu1r0rSk6+e/q4jMLQUNEZmWU5fKPHc4z4HBmNhryB7c7MYT0paOeWBjmoc3Zehuq78BZ97DxZGEJ98s8PU3ihw8W6ZQjirNXX0ytWJ/F/+tja2ECyzWlFnVY9i1JcW33ZdlYHVEKqz1SPbeJgqOV44X2Xu4wNBY5ftQbdLUkSpj6cwl7N6S4YENGdpzChwizUZBQ0TeU+I8Jy/GPHNoksPnEryJpgJGk9dgWIsxlkVtngc3ZnhoY4a2BnmJSpzn7FDC6ydLvHysxNHzZS6OOPJFDyYAY6d2sNw7gmbliJh56894FxMGnu42y5rekPvWp9m5IWJgdYpsDR+Pmo18ybP/TJFnDxY4d83hPTpSxVQzBBuQi0o8vDnDgxszLGqvvzAuIrOjoCEi71BOKvMEnjkwyYlLDkegAWaADVKAZ3GbY3d/lgc2ZMg12Avz200UPEOjCYNXEgaHYi5eixkZg9HJhMmiJ19yGGOwBtpzlkzK0N1mWdIZsLw7YO3SkCWdAV2tBtsEXYmKZc/BwSLPHiowOFwJZ3FcnfqXWmKsxdqIXBRz3/oUuzZnWNpVvY5iIrIwFDRE5C3FqSnezxyYrLwk2coRqWZ/SbJBiPGe5d2WR/oz3LsuTSZq/Jfm2/He4xwkUx8NYyC0piY6a9WCOIHjF0s8fWCSoxcSwJJo+B/GBgRBipAC965N8chAllWLompflojMEwUNEaFY9rx5psjT+/Ocv+bBGE1ENoYgSIGPWb3Ismcgy9a+VF3XE8jCcw5OXCrz3KE8B8+Wp44favjfzd+vlI3ZvCLk8W05+npDBVWRBqOgIdLEJgqe104W2Hs4z+VRCxhcXJuD3BZSEEYYEtb2hrxvW5bNK1MEjVGCIVXiPZwdrnRsuzn8zyXlpm+oYKamjRti1i+xPL4tx8bl+n0TaRQKGiJNaCzveOV4gb2H8lydsHjnmn6FtTIDI8L4mI3LAx4byLJxRaoqU7ylsV28FrP3SIFXjxcpuQjnYlyiwnEbRFiT0Lco4PHtWQZWpTRtXKTOKWiINJGRsYQXjhZ48ViRsUKI90nTH5EyxmCDFKEp078q4rGtWdb01sYUb2ls18YSnj9S4KVjRcaLlZk06lTF1A6HZ2UPPNKfZXtfinST10SJ1CsFDZEmMHwjZu/hAi8fLzJRslOrp839q1+ZgRERUGTHujR7BrKs6A6p+Sl70nCuTyS8cKTAy8eKXC+EeOc0i4PKLqOxsKzTsntLlvvWpchq+J9IXVHQEGlQ3sPl6wnPHJzk9ZMlii6F0wwMjLUEQUTaltm5Mc3uLVmWdKqvv1TfN4b/5Rkas2DAxQocNgjBWLpzCbs2Z3hwU4a2rAKHSD1Q0BBpMN7D2aEyTx/Is3+wREKaJCk3/ZGMyhGpkJZUwkObMuzaXJ9TvKXxFcue108Wef5IgbPDDjA419xHHKFSw3Fz+N/uqeF/PRr+J1LTFDREGoTzcOpymaf35zl8rkxCSJKUNQMjCDE2oCMTV1ZDN2boaNFqqNS+OPHsP1OZxXH2KsDU8L8mP/ZojMUGIblUws71KR7elGVJlwKHSC1S0BCpc4nzHDtf5skDeU5eSvCmMmSv2X+1rQ0wxrCo3fNIf4771qVozShgSP2JE8+xCyWeOVjg+MUER1AZpNnkzFSdVUiJ+9al2LUly6rFocqsRGqIgoZInYoTOHS2stp5ZsiReKsCUgxBGOG9Z2mHZ8/WLPesSZFTAak0AOfg5KUyzx4qcOhcGWdSJOVi09ddMXUsMiRhW1/E7v4s65aoc5xILVDQEKkzxdjzxqkizx7Kc/6qBxuQxDoiZcMI4x2regx7tuYYWJUik9KbhjSmwaEyew8VePNMmZLTLiYAxhCGafBlNi8P2DOQZYOG/4lUlYKGSJ3IlxyvnSix99AkF69X/p5TgTdBmAYfs7bXsmcgw5aVaaKw2lcmsjAuXot5/kiBV44XKLk0SRLjVTiODUKscaztDdgzkKN/VYpQZRwiC05BQ5qC91CKPaXYU37bMzgMIAoN6cjU5BTo8bzjpWNFXjpWYGjM4r3XESljCMIU1sdsWh7waH9lirdWLqVZDd1IePlYkReOFpgoh7hEw/9uHqXEO1b0GB7dkmH7mhSZVO3eKMoJFMuOcvzNm9TWQCqEdMpoWrrUFQUNaTjl2HPhWsLZoZjjFxLODMVcuZ5wYyJhogiThW985L2HXMaQTUF7LqCn3dDXG7F+acDq3ohViwKy6erc1K+NJW8FjNFChHOJAgaVFpehTdi2OmL3lizrluostshN1yccr54osPdwgWvjgPeq4bildmtxm+OR/hw7N6TJVeneDpV6mys3Ek5fiTlzOeHU5ZhLIwkjYwnjRc9E3r8VNLyHVGRoyUBb1tDVGrByUcjapQFreiNW9wZ0qpOe1CgFDWkII+OON0+XePFoiddPlDg3HDNeDMBM3Xw9gKs8dN/WGtK89ZZqp/68BzxpG7O0O2Dr6hS7+tPsWBexrDuY944mQzeSt45CTJQjrUxSaWcZhCkiW2Z7X8Qj/VlWL9b5KJH3Mp537Dtd5JkDeYbHLd6jhQqmutHZgJ4Wx4ObMjy4KU37Ag3/yxcr7YpfPlbi1RMlzlyOGZk0eG450+Ud4N+13qbyrLr1OQUBMYs7DJtXhjy4KcPODSnWLgkIA62+SG1Q0JC6VSh59p0s8XevFnj+cJGhUQM2qpxP9sndr+IZgzGVGQzeJ7SlE+5bH/GB+7Ps3pKe81kMF67FPH+4wGu3TPFWDYadGtCVcN/6NLv7syzVFG+RaSuUPG+cLvLswTznr3kwBpeohqMyXyekNVVi54YMj2yZnwGezsORcyW+8nqRr72RZ3DIg03jfVJ5Tt3tPd4YjAkwpnLtkS0xsDriiXszfOs9GZZ1634p1aWgIXVnouD48msF/vK5PIfOxThCvFuIrksGY0PAsaIbPvJwju98MMvyu7yRnx2K2Xskz76TpUr3GA3Zw9pwaop3mZ0b0uzanGGRJgCLzFop9hw6W+Kp/XkGr3ogwCXqVHVz+F82itmxNsVjW3Ms7rj7e00p9uw9WOQv9+Z56ViRYhJVQoWf/8UjY0Mwhs5cwrfek+Hjj+TYvDKqyRpEaXwKGlI3Jouev3k5z589NcHJy7ZywMlVZ2iVsSHGhHTmynx0V5ZP7mlhadf0dzicg1OXSzx7KM/BwQRnoqn2lM19ltrYAGsDOrMJOzdk2N2foSOns8cicyVxcOxCiacP5DlxqTJ/R8P/KveeIIiITIntayIe25pjRc/Mj2fGCTx9oMBnvzLOgUGPI8An1ZnmbkyACSJSpsRj21L80Afa2LRCR05lYSloSM3zHp45WOC//O04B85OFTbWygv51PGqpZ0JP/j+Vj78cI7sbWY3JA5OXCzz9MFJjpyLcQQ6N01l2JYxhu6WhF2bszy0KU2LpniLzBvn4dSlMk/tz3PkQvyNxQ5XI/fWKrJBRGRjBlan2DOQZU3v9BpOHLtQ5nf+epxnDpZx3tRUm2FjU+RSMR9/JMs/fn8LPfNwTEzk3ShoSE27POL43b8Z44svl0i8wdfoS7mxAWC5b63hf/t4G/2rUt/0v5cTOHa+xNffmOTUkAMTTq0iNvevnw0iDNDb7nh0IMd961Nka7j1pEijcR7OX415+sAkBwbLlKbqw5p+d9UYbJjC+DKblkU8ti3LhmXRu7bQLpQ9n/3KOH/yZIHxQuVIWk3e243F2ogV3Qk/+ZFWnrgni9XtVuaZgobUJO/hqf0Ffv0vx7h4PcQlxbqoW7BBhlwq5p99KMv3Pt5K4j0HzhR5cn+eC9cAE5Akpbr4XuaTsQEGz8qegMe3ZdnepyF7ItU2dCPh6QN53jhdZKJoSVzS9PcqjK3M4nAJfYsNe7Zm6V+ZIh1VtjgOnyvza38xyr7TprI7XQcBzdgIazwffjDiX3y0neb2fBsAACAASURBVK5WpQ2ZPwoaUnNKseczfzfOZ79WpBT7mtp+nhZjCYKAxwcClnTB0JjBqbXkW0P2jE9Yvcjwvm1ZNq34xgNbRGrDtbGEvUcKvHq8yFixMvyv2TvgAQRBhMezshvety3HxWsJ//dfTVRa1Nbh/d2EGfqXO/6PT7XTvyqq9uVIg1LQkJoyNun45T8b5ctvuLpZHXovJkjTnk3YvMLTkqmEjWZlgxCLY8OykG/ZnmX9Mk3xFql1Y5OOF48VeOFIgWsTBu9d09dwGFPpPjh4OebMZUfsWJBOUvPFBCm6Why/8Kk23rc9U+3LkQakoCE14+qo41//t+u8eAx8Uqz25cwJ76ElAwN9IW1ZmipsmKkjB8aX6V8V8fjWHGuWhGqxKFJnxguO10+WeO7gJEPjlSLiZuxUZbhZRO84O+wb5liZsQG5lOFnPt7CR3flqn050mAUNKQmnL8a83N/eIPD55lqBdg4vIdsuhI2OnIG1+C/csYYbBARmJh716R4pD/D6sXT69oiIrWrUPa8ebrIc4cKnL/qcdA0w/8MU10DLzjOX3UNdz8zJiAVWX76Y1n+4WMt1b4caSAKGlJ118YcP/uZ6+w77RsuZNzkgWwKtq0JactV5mg0mpt96ENT5P71aXZtzrJykSq8RRrNzeF/Tx+Y5PQVjwmmuug18OuEMYaj5xIuXG3Am/dNxhAFlp//ZCv/YLd2NmRuKGhIVY3nHT//hzd4/qir2vC9heKmjlHduy4kk2qcZ/LNybq5VMJDG9M8sDHNkk4FDJFGFyeeYxfKPHsoz5HzcaVtd1JunJvbFGPg9CXHqUuNt5PxDiYglzb84j9q44l7VbMhd09BQ6omTjz/4b+P8pcvxA27k/F23kNXm2HrmoAoqO/nsQ0irA1oSZXYtTnDAxsy9LRrCJRIs7k5/O+Zg3kODJbBRiRJjG+ATlXWwoVhx7ELHtckRXbGWLpaDb/xo11s7VM3Krk7ChpSNf/tqxP8xucnpx5GzfMx9MDybsvmlQG+Dr9vG4RYa+nKJTy8OcvODWk6cmohJdLsvIfz12KePZhn36kSsU9Vpo3XafdAY+DGhOeNkwlJfX4Ls2aCFBuXGX7zRzvo7dQCksyegoZUxcvHivz074+RLyZ13cJ2tryHTSstKxbZutnVqEw/h+Vdhoc3Zdi5IUM23ejnCERkNi5frwSO10+WyJcDkiSmnhaUjIFiGd48lTA26Rv/yNS7sEGaD94f8Es/0I5txh+AzAkFDVlwY3nPT/zWCIfON27x9514IBMZtq8Nar7tbRCmwDtWdMPuLVl2rEtryJ6ITMu1Mcfew3lePl5kohTiXIxLav9IlTFw9Jzj3LBr6pbcxgb860+18jEVh8ssKWjIgvvPXxjjv361jIsbY1bGbHkPPe2WbWtsTa6W2SDC4OhbbNkzkGXbmjShTkiJyCyMFzwvHMnz4tECV8cN3vuareEwBoZveA6cSepmx3m+GBvS22H43Z/sZPViNfmQmVPQkAX15ukS/+J3rjNWcPVdCT2H+lcFLOk2NfHjMMYQhCksCWt6LY9tzbJ5RUQY1GASEpG6M1H0vHq8wPNHCly+YTDG1NTwPwPECbx2MmG8SY9MvZ0JUnzkwZB/+/0d1b4UqUMKGrJgvId/+fsjPHMwwbtytS+nJlQmhxt2rLekoiqGDWOmZmAkbFwe8vi2LOuWRFjtYIjIPCjFsO9kgWcO5rkwAt4YXFz954I1cPqK58T5RPe/txiiyPJbP97Jzg2pal+M1Bntg8mCefFoiecOlvCNOK1uloyprPBdGoG+3oUvlTTWEgRpAooMrDI8vq1NU7xFZN6lQnhwU4Yd6zIcGCzy7ME8p4cCjI1I4iLVWAM1Bgolz4Vhp5DxTTyxC/l/vzzO/Ru60eNBZkJBQxZE4uCPvz6JMxHQ3LUZb2eA88OOJV2W9ALtahhjsWFEypS5d61nz0AHy3t0OxCRhRWFsGNdmu19KY5djHn6wCQnLlkSFn7auAEuXvXkiw7bzBXg78K7Ei8cNTx/uMjuLelqX47UEb1ZyIJ4+ViJvYdL+GZrRj5NhZLnyohnda+Z310NYzDG0pJyPLApYPeWFhZryJ6IVFkQGLasjNi8ooNTl8vsPVxg/xlD2QW4JJ73r2+oHOe6NOIw2tJ9J+9xpPiL5wrs2pzWrrdMm4KGLIjPPz+JIwBqs8tILbg04li+yM5LK0VrQ4y1tKRidm3O8NDmNN2tChgiUluMgXVLI9YtjThzpcwLRwu8fsoTu4gkmb+jt8bA1VFPvoReot+DdyWeP2Q5fK5M/ypNDJfpUdCQeXd2OOG5Q9rNuJ1KrYbhxgT0tM3dXA1jLcYEdOUcj/ZH3L+hjXZN8RaROtDXG9HXG/H4toQXj+R56ZgnX47wLp7zGo7EwcVrekbdlvfk44AvvVpU0JBpU9CQeffcoSJjpRDVZtyec56h647u1rsPAkEYAYae1oRH+9PsWJemLauAISL1Z2lnwEcfbuWR/iwvHyvw/JGEyXIKlyQ4d/fHqqyB0bxnvKDdjDvxLubp/Z4f+WCOloyeKXJnChoyr5yHp94sLnw7pTpkDVyfgFJS6cgymwU7G4R471nW4dizNcc9a9JkUnpyikj9W9Qe8KGdLezuz/LK8SLPHSpzfTLCe3d3w/8MXBurzM/Q3fIOvOP0Fc+BMzEPbVarW7kzBQ2ZV2eHYg6eLc/dWaAGly86xiYtizrMtI8GGGOwQQrvY/oWGfYM5Ni6OkUq0iNTRBpPR87yxD1ZHtqU5vWTlda4w2MRTM3i8DNc2XLOMDLumOdWHA3DBGmePVRU0JBpUdCQefXm6TJjBYv31R/EVA+8h2tjjkXt09mSrkzxNiSs7XU8NtDCllUpTfEWkabQmrHsGcjy0KYMb54u8fSBSc5fs4AlSab3zDEGJguesbzqM6bLu4SXjyWU4jZSeouUO9BHRObVq8eLaDN6+oyBiTw4b3iv82bGWIIoBa7E5uWeRwda2LAsRagmUiLShFKhYeeGNPesTXNwsMgzB/OcvhJibEASl267O2yA8bwnjr3a2k6T9wlnhzznhmPWLdVrpNyePiEyb0qx58RFB14rRTMxUfQUSp5s+pvrNIyxBGGKyJbpX+l5pL+dNUuieWmHKyJSb6IA7l2bZltfmuMXSjy5f5KTlwMcAfF7Dv8zjBc8HqMlsenyjslSyOnLChpyZ/qEyLwZGXOcvlxSzpihOPEUy55c2k6dNTYEYUQqiNmx1vBIfzsrNMVbRORdBRY2r0yxcUWKwaEyT+3Pc/icoexCkjjm1t3ixHtGJ71CxkwZy8HBEk/cm6n2lUiN09uKzJtLIwmTRVDLqZlJEhjPQ3e7JbQR6aDEfesDdm9uYVm3fmVFRKbDGljTG9H3rSEXriU8fSDPgUFH0UUk5RLgiGMolb1O+M7C6cvzP7Fd6p/eWmTenLua4E0AXjejGTGQOEN71rNzQ8DDmzvpaVMBhojIbBhjWNET8r2Pt3HlesJzh/K8dhLycZpCqTTV1va96+LkXXjHlRuGUuxJhUpp8t4UNGTeDF1PMLYyxVWmLwgiOlsM/+vHumjXkD0RkTnT2xnwD3a3smdrlpeOFfjSK1CKQSFjZrx3XBszFEoKGnJ7Choyb0YmdOOeFWNIHAoZIiLzZFF7wHfsbME7y9MHx7UgNlPeMTphKJb1nJfb05uMzJvxfIJWiWbBV7pOFUr62YmIzKfxgrqVzFbZwWhezym5PQUNmTdjef8e7QTl9jyFktNKkYjIPEsSUCX47Hjnp35+Iu9NQUOk1nhPOYFyoqAhIjKfNKPvLmkxUe5AQUPmje4/d0fjo0RERKSeqRhc5k0qNNqRng1jyKYgk9IPT0RkPmk97G7pOSW3px0NmTftOYtuQrNhiAJDqNEZIiLzKhNpfsZsBYGlJatnvNyedjRk3rRlLRjdwGfMGFoykI50AxcRmU/dbRYFjdlJh5DVzrvcgXY0ZN50t1vwakkxc4auNv1qiojMt+42PadmxVg6W60WxOSO9DYj82ZZl8Ul5WpfRt0xxrCiR+emRETmW2drUDnma/Q6NBPGBCzuDMimFTTk9vSbJfNm1eKQ0GpLejb6eqNqX4KISMPrbrV0twUYBY2ZMYZlXRarnCF3oN8smTc9bZbeTq0UzZgrsLpXOxoiIvOtJWNY0aPn1Mx5NizTgpjcmX6zZN50tFhWLw4wVj0HZqKr1bJmiX5mIiILYWB1hDFa3JkJn5TZslLPKbkzBQ2ZV1v70ho8NwPGBGxYlqKrRb+aIiILoX9VCpeUqn0ZdcPYgGXdIWuWakdD7kxvMzKvdm6I8K6E5mlMk7HcszbC6MclIrIgBlaHdLeqnnDaTMj6ZSGL2vUKKXemT4nMq00rQpZ1WYzVtvR0WMo8sFGrRCIiC2VRe8C2vrSO+U6TMYZdm1PVvgypEwoaMq+6WgN2bkzpBj4NxoasWxYxsFo3cBGRhfTo1nS1L6FupGyRBzbpOSXTo6Ah8+79O3I6/zoNxobs2Zohp77kIiILaveWFF0tqPvUHRgbcs/aNOvVcUqmSb9RMu92ro9YvyxUn/LbMZaULfPtOzLVvhIRkaazoifgoc0R1uoF+ra854P3ZzQ/Q6ZNb34y73IZw4fuT4PaB74nYyMe3BSxWe0CRUSq4iMPZ8GXUDeOd2dMwPIeeHybjpnJ9CloyIL44M4sPa1evcrfg3dlPrYrW+3LEBFpWg9sSHHvujRGuxrvLoj40P1Zutv06ijTp0+LLIgVPQEf3JnBBLqBv52xETvWVuozRESkOsLA8D2PZMG7al9KzTE2YFFrzHc/ogUxmRkFDVkwn3osS09rom3pb2IAx/d9SwuRNntERKrqiXvTbOsLtCj2Nsam+MjDWZZ163ivzIyChiyYFYtCPvloRkXhtzBBit1bQp15FRGpAenI8EPf3kJgnBbFphgTsKS9xCf3aDdDZk5vfLKgPrEny6bloc7AAmDIRgk/+qE2UqEeaCIitWDPQJpv25HGBjrOCoAxfPrbWunt0La7zJyChiyojpaA/+U7cwRGR6iMDfnU4xm2r1HoEhGpFdbCj31HC4ta46bfgbdBmt2bAz78kHYzZHaa+zdIquLxbRm+e3e2qVeLTJBiW5/lB9/fUu1LERGRt1m9OORHP5TDGEOllq75GGPpanH81EfbyKSa82cgd09BQ6rix7+rlS0rXHMW3BlDe8bzsx9voy2rX0ERkVr00V05vvPBNDZsxho6g7WWf/7hFjauaMLntMwZveVIVXS0WP7VJ1ubcLaGIQosP/WxHFv7dPMWEalVgYV/+bFW+lc4jG2ubksmiPjEo2k+8lDznjyQuaGgIVUzsDrFz35PG6nIQFOcgzXYIMX3f0uWjz2cq/bFiIjIHXS2BvzC93awpNM0TRMTE6TYvdnykx9pxVodmZK70wxvd1LDvm1Hhp/+WAuBNQ1fHG6DFN/1YMCPf1dbo3+rIiINY9OKkH/7/W105HzDL4qZIMXAKvjX39dBLt3Y36ssDH2KpOo+sSfHj31HDmsCGrXozoYZ9vQbfua72zSYT0Skzjy0Kc0vfG8bLWnbsMeoTBCxZYXhVz7dQW+HXg9lbhjvva/2RYgAfOZL4/ze304SJx68q/blzBkTpnlim+UXvreD9lxjBikRkWbw5P4iv/QnY9yYAO/K1b6cOWOCNFtXeX75050s79ZqmMwdBQ2pGc7Dnz8zwW98Pk+xXP83cWMqK18ffiDgf/9kB1m1BxQRqXvPHSrwi388xtVxi09K1b6cu+ZNyH1rLf/un3SyTCFD5piChtScJ98s8Mt/Ns7wuKnfm7gJiELDj3x7hk9/eythoJAhItIoDp8t80t/coNjlwJcXKj25cyKp7Igtr0v4Nd/pIuedoUMmXs6hCc1533bM/zWT3RyTx9Qh61vjY1Y2gm//INt/MiH2hQyREQazJZVEf/px7v4wL0Ga4O6a2bigdDChmWG1UsMqUivgzI/9MmSmrR+WcgPfaCF1YsNga0cq6p1xgQYG7FnwPI7P9nNt96j/uMiIo2qpy3gF3+gg5/7RAtdrRYTpKp9SdPiHHS0GO5ZF7BqsWGi4LlwLa72ZUmDaszWCdIQLo+U2dSXobstz+nLnuvjnso6TK0xmCBiSbvjn34gx8d2ZYm0iyEi0vDCwPCJPS3cvyHNb39hjCcPBHgP3iXVvrR3cB7SIaxYYlm12BIGlb8XpjIMXimzWRPAZR4oaEhNihPP2eEElxi6Wg2tGbhy3XBu2DFRAIyveiNcYyorWJmgxIcfCvn0t7eypLP+jnqJiMjdWbc05Ff+aSdff6PIf/nSOMcvBeB9TTQ1cR4CA0s6DX1LAlqzgP/GSQHvHYNDtReMpDEoaEhNGhl3XB1zOAfeV1aNViyGRR2WyyOeC1dhsuTBL/zRWGMCsCGtqTJP7LB83/u62bAsxNTZGV0REZk7YWD4tvsyPLwlxZdeLfC5ZyY5finEY/DJwgcO5yEKYFGrZcUiQ1db5Rn19hZA3iWcv+rIl7y6I8qcU9cpqUlvni7yX782iUveeW7UGiiWPcOjcHnEMTYJ5cQzf8PFDcYGGBviXZlVPfD++zJ81wNZ1iyJ6q0GUEREFsBEwfHswRKff36S10+VKSYpvHfg4sr/nWPe3+wkBZnIsLij8ld7i8GYdwaMm4wxGOP5ye/qZM0SHZ+SuaWgITXpCy9N8OTBhKRcfNf/3QDGQuJgfNIzPOoZGYPJoqOc3PJnjGHmdR0GY+1UxyuDJWZpJ9y3PsW33JPhwY0pWrPqoyAiIneWODhzOeapA0WeerPAiYsxE+UQMOAd3iezHFJrcFOvcNZU6i86Wy09HYaOFkM6qjwHp9NMJYwyfOyhiEf71cRE5paChtSk3/7idU5dMSTxnedo2KkdhcTBZNEzNgmjk57JoqdYrux+QGU15+YN9+YmhL/l31HZmTBkIljRE7JyseWeNSm2r02xcXlEW1ZbFyIiMntJAueuJhw4U+L1kyWOXShz8Zrj+nhC7MB7g8fj/TufUwawU2tc1kA2BanI0NlqacsaWjOGKKrs7jv/3jsY7yYI09zTZ/jH39o2h9+tiGo0pAaN5R1DNxwumd5d8q3wYKAta2jLwrIeg/OGOPbkSx7nDOXYM1Gs3MDLUyeyorDyz2VTlnToCVMpvmVrwPc82ko6UrAQEZG5EwTQ1xvQ15vlOx/MEicwMp5wbdxxeSThq/vy7B+MSRJHklQW0MJwasciMmRTlWNO6ciQCiv/Pju1SOZ95fk2zUfnN/E+4dKIoVByZFLasZe5o6AhNWfoRsKNidl1wLh1i9jgSUWV7WOMwfCNY1Q3z7Jac+ufNhjj2L42p5AhIiLzLgxgcUfA4o6AzSsiAuspupi4XPimmovKE2mqmJubuxWVcFF57t3d4RSXxAyPGkbGHcu6FTRk7ujTJDVncKhMGM3NOdGbN2HnPInzJK6yQnRzW/nm/584j3MQWcfyLrWoFRGRhbdqcUi5VPim55S75Tl181nlfeX5NpfixDA4VP12vNJYFDSk5py7OvfdOKbDBgGLO0M6WhU0RERk4fW0BXS0WIxZ+NczG4SapyFzTkFDakop9pwdKuGqMFXVmIBlXQGhfitERKQKWjKWZV0RNlj4k+0uiTk7XCaZTZGHyHvQK5XUlKujjtFJj69C0ADPml71EBcRkerpq9JzyPvKoNyRieqcKpDGpKAhNeXiSEzso3kZZnQ7xhiML7OsR/0RRESkelYvDt51WO1CKJYNl0aq87WlMSloSE05ealclUnbxgZ0tliWdKg+Q0REqmdpV0h7zmDtwj+PbBBxRnUaMocUNKRmJM5zbjjGuYXftrU2YHlPSCaltrYiIlI97TnL4g6LqULQ8N5x5vKdB+WKTJeChtSM6xOO4dG4OvUZxrB6sY5NiYhIdRkDfYujqgQN5xKu3HCMjGtXQ+aGgobUjIvXYvIlFrw+A8CVi6xepEJwERGpvtWLI5K4uOBf17uE0cmEKzcUNGRuKGhIzTg7lGCDKrzsG0M2bViiQX0iIlIDlvcEpILqtJm1QcSZyyoIl7mhoCE1wXvPuatxVXYzrA1Z0RPRltWvg4iIVF9HzrKkM6xKQTjA4LAmhMvc0JuV1ITJouf8cAmXVGNQn2F5t3YzRESkNoRB5blUlYJwF3PxWkK+pMF9cvcUNKQmXBpJGC8ALPyNzbmENUtUCC4iIrVj3bJUVXb5vfeM5p3macicUNCQmnDuaoyN0gv+dY2xZCLH0i4FDRERqR0rugNCk2CqMFzK2DTnrypoyN1T0JCaMDhUxvuF382wNqC7tfKXiIhIrehuC+hqrc48DYBTl1WnIXdPQUOqrlj2XLiWVGV+hrEBqxdHhMoZIiJSQ9KRYUVPWLV5GheuJhTLqtOQu6OgIVV3dTRhZKw6QQM8q3t1bEpERGpPX2+EYeGPTnmXMDKecHVU8zTk7ihoSNVdGEmIfViVo1PGlVjZo6AhIiK1Z+WiEJ9UYXCfdyQ+5MI1BQ25OwoaUnWnL5WqU+xmDB0tlp42nZsSEZHas6QzoC1noQq7GhjD6Suq05C7o6AhVZU4z/kRV5UWfsaGLO8JyaSqcAMXERG5g1zasrInxAZVmKfhHeevxsSJ6jRk9hQ0pKrG8p4rI2VcUp02eit0bEpERGrYqkUh1djRcEnC5esxo/mFXwiUxqGgIVV1bjimUK7OjoJPyqxdElXla4uIiExHX2+IS6pxhMlTii3nhlWnIbOnoCFVdXa4TFCNQX02oL3FsrhD9RkiIlK7ejsD2nMWYxb+lc2GKc5cKS3415XGoaAhVeM9DF6J8W7ht2WtDejtCGnP6VdARERqV2dLQG9HgA0W/qivdwlnhxKcU52GzI7esqRqxgueyzeqNKjPWFYvjqrRx0NERGRGVi+OqrKj4V3ClRsJo3kFDZkdBQ2pmqEbMaOTDucXPmg4l7BqkY5NiYhI7etbEuGqsCjnnGN0MuHKddVpyOwoaEjVnB1OMEGqcoZqARlrSYcJy9VxSkRE6sCyroB0kGDsQi+QecIozeBwdTpDSv1T0JCqOXOltOAhA8CagO7WgK5W7WiIiEjt62q19LQHWFuF41Pec+qSCsJldhQ0pCoKZc/FkSrVZwQhKxcFBPr0i4hIHQisYdWiEGMXfifeuYQr1x2TRdVpyMzpVUuq4vq4Y3g0qcqZU+8SVi/SsSkREakffb0hvgrDbb1LuDoWM3RDx6dk5hQ0pCoGh8t4U52Xfe/KrFqsQX0iIlI/Vi2OwFfnZT8I05wdUtCQmVPQkKo4N5Rgq7AFbG1Ad6ulp031GSIiUj86WwyL2gPsgheEV5qoDGpCuMyCgoYsOOcrE8GrUp9hA5Z0BWTTmqAhIiL1I5uyLOsOqlOnkcScHS5TTlSnITOjoCEL7sZ4UrX6DIxhjY5NiYhIHVq7pDrPL+8Sro87ro65qnx9qV8KGrLgLt9wTBbBu4W+YRmScpGVKgQXEZE6tLInwiVFMAu7K++9I/Yh56+WF/TrSv1T0JAFNzhUJghTwMJuwVpr6cgFLO1S0BARkfrT2xnQ2WKrU6dhLKcvqyBcZkZBQxbcmStlvF/47VdjAxZ1BLTl9LEXEZH605IxLOuOqjAhvHJ86txwTKLTUzIDeuOSBTWWd1y+Xp36DGMDVi8OsaoDF5H/n707j/Orqg///zrn3s8y+yQzk31jRzZFEJR9EVSqoKIIqKC17a+2Vrv+2vqttrb21/3XxWrrjgJCQEAQZAlrAiGEfScBQpLJTDL7+lnvPed8/5gEScgyk3zu536W9/PxGH0IcT6ffObOved9znsRokotm+OjVPmXb9YaBsZCRiel+5SYPgk0RFkNjhtGJuOZCG7DIoulPkMIIUQVW9TpExZzZX9d5yy5oqJ3RAINMX0SaIiy2twfoGIa1Odpw8IOCTSEEEJUrwWzfZrSGij/8bz2fDb3S0G4mD4JNERZdQ+ZsnfLgKlBfXPaErQ1ySUvhBCiejU3KObP9tFe+TfOnLNskcF9YgZk1SXKJjCOnsEQZ8vftUJpj/mzPZK+FGgIIYSoXlopFszyUDFs2lkT0jMcMJmTinAxPRJoiLIZHDeMZh3OxTFZ1HHQPBnUJ4QQovodPC8ZwyyqKZmcpXdYTjXE9EigIcqmdygktOVvyYdSKBuyYFYMry2EEEKU2NxZHinfxtJ9yks2yOA+MW0SaIiy2dQfxnJT1NqjvcWjq00CDSGEENWvs9Vjdks8g/uctWzok0BDTI8EGqIsjHV0D4Q4F8/8jHntmsaUXO5CCCGqn6dh6ZyYBvc5Q/+oJZOXOg2xb7LyEmUxmrEMTRqsiSHQUJqlc5Jlf10hhBAiKku6fBzlr3m0xjA0HjI0LnUaYt8k0BBl0TdqyBQUzpV/B8QUcyzulLQpIYQQtWNRp49HHClMDuUl2DxY/g6SovpIoCHKYlN/gNbxXG5Nac382TKoTwghRO3oaPFobVCxtLkFxUap0xDTIIGGKIstgyFxdLXVns/82Qma0jI/QwghRO1IJRRLuhKxDO6z1rB1xFAI4mhXL6qJBBoicrmiY+twTIP6lGZBh4eOZcdHCCGEiM6iDi+W2VTOmqnZWBkpCBd7J4GGiFz/qGEyTyw3Q2sNy+ZI2pQQQojas3RuAmfiqZUwzmfLoKRPib2TQENErnswAF3+rk9KKVK+lfoMIYQQNamz1WN2qx9Lm1vt+WwekIJwsXcSaIjIbeqP50aktE9Hi8esZrnMhRBC1J6WBk1XW1yD+wyb+gOslGmIvZAVmIhUvujYMhRibRyD+jQLOxIkPKnPEEIIUZsOmZdEqfIv56w1DE04mach9koCDRGp4QnD6KTBxRFooFgq9RlCCCFq2KJOHxMWoMxNT5w15IpTdZhC7IkEGiJSW0cNoUvEMqgPW2TBGL5o9gAAIABJREFUbBnUJ4QQonbNa/doSqtYTjWU5/NGTOnRojpIoCEitXFbAMQzTKi1UTF3lpxoCCGEqF2tjZq57X4sdRo4x5YB6Twl9kwCDREZYx09wyaW0wzteSzqTJBOSH2GEEKI2qUULO6Mp/OUNSFbRw0TOZmnIXZPAg0RmYmso28kwMYwqA8UC2fL5S2EEKL2Lenysab8JwvOWSayhr5RSZ8SuycrMRGZ3pGQfKAglqmlAUvnln92hxBCCFFuCzt8fGXKXhAO4CfSsbWxF5VPAg0Rmc39AV4iVfbXVUrT0qCZ0yaF4EIIIWpfe7Nm7iwfreOpS+wekM5TYvck0BCR6R4MY6rP8JnT5tPWKPUZQgghal/CU8xr92KapxGyZSigEMjkPvF2EmiISGQLlq3DBmdi2OVQikVdHiqGI2QhhBAiDgfNSwBxpCpbxrNW5mmI3ZJAQ0Sif9QwnrM4F8ONxzmWdSXK/7pCCCFETBbM9tEEZT/VcM7idJKeIanTEG8ngYaIRM9wiPKSuDIXgiutSeqQebNlfoYQQoj60dXm0d6oUTqepd0bfTJPQ7ydBBoiEpv64tnZUMqjvVkzu1kubSGEEPWjIalY1JWIpSDcWUPvSEgxlDoNsTNZjYmSKwSObaMGZ8ufNqU9nyVdSXxP6jOEEELUlyVd8ZzmW2sYGDOMTEqdhtiZBBqi5EYzhoGxEBtDIbizlsVd0tZWCCFE/VnclcCEhfK/sHMEoWLLoNRpiJ1JoCFKbsugoRhCPN0viizplPoMIYQQ9Wdum6atUcXS5lZ7vgzuE28jgYYouc0DAdor/2JfaU17o2J2i5xoCCGEqD9Nac28WT7aK/9z0FrDlsEQY6VOQ/yaBBqipJybGtRn46jP0D5zZ/k0pqQ+QwghRH1a3JUAyv8cdNbQNxoyni3/oF5RuSTHRJTUeM4yMGZwNp4bzZIan58RGkfPoClJUppWinmzPZJlugtkC46+EUOUcxSNdbQ2enS1lW4PJTCOrcOGmC7pWDmgtUHR0Vqa3VFjHL3DhtAQ6XWwOw0pRTqhaExrEnLoGYvxrGVo3O70s3cOZrVo2ptk37NUls3xsSYXy2vnA8XWEcOsZvklE1Mk0BAl1TsUko2hDg3AmpBlcxvjefEyGZqwfOE/B7fXwOw/B6QTiv/5/dkcuiD64CxfdPz99WM8+HweL6L1RGgcna0+37yivaSBRt+I4fe/M8zIhEHr+jotKwaOS85o4o8/1lqS7zeec3z5uyP0j4Z4Zf4sm9KadELR1KCY3axY1OmzbG6CxZ2ag+cl6GzzIrs2xZRv/XKCO9Zmd+oKaCycfVyab17RHuM7qy1zZ3k0Nygm817Zuz96iRTdAyFHLU6W9XVF5ZJAQ5RU92CI5ycJg3xZX1dpj5Y0zCnhArMSOQfZoqIQHOCZhlJYB6YMqbTFwPHN68e451lLZM88pWlMKv7k4y0cd1BpAyfrIFuAfOjHM+k+RtpvIH+g19pbOOfIFhwF4+OC8n6W2QK/ziZRCrXeAkWwBZrTsLjL4+ilCU46PMUxS5N0tuqyn7rUshc2FvnVEwUKoaKwy0bJfc8WuHRTkWOWyuK0FNqbPDpbNNmiwpQ50HDW8EZffd0nxd5JoCFKanN/QJmHgQOgtUdHi6OtsQ6Oa52jJB+yI/LGYNZO7WLe9VSAsxF1I1GalK/4y082c+ax6WheA7f986qzIkfnUKXO9XbxfJYOs9P1/tZXH8/Ci5vhpS1ww8osnW0exyxNcPZxad73jhQdLbW9gVEOP3soSzH0wb39yDu0SW5YlZNAo0S0giVzEnSPxNH50TAwNpUm19oovzdCAg1RQpN5R/+4i6U+Q2mPpXMUWu5rFeU/bxvn+pWF6I7vlcb3FH/00UYueE9DNK8h6oOzODN17xocdzz0ouWhFzN0NI1z2tFpLnpfI8csScg9Zj88tq7IA88VsWb3zwZri9z/rOaTpwUcu6y26+zKZUmXz6qXsmV/XWsNI5PQP2Yk0BCAdJ0SJTQ0HjI8HsTSccqagMUxTUQVb2cd/OCuDNc8WNh+PUSzs6Zw/O4HG/nkaU2RfH9Rp5zFmSLOBAxNKm573PI73xrmD783wiMvFdjDelnshrWOa+7PEBjNHu8DzpEPPa57qPwL41q1qMPDV/GkMHlegs0DMk9DTJFAQ5TMpv4AdDyLfU8ZFnfKTlil+NmDGb53dxZcVEGGQnlJrji3ic+f3xzB9xdiirMGG+YJAsvqdYY//sE4f/jdYR5fX8DWWyrdfnj4pSKrXyngbLDXP+dMkYeey/PKlr3/OTE97c0+na0eKo4jOKXY3C8/RzFFAg1RMpsHTSzTSJX26Gz1aG2Uys1KcMOqDP/9y+xUEWJECzHlJfjU6Ql+9wIJMkT5OBMQhoY16+FL/zPKX/10lDe2yc7tnmQLjmseyKH09Govii7JjasyEb+r+pDwYHGXj45h88+akJ6hkHxRAnEhgYYokSB09A6FWFP+h67WHgtn+yR9CTTidteTOf7j1kkCY6MLMnSSD77L4ysfaZGfuYiBw5oCobHc84zht781zPUPZQil0c7bPPh8nqdeK+BMcVp/3poiK57Os75XdsNLYcmcBM6VP8/POctY1jI4Ib8UQgINUSLDk5bhCRPTTc2xdI7UZ8RtxdM5vrl8kkIARHQdKC/FmcdovnppK8mEBBkiXs4EjEzCv96S44+/P8zrcrrxplzRce0DGVB7qc3YlbNkgyQ3rIxn2FytWdLpo4lhOiaATkr6lAAk0BAl0jscEro4FvsKXMCiTgk04vToKwX+8cbJqaPyCIOMEw5RfP3yNhpTcusSFcIZnA1Y/Yrh9749zD1P5equC/Lu3PNUnnU9zLittbNFVjyVY32PLFIP1OwWj44WD63jaPuu6B6UEw0hgYYoke4Bg/bKv9jXnsfsFp+uNgk04vL060X+6qdjjGWJrI2t8pIcuwS+8elW2qRloqhAzoYMjcPXr5nkW78cP/ChmlVsLGO55oH97CDlHNkwyS2PyqnGgWpIKubP8lExBBrWGjb1FwnC+v09EFPkiS0OmHWwsa8Y3ayEvVDKY267pjElaTRxeHFTka9dPcFYzotsIJ9SmoPnOr55RRvzZtXBQEZRtZwzBMZy9YOGr/10lJHJ+uyDe/vaHBv71T47Te2JMwF3P5ljU7+koh2oZfO80g/dnAZnDaOTjsHx+vwdEL8mgYY4YKMZy9CEjWV+htKaZV3S1jYOb/SF/NXVE2wbc9Mu9pwp5SVYPMfnHz/XzsIOCTJEFXAWG+a5/wXLn/1wlIE6W2gNjhmWr8ri3P4HCc4ZxvNJbnpETjUO1MKOBNa8fRp71JyzFK1H77CkwNU7CTTEAesfNUzmXSwnGmExJ/UZMdjYH/LnPx6je9DhTDQPEqV95rbC33+2lYPnyc9YVBdnijy7SfP//nCE/rH6yVW/aXWe3hF1wM8DZ4vc+WRBTjUO0PxZHs3peE78ldJs6q+fa1/sngQa4oBt6i/GUp8B0JhSzJsli9By6h81/M2142zoY79TI/ZFKY+WBsfXL2vhqCVyYiWqkw1zPL8ZvnrVaF0EGz1DITevzuJK0ebcWUYm4edyqnFAGlOahR2JWOZpOGfpHQmxVuo06pkEGuKAdQ/Gs+OktMfcWT4tDVKfUS5D45a/uGqMFzZFly6F0qST8LVLWzn5yFQ0ryFEmThT5JmNjq9eNc5YprYXXDc+nGM44zPtdrb74GzInY/n6Bmq/SAtSos7/Vha3FoT0jsUMJatr/RBsTMJNMQByRYcW4fjG9S3qMNHawk0ymE86/i768d4bpPD2aiCDEUy4fHVS1o4553paF5DiDJzJuCZjZa/Xz5GsUa78GzYFnLbmhy2pBsQjtGcz22P7WcHKwHA0rmJyJp17J2jECi2DkugWM8k50QckMFxw3jW4WJoHG9NyLI5shgth1zR8TfXjvLwy1GeZCgSvuYrFzZywXsaonmN/aJAJVCeBldfD0zlJUFV7sJY6cQMd2rV9rkXhlLtuk+XM0Xufz7Bf946wZ9d3FrW1y6Hnz2UZTzvgSvx/cGG3PpoyEff28j82dIQYn/Ma9c0pRSZAmV/VnuJFJsHAo5akizr64rKIYGGOCDdgyF4SbBl7mqhFEnfsUAePJErBo5/unGclS+ayGoyQKGUxxfOS3PpGY0Rvcb+6WpT/MOVzRQDF8uA3ThZR8X+jmkNX76wgUMXJPaYA26sY2zSkQ8c20YNPQMhvcOK7kHFeE6hvRTOhlMdksqwAHMm4IZVhiMWJbjw5EoKpg/My91T7WidKf1n6JxhcCLBrWty/O4FzSX//vWgrcljTrvPpkGHCcvbBcpZy6Z+SZ2qZxJoiAOyeSCMpUe31h6drYpZzZW5CKoV1sJ/3DbBHU9EGWRMdSf53DkpfvuDLZG9xv5qSGpOOlx24yqNAo5bluSdB8+sWUAQOoYnHa/2BKxdX2DNK45NAx7GeWCLke/4Oqf4r9smOXS+XxONDpyDa+7PkA+TQD6i1wj5xZocF723QU419oNWsKjTY/NQ+Rf8zhq2jVqyBSfzruqU1GiI/VYMHd0DQUzzMzzmzdIkE3Ljiop18O+3jnPjw4US513vTGmPS89I88UP1146iYiW3Y+gIOEr5rZrTjs6xR9/rJVr/qyLb/1uGx86XtPSqKfSsSLknGE0q/n/b5kkW6jctLTpevK1Ivc/H0Q7q8E5hiZ9frlWOlDtr4PnJeJJcXaGsYxl24i0Ka5XEmiI/TY4bhjN2HgmgqM4ZJ7sMkfFAT9eMcl1DxW2F/pH84DSXooPvDvFH1zYgid3IxGDpA8nHZ7kG59t58d/OJuL35egMe2h/Og6nu3oRHXDquoucrYWfnpfhsCoyFPPnA355WM5mTS9n+bN8kl6BqXKfKN1Dj+Rls5hdUwe7WK/bR02BNbHufLe+JVSOFtgfodk/kXlqhWTfPeuHC7C4mflJTn1SMX/+VQrKTmZEjHTCpbN9fmLS9r4wZdnc+oR4Hk+RLUwsyFX359lfU/17vSuWVdg9cuFyIZ2vpWzIVtHPW5bU93BWVw6WjxmNSmULn/qmXOO13rLP51cVAYJNMR+2zQQQAz1GUp7tDZq5rRJrm4Ubn4ky3fvymKMiWyXUvsNnHiI4uufbpO8XVFRlIIjFvn822/N5s8/0UR7k0bp0p+eOmcYy2l+vCJT8u9dDqFx/OS+DEScarYTG/CLNXmGJmR3fKY8DYu7ErEM13U2pH/ckauBVEExcxJoiP1iHWwZDKHMpxkwVQi+YLZPQ1IWqKV2x9oc/3LTJEFIZEGG0gmOWmT5xqdbmd0styBRmXwPLj61kW9/sY13LNre6rfEnCly37N51qyrvt3eB58v8MSrQVlOM3ZwzrJ11OOXa6IpOq91S7r8WFKdrTUMjYcMTVTv6Z3Yf/KUF/tlPGsZGDPYOIYAKc0iSZsqufufzfNPP5+gaFxk8yKUl2TZHMXffqaVubPkZygq35GLk/zH78zilCM0yi/93B5LgusfrK5TjVzRcc19GZTyKPs8EjvVgarWp6xHYXFnAiLsHrg3xik2D8hJVD2SQEPsl76RkGwMw38ATJBn2dzqbwtZSdauK/B310+QLarITqmU9lkwy/GPn29l6RwJMkT16GjV/NPn2znvOIXySnvvcbbIo68EPPladJ3dSu3uJ3M8vzmMtOX1njgbsmUI7n5KOlDNVEerZnaLjqVOQyuP7sF4ghwRLwk0xH7ZNBDiJaLryrInSikaU4p57VKfUQq+p3j69SJ/dc0EE7mph3gUlPKY1674+yvaOHS+BImi+jSkFF+7rI1zjvVLm0blHJYEN6+ujoXzeNZy7YNxv1fHDasyjGelA9VMNCQV82f56BgCDWtDugdCwgiGOorKJoGG2C9x1Wco7TOnzaOlUS7dA+VpxYubA/72ugmGJ2x0QYb2aWlUfO2yFo5dJkGGqF6NKcVfXtLKsUtKe7JhbZFHXy7y+tbKz2G/4/Ecb/S7WO7/OzgbsrHPceeTUqsxU0vnJoijiYtzU4MyhyclOKw3sloTM5YrWHqHwngG9SnNok4fLXXgB8Y58kXLv908SfeAia5AUGlSCcffXN7CyUeU/wRMiFKb1az52mWtzG11pUtBcY7xvOJXT8R9UrB3wxOW6x/KRj4zYzocjhsfzjEmpxozsrjTx4QF4gg2AqvpHZL0qXojgYaYsf4xw2jGYI3FOcr85Vg6R3bFS8FYmMyb6GZlKI+kr/mLT7Rw5rGlL6IVIi4Hz/P50keaS7rgdtbw0PNFMvn4F/F7cvPqLD3D0aVYzoizbOyH+56RU42ZmNPm0d7so5Qu+/MbPDZJQXjdkUBDzNiWwRBHChMarHFl+3JW4bmi1GeUUmQ7kwrfU3z5wkY+cnJDRK8hRHw+dGIDHzoxjdIlamzgLBv7TMUWhW8dNty8uhDpEM8Zc46bH8mRycupxnS1NGq6WjTO6bI+v61xmNCwcWsRW7mxtIiABBpixjZsCzDWYp0r65dTmrYmTacM6qtwCq09fuv8Bi47synuNyNEZL5wfhMdLZRserjyEjz0QmXO1Fi+MsPAuKqItKkdnA14eUsopxozoIAlXR5O6bI/w8MwoG80ZFTqNOqKBBpiRoqho2cgxIYWZyjrl3IeizsTJH0p0KhkyvO58tw0Xzi/Oe63IkSkls31+fj70qgSTcd2NuTp1woV101pY1/IL9fmKyNlahcKxfJVeXLFygmAKt3SOQmCfL7sz3AbWsYzjq3DUqdRTyTQEDMyMmnpHwkwYYC1ruxfiztl/kIlU8rjoycn+H8uaEHX0N2l/LVI5ciXFqVw4Xsb6GgOS1IY7qyhezBkw7bKWtBf91CWsZxXWWlT2zlnWNdjuO+ZyjwJqkQLOnxSfvmf39Y6wGPDVgk06oms2sSMdPcH5IoKF0NrQxMWWDpXdskrlfKSnHGU5s8/2UqihrLb+kYN/9/1Y4znXE10OwtCx4mHpfjyRS1xv5WaMH+2z/vfleaGR0rRvc3hVIKnXy/yroNLOKvjALzSHXDnE3mcqaxTlp0oxfJVGc55Z4rGVA38kkasrUkzvyPJhq0GW+5TKgeb+iorkBbRkkBDzMhrW4oo52FNeXe21Pb6jLmzamgFW2ucI5O3GONIeLXzsC8E8EI3jFfoju5MKS/N7LYKXjRWoQ+d2MDPHx6iNJ+q4qXNlbMQu/r+DLkwAVRuHYQzAS9v1qx8Ps8HT5TmE/viacWiDo8NvRZX5gF6xgRs7jNM5hzNDbXznBB7JoGGmDZjHZv7A0Jjyj6rSXse8zu07FZVMGcDnnzN4xeP5rn0zMa4304JOXABzqiaCDRAxTlrrSYdvtDniIU+L21xB17HYEM29VtyRUdDMt773bNvFHnw+QIxjEyaOaVZvirLOe9KSx3fNBw0L8kDTxewZb8XOMYmLT2DAUcsroxTOxGtGsqiFlGbyDp6BgJMGMaS2ynzMyqfw/Hje7Ns7q+cHVkhopb0Fe85Ig2qBHUazrJ12DAyEW806Bxcc3+OoklQDZGpsyHPb5qaRSL2bVGXh68NzlH+Og2VZNM2qdOoFxJoiGnr7i8ykTE468r+ZcOQg+bL7kfFc5bhSc2P781IwbGoKyccmsDZ0iye8oGjbzTeY4RHX8nz8It5rKmihbvyWL4yQ64gN5996Wrz6WjRgFf+57mxvN4jxfv1QgINMW2btgVorwFrKeuXcx5N6amiS1H5rC3yqycKrHpRHiSifhw016ejRaFKcapBgm0j8Z0iGOu4+v4sgVVAlIv20qY4ORPw9IaA1S/LvWdfkgnF0nnJqcF9ZX6mm9CwaVsgAWGdkEBDTNur3UWMKX/alGNqSN9sGdRXHZzDWMX37pyQib2ibnS0ajpadUmG9ykvwfBkfCcaDz1fYO26Ygm6aO2F8jhkgV/iegqH0h43PZKjkptkVYqD5yfK/jy31hGakIHRkL4RSZ+qBxJoiGmZyFp6BgwmtDhLWb9Ac+jCdE20Fq0Xzoas6/W4fmUu7rciRFkkfcXCDg9ViinhzsU2PTlfdFxzfxblRVgTpzQLZmvOfWeKYonLuZwJWLuuwOqXKrdLVqVYOi+BssWyP9OdcYTG541eCTTqgQQaYlq2DQf0jxRjKQQ3YcjB86UQvNo4G3DtAxnWbZGHiagPc9u8kpxogGMyF09ayV1P5nhuU4iLsDZDaZ9LTk+TSmh0IoJ2tF6S61bmKX9HpeqyoDNBe5PGxlAQbi2s3ywpbvVAAg0xLZu2hhjrv3mDKOeXrwyL50p9RrVxzjCe9/nhPVmspOKKOpBKlO7YNVMo/yo5k7fcsCoXaVmG0gmWdcGFJzeysS+IpKOVM0UeX19gzStVVMgeg3RSsXhuApxX9ue6MYZN20IKgUSDtU4CDTEt6zblt98gylyf4RQdrZrOdgk0qpEzBe5/tsCKpySFStS+9mYNqjTBhirR95mJ2x7Ls35r9PNiPnN2I21Nmk39BhdJ61yHUz7XrcxiyjyQrtocvDAZw2nGVKbClr4CQzF3VxPRk0BD7FMhcGzcWsSasOxt8ECzdG6ypDuFosyU5of3ZGPLOReiXPLF0i1qXZn7Qw9PGG5clYUIgwylfY5ZqvnQiWmyBcfAmIlsRoczAU++WuCpDXKqsTeHLkzG8mx31lEINBu3SmptrZNAQ+zT8JihdyDAmqnhPuX8stZx6BKZn1HNnA14o19x9f2ZuN+KEJGazFlKNUDGK3P3i188mmfzkOKAJ5vvkcJTls+d20gqoRgcs1N1KJENA3QUjeZnD2Qj+v61YUGXz+zW7fM0yvx8VzrBq91Sp1HrJNAQ+7Shp0Bg4mktq1zIIQsl0Cg/VaKi1inWFrlpdY4XN8nuoqhdY1lLaQocFG2N5Qs0to0YbnokG2GQAdpPcfrRKU4/JgXA4LhhImcjPblxNuSRl/I8+Zrcd/ZkVovP/M4ESpf/Ge+s4bUtRWlFXOMk0BD79HpPER1lq8M9UNqja1aCuTKor+w8z6OloXT55jjHZF7x7TsyhJIzLWqQddA/aktTc6AUzY3lW/j9/OEs/RN+hKcLkFBFrnx/45snNdtGLNpLEWnlOeBUip89lMVIR4o9OmJJOpaaIGcNvYMhg6PRBbgifhJoiL2yDl7bUoh2cNMeKOUxv9OnrVkG9ZWT8lJ89L1JvvHpFhJe6R4+zoasXVfkV09If3tRe3IFx9bhsDSLdedoL9OJxsa+gFvX5HAmulx55SW54D0NHLvs16fT3YNhxCHGFGuKrH4xzzOvSy3Anhy6OIm1IaWe1L4vzlkmMpaefvnZ1DIJNMReDY+FbBsykXch2R2lNEcuS5f9deuZ0j4XneTxpxe3cuaxaT5wQhqlS3iapTQ/uCtDn3QaETWmZ8gwOF6aEw1rClNTxstg+aocI1k/unu88pjdZPnsOY07/ePugXLdAxyB8/n5aul8tydL5iZobqA0wyZnxKG9BK9tkdS2WiaBhtirLf0BoxM2lhMNYwocskjqM8pDobTPxack+fNPtpL0p3a2fvO8JjpabMnqNZwN6R1V/OieaioMV4CP0ona+VKSjlhqL28OyJtESU40kr5j/uzoT3Jf6Q644/ECzka30NPa5+OnpFk659fXnLGwdTi6jlO7cibgwefyPPeGLGh3p6PNZ+4sD6XLvyR0zrFus5xy1zJ52oi9en1LgNJ+pFNi96SlYfswIRExhfaSXHiSx598/NdBBsDSOT6XntHIt39VxJnSdAdxpshtj4Wcf3yaEw6r/ECyKaU461iPybxDq+pP4wtNwNFLK/9zrzZr15eqe46iKaWY0x79tXb9Q1lygQ8uohx5pVnU4fjEaU07/ePxrGVw3JSsQ9d0hDbJ8pVZjjtIrv1daQ2HLU7xRl8IEabQ7Y6zIT39mrFJI2nSNUoCDbFXr3bHs9OglGZ+Z4JZLXLjiZZCKc3H3uvzpxe37BRk7HDxqY3c83SBV3sTOFuah1Bgff73zgz/sThBU7qyZ6R0tGq+dll73G9DVLDhCcvTGwKcPfAdeqU9lszRtDZEu7v87BtF7n46T9SH1ZeflaZzlzSwiaxjaNyUdVaItUUefF7x3BsBxx0kG1i7OnRxirseK396mXOW4XHH1qFQAo0aJalTYo8mc5buviDSlod7orTHwQuTlLmVfN1R2ufK9zfsMcgAaG3UfO7cRkrZHcaZIk9vCLl1jfS4F9Vvzboi/WOqNKlASnPQXB8/wjWXA65fmSOwpUn12h2lExy91OfDJzW+7d9tGw0plPux4iwF47F8ldxzdufghUkSXjy1c9pL8tpmmadRqyTQEHvUNxwyOGZK065xhpwNOWxxquyvW1eU5rNnJ/nSh/ccZOzw/uPTnPoOH+WVLu3AOctV92bZ3C+tDUX1ss5xx9p86ebOOMs7D442veexV4o88Gw+wpRYhcLwufc305B8+72le8BgXQztVE3AyhcKrNsiXY521dXuM78jgdJxJLooXuuRn0mtkkBD7NFr3QVQ8Rwxp5KKg2VQX3SUIp1wfPCEhmmNyvC04vPnNdGQKF1hOM4ykvX40YpqKgwXYmdPvBrw+Kv50hRUK0VDwnLU4ugWe9Y6rr5/ktAqopphob0U7zsyxVnH7H6zaOuQiWlB68iHCX7+iHSg2lUqOVUTWf7OU1Mbixu25CkUZdZJLZJAQ+zRhp4glpuO0j7zOnw6y1AMKabvXQcnuei9aXQJTzWsKfKrx/OselGOzUX1MRaufSCDJVGSwmalfQ6e57EswiYYD79UZM26IMJOggpfF/n8eY3sqYlR91CJ5o3sB2uK3P1kjtd65SR1V0cuiyeLwDnL0Lild1BONWqRBBpit4LQ8Vp3Ibb5GUvmJkgn5fKsNJ89p5G5rWEJTzUcFo/v3ZlhIhfPwkOI/bXi6RyrXw5KloKklMdqMJMrAAAgAElEQVT73pGKrD4jW7D85L5spKcJykvwgXenOf6Q3W9IhAZ6BuNJyQXAWXJBkuWr5FRjVwctSKIJmNYxdwk5ZzEuwcZeaT9ci2QlJ3ZrcDRkcCyMaSK44oilMqivEs1t9/j02Y0lPelyNuDlLYbrV8qDX1SPoXHDD+7KYEvYOcmnyOlHR3fve/C5As9uKEZXm6E0LSnDZ85+ewH4DtmCZXDcxnaiAWBtgXufzvFqr+ygv9XCrgQdbT4qpjbe67sl0KhFEmiI3dq8LSAfeOXfdVIKbIGDFkj7wUp10Xsbeecyr7SF4dZw3YNZSWcQVcFa+Pbtk2wa8kq2YFbK45hlCd6xOJp7Xybv+On92Uh3q7VOcPEpDRy6l/v3wJglk485F985JvKaWx+VQXFv1ZjWLJ2XQOvyBxrOWTb0FCmGUqdRayTQELu1bnMhnvoM5TGr1WdBpwQalaoxpfjN85tQrpS7gY7xvMd375zAWHnQiMp20+osv1ybx4YlXKgqxYdObNhjXcOBuvvJPK9tddGdUivNvHbLJWfs+TQDoG/UkK2Aol9nQ+58Iscm6Xr3JqXgsCWpsqdOAVgbsm0oYGhUfh61RgIN8TbOOV7fUowlh1ZpjyXzkjRFPKxKHJhTj0px/rsbSprr7UyBB58vsuJpKQwXleuRlwr89y+zlDIeVspj4Ww4+7hoinGHxg3XPJAlqi5TMFVbd/lZjfucaN43YtBeJbQud4wXEvz8YZmr8VaHLkriTAz3YOfIFWDTNgk0ao2s5sTbDI8btg1F2ZVkz5TSHLpITjOqwZXnNtLWROkKwwHnFD+4a5KRSSkMF5Xn8fUF/u66cTKF0tYYKC/Bh05sYFZzNI/kX67NsXnQRTZ8VekERyz0+PBJ+64v2TIUz1C43bGmyJ1P5OVU4y0WzUnQ3KCA8p9qKO2zfpOks9UaCTTE2/QMBIxO2FhONGxY4JCFlbDbJfbl8IUJPnlqGqVLFxg6Z9g0pLn6fpmtISrL4+sL/OVPxhmcoKSbMEp5tKYDfuM90RSB940abliVj7SDoHOGK85toGUaJ9Ebt4W4EhbQHxBnGc15/PxhaUSxQ1uzZtmCFNor/5wT5wyv9xSxss9UUyTQEG/z2pYixNJ1QtGQgsXz5ESjWnzqjCaWdk3tyJaKNQE/fzjL8xulA4moDPc9m+cvfzLG6GTpTwWUl+SCExtY3BXNwu4Xq7MMjKvIujwp7XPS4QnOfee+A6XAQP9YvB2nduVswIqnc2wdrpyTljgppVg2L0EcJxrOGrr7ioxnK+f6EAdOAg3xNht64mn5p7XHorlJZrfEMTFW7I9ZzZrPv7+hJMPK3uQs2cDjf+/MEMqzX8SoEDj+544Jvn7NBKOTlP5UQGlmNwV86oyG0n7f7bYMhtz4SC7C0wxF0rP85nnN+N6+F6ajk4ahifiG9e2WcwxN+tyyWmo1djjq4HQsM7QAJrKON3qlTq+WSKAhdpLNWzb0FLD7SA1QSrEji1OpPex9uJ3//T4fQ0pz0PwEngwEryofPKGBkw7zS5tCZQIeW2e47TF5+It4vNwd8JXvDvOj+wLyRRvJwkspn0tOb2BRZzSbK9evzDGWS0RWb6e8JO8/Ps17Dp9eq+uxjJ06FaqkQIOpDlS3Ppanp4LqR+K0sCtBcwMz7jw5nXXBm+uBN/9b7fTnvESaN2La7BTRkK1jsZPegYDRCcNbu5PsdLNQisACWpMLwKDQvsY6yBUd5i3Pj5QPSV+BdVhjSfuQ0A5lLf6O+5d76ys5Dl8q9RnVxvfgN89v4pk3RikEuoS7lY6r7s1y6lEp5u6jk40QpTIwZrnx4QzLV+bIFDTORpPCp7wkRy7UXHzK3tvB7q/XekPufCKPNREFGcqjKRlwxTmt0/7/9I1aCiFE2f1qfzhnGJpM8otHs/z+h1vifjux65rlM3eWTyZvcWb39/O3rgscEDr15rogcOAnNNapt68LEoqE59AOTGBpSICvHdo6PO3AGV7ZmAemf12JyiaBhtjJxq0BliRQQAEWsGgKTpPZHljkQ4Vl6ubiHFDY/VlFoQgU39zfQAUKhSOhp47bU9qRUpa051BAyjcsnVe6IXCifE48LMmH35PiljUGW6LWiM6GbB1Nc9W9Gf78E/LQEdHqHTb86vEcNz2SZXDCx1mHK+msmJ15KuT3fqOd9og6TV19f4axrCptWuNbKC/Bx07xOXTB9JcR3QMhSnk4V3ldnpwNuW2t5eJTG5k3q743NjwNhy9N8ca2IrDz74Bie2CBoug0eaMpWEU+nLrU3I5LrriHdUHhrfkNCh1OfUPfg5S2JJTl1W2KnsGAhTJPqyZIoCF28mr39gDDQc55ZI0mbxSBVTjnUG/eZqZM3S729iB7y79zDgcUjaNgNJMKNJqEB0kMh7V7tDXX9w2+ml1xbjMPvTjC4FjpTjVsWOC2NYqzj0tx0uFy2iVKK5O3vLgpZMUzOR56Ls9w1sNZCy7aHHHlpbj4VJ9T3hHNNf1yd8C9z+Sn/i5RUJqO5pBLTp/ZBkD3oClpO+yScpbhiQR3PpHn8+c1xf1uYnfIoiRuzVSr2R1hgUGRtx4Zo8iF27Mb2CXrwe1rXbDzP98RBwcGAuPhcIxuc3zx2yOcfGSKc45L8+5Dk6QS5S9OF6UhgYZ4UzFwvLIlYFvWkLOJ7cHFr28a+w4qpk9tz5myQCGEPD7P9jp+/zvDXPi+Bs4/Prqe8iIaizo9Lj+jgW/dnithDrajEGi+c/skx34pSUNSHjbi16Y7wNi5qcLuiaylf8zwcnfIi5sDnnm9QO8wWJXAGiDCE4wdtJfiuKXwxQuaI/n+Drjq3gxFkwCiCZiU9rnsjDQLZs9sY6h32ER2wlIKzhluXp3lwpPTdLTW96bXQfOTJL2AvIGiU0waj4zRFLf/CKOZtDG1znAOekfgF49ZfvHoGIfNV1z4vkbOe5f8XKqRBBoCgFd7A66+P8vaTY5C6E0FApSvwZ1iKo/zlR7Lupsy/OyBLB87pYGPn9JIa6MEHNXiY6c0cO8zRV7uUThTmtx25wwvbNb84tEcl50ZTT773gxPGH54T4bJvEPXWZyjNXzu3KbIWq8eCGvhxysm6Wjx9rr9MTZpyBVhPGcZGjeMTDqM1aD19vxzB5SnCFgpj45my19e0j6tmRP744n1BR5+sYA1EaVM6QSHzlNc9N6ZdcoqhrBtOKy4QvC3mkrXTHL72jxXvr++TzXmzPJpaUnQs80yGWhC99aEp+g5a95sYrC+V/OvN2W49oEMnzytiQ+f1MDsFlkXVIvKe3qIsto2YvjJvRnueDxPNvBxRr0ZZMTCGZyDniGPb99R4JeP5bji3GY+dGJ6qrBcVLTWRs0Xzm/gT384Wtpv7CxXrZjkfUcmWDa3vHm7EznHXU+FjOe82Fo+xsX34MKTHYu74n4nb+eAR16201j1bL+fOTe1me62BxYRFUnvkdKkk/AXn2yeUV3DTFgHP7k/SyH02DW3vnQcnz2nYca1JZm8pX+0smZo7JY13PJojg+f3EBHnS5mt40YfnJfhme2KvKBjuj0Yvp2BKe9wx7fuj3PTY9k+MIHmvngCY0kZRVb8eRHVKeMddz1RJ7v/GqS/vEEzjhcxHnJM+GcwRnDpoEEf7c8w91P5vj9jzRz9BIpFq90Zx2X5uzj0jzwfFCy4WY7usJ8/64sf39lW0m+53QpBbgAZ8K6CzSmlujRpPiUgrPV0wbT14o/+VgzZx0XzQRwgFUvFFjzSjGy2gylfd59iMf5757536FvxJArVm7a1A7OGbYMaW5bk+fz55X/BDVOQei4+6k837l9kv5JH2fiDTDexhmsMfQMJ/jb6zLcsTbHH360lXcslqLxSlaf4Xqd6x81fO2no/zd8gx9Iw4bljKnvrScDXAmYO1rli99Z5QbVmYohpX/sKp3nz+vkZYGSlr46WyRe57O8eBz+ZJ9TyEipxTJZII/+EgjH4uolS1M1aBc80AWVFT7hwrfgyvPaSQxjeF8u+obNRTCilq27pFzIbevzdbVhOq+UcNfXzvGN66boH/M4cJ8xdbTODu1ifXkBvj9/xll+coMYUSpguLASaBRZx5fX+SL3x5mxXMQBNWzQ+tMwEQe/vnmHH99zShDE/XzAKhGRy1J8olT0ugSDvEDcPh8/+4sY3W0ABBVTCl8rfjyRxr4zDnRngzd+0yep14vlqw2alfKS3L2sT6nHLV/JzK9wwbtN0xtPhzIVzk4x6ZBxZ1P1MemxhOvFfndbw2z4lmwJprhlFFwpsh4xvFvt+T42k9HGZZ1QUWS1Kk6YR3csTbHv948wWQBsNV3A50qDDOseFbTPTjC336mlYPnyZFppbrkjEbueXqELUOla3frbMC6ngTXPZjhdy+QwVqigikPTyv+4MIGLjsz2sLifOC49oEsSunITqfTfsiV75817U5fu8oXHXOaciQPpE2pUvQMWvYwQ660nOXnj2T50IkNtDZWx0nM/rh1TZb/uDXDRA6czcX9dmbMOYMxhhXPKXqGR/jry9s4ZL4sbSuJ/DTqgAN+dM8k37sri7VAlexW7IkzBV7pSfJH3x/jry9v5d2HSN1GJepq8/jc+xv55vLxkn5f50JuWAVnvzPNEQsl0BSVR2mfxhT8yUebuOh90ef53742z/qtlKwmaldKJ7jw5BRHLtr/37fLz2riU6fvf8CV8OHB5/N89SclbjSxB86GvNHn86vHc1waQ7e7qBnj+PG9Gb5/d57QVEGR/j44U+Sl7iRf/t9RvnlFK8fLuqBiSOpUjQsM/NdtE/zPr7KYKjoS3RdnimwZNPz5j8Z4fH3lFLGLnV3wngZOODSF8kp403eO8bzmu3dOEki9jqgwykvS0Qx/f0VrWYKMiZzlhpWZ6CaAK4+uFrj8rJm1s91VKqFoTO//F8ANq3I4V745Cs5Zblqdq8laje/dNbX5GJqw6oOMHZwt0jfm+OpPxlj9sqwLKoUEGjXuO7ePc/UDhe03khpblDnLSEbx1Z9O8Ng6ualUolRC8dsfaMJX4fSnq02DM0VWvlDk7qeqLwVQ1C7lpzhqEXzri+2cfnR5JtnfuibHhv4IO3Bpj0vOSLOoM94EiHueLvD0BlPezTJneaPP8cBztfN8MRa+c8c4P1yRxxhbsQXf+8vZkIFx+Po14zz1Wu383KqZBBo17McrJrn6gcL24/Taupns4GzAyKTjb66d4KXN0RRBigPznsOTXHBiGq1LeZTtAM0P7s4wMFYbp3SiiimN72k++h7Nf39xFoeXKaVvYNxw48O5qemFEVA6wUFzHB+PsFvWdIxOWq66N0MszVYVLF+VZTJfG8/Qn943yY9WFLYHbLXxd9qVsyGjGc1XfzrB8xurpwV2rZJAo0bd/VSO/70zO1UYWGM7FrtyNmRgQvG3102wdVgWnZXoinObaG+yJW53G9Iz4nHtg9VXwChqhUL7aebNUnzj0y189dI2WhvL91i96eEcPUMu0l3+z5zVSFtTvEuFWx7N8kafi2VuijMB63sM9z5T/feZu57M8907c1ONVWp+XVBkcBz+7rpxWRfETAKNGvTi5oB/uWlyqjNHjeRe7oszRV7bpviHG8cpBLV9A61Gy+b6fOr0NEqVNr/amiI3Ppzh2Q1ymiXKS2mfhK/40PHww6908METG9ElTA/cl94hwy8ezW/vxld6Sic4bpnigyceWG3GgeodNixflY+5vlCxfGWObKF6ny0vbQ74t1syhBZq9SRjV84GvDHg8Y83Tsi6IEYSaNSY8azln38+wWiGyB5AlcqZAqtf2XHELirNJ05t5LD5GlXK2RrOUgh9vn+3DHIU5aG8JNqbWoT/+2+38zefnsW8WeUrUN5h+coMQxmPaBaNCk9bPvf+ZlIH0o62BK5/KMPQpBfrppmzIa/2Ou57pjprwsayjn+9eYKRjIusM1mlsmGOR14xXHXvZNxvpW5JoFFjvn9Xhpe2qLq7mezgbMhP7svy+HrZ4a407c2aL3ygseQ7k84UWfNKwG2PVX9qg6hcSifwPI93LHR88zPNfOf3OnjfO1LoGJ6ir28NueOJIjbC4XynvSPBaWUqaN+Tl7sDbl2Ti2wI4YwoxU2rc2QL1Zcl8P07J3huo8WZ+qxXcDbkmgfyrHlFisPjIIFGDVn9coGbHsliTR3/MjlLMdT89+2TTOSq74FQ6845LsWp70iW9lQDcFh+vCIjubiipJT20X6aVEJzypGaf/p8G9/7cgcfOCFNOhnfTv/PHsowmiGiXX5FOmG48v1N6Jjn1P3kvgyZoh/ZEMKZcCbg+Y0BK1+orufroy8X+Pkj2VjqWyqGs+QKjv+6baImWxVXOgk0akS24PjfX01SNLrmi7z2xdmAFzdbfvZgNu63InahteK3PtBEY8qVtDAc5+gf9/nxCjkeFwdGKQ/lpfA8n4WzHZ850+dHfzib//id2Zx9XIqGGAMMmMq1v/vJfGQLR+UluODEFMcdFO/As7XrCzzwbKEyTjMAcCjlcf3KXNWkaWbyju/elSV0MtjUOcOrWzXLV8q6oNwk0KgRN6/O8lJ3dJNhq42zITeszLKxTz6PSnPcQUk+clIKXcohfoA1BW5fm2eNzFQR06KmggqdQPtptJdCK8WiTvjwiZp//nwLP/mTTr5yUQtHLk7EkiK1Oz97KEshjGbhqJRHe0PI5TFPwg4NXLViEkO8szt25Wx1nWrc8miGFzYFFRSsxcvZgOUrM7y+VdYF5VRZv8Viv/SNWq5/SKL0nTnGCwmufSDL/7m0Ne43U0IK5aVQ9gB31JQCHd+u3GfPaWTVi+P0jqZLegIX4POt2zIc86UEzQ2lWRk6B6gEytMQa+eb8itxkzDevH49BWpPn2VU16X69X8qBbZIc9oxu9lx2ELF0UtTHLusmUPn+yW7dkpt9csF7numiDURXYfa5xOnJ1g2N96lwb1P53hsvanIrolK+1xzf5bTj07FXii/N/2jhutX5nF1nuHwVs5ZRnNJrn0wy9cvq6V1QWWTQKMG3LI6S9+4j7PV2REjKtYUuecZzSdOCzliUW1c6g1JuOAETXCAR/fOQdLXsfXHnzfL5w8+0sCqFwrokiaCW0Kj2NRvOHppaf5uDUnFiYcqJnK2rO1LK4GnFS0lXHSnEorz3qkZy1r0LqlzSkFgpoazRaGlQdHWpOls9Zg/22PerCbmzfLobNUVvWB8q/U9AUnfEdhk6RfhSrOk03HJaU2l/b4zNDpp+dG9ebSXqsi6AoVmaCKkd9hwUMwB2d7cvDpH35gHrvI+wzg5E7DiacMlpzVw5GJJKSsH5STcrWojk5Yr/22I3uFohzZVK+Ul+fh7E3z1U7J7IYSobvmi4wd3T9IzaEqeymUtnPOuFOcdH+/cjBc2BVz3YOW2KA+N4/hDklx6ZrwB2d4MjVs+9+9DbB2RdOrd0X6aj52s+eqn2uJ+K3VBAo0qd+PDWf7ppjyunjtN7ZWivVnz0z/pYGFH+XvdCyFEqex4WtfywZpzDlXhf0HnKvtnsHxlln+5pULaAlcgpTzam+GqP+pgUaesC6JWmYmoYlqsddzzZJ56mfK5fxxjeZ8Hn5O0MiFEdVOqshe4pVDpQQZU9s8gNHD3k7mKrG+pFM4ZRrMe9z8rs5fKQQKNKvbyFsPzm4KKzGOtKM5x7zN5ioEEZEIIIWrXy93FqU5TkjK1d85OrQuqpFVxNZNAo4qtfD6PIVH3czP2xdmAdVtCXu2VG68QQoja9fCLBZyOd6J7NXA2ZP2WUFrdloEEGlWqGDoefSWPs3I8uk/OUbQ+a9ZJvqoQQojaVAgcj75SrIhJ6tXAqBSrX5b61qhJoFGlugcMG7YaOR6dLudYu67AgY6fEEIIISrRxr6QN/pkXTBdzjmefFVSz6MmgUaVemFTkVwAUgg+Pc6GvNobMDguLYCFEELUnpc2B+QCTwrBp8uGvNpbZGBM1gVRkkCjSj23MUBpacs2fY6xjGOD5GMKIYSoQc9tDIAKbolVYZyzDE/KuiBqEmhUIWNhQ28AVqLwmdB+itekIFwIIUSNMRbe2BbKacaMOLSXYkOfrKWi5Mf9BsTMTeYsPcNGCr72wxtyQxFCCFFjRictW4cNMoN5ZpxzrO+ROo0oyYlGFRoYs2QLcjOZKecs3QMBRuIzIYQQNWQ0YxjNWDnRmDFHz6BkOkRJAo0qNDhuyEmgMXPOMTBuCWRAjxBCiBrSN2oJrdRnzJizjGVl8zZKEmhUodFJi/bTcb+NKmTJFSwTObmhCCGEqB3DExalpEHMjLmpNYEEGtGRQKMKjecc0lliPzhHIYDJvBwtCyGEqB2TOYdSsqSbKYcjX3QUAgk0oiLF4FUok3fI/Iz9Y61DhqkLIYSoJdmCBSUbkDPmHNm8BBpRkvC3CikJMvaLAwIDebmhCCGEqCHZogM50dgvDiXduiIkV6WoK0pJ0pkQQogaI+tkUaEk0KhGcjy6XxTga0gl5PMTQghRO5rSSlrb7ietQMm6KjISaFShlkaN7MvvH60VWj46IYQQNaQhqUDSf2ZOKRrTinRSFgZRkUCjCjUlQc5J94NSpBLQ3CA3FCGEELWjpVHjnIn7bVQdhSKVUCR9WRdERbpOVaFZLR7O5ON+G1VI05hytDZKr3EhhBC1o6NF46wEGjOmNK0N0JiM+43ULjnRqEJdrZq01BnMnFLMbfdISJwhhBCihsyd5eF7kukwY0ozu9WjMS3L4ajIJ1uFOts8miT9Z8aU8ljU5aHlqhdCCFFD2ho1HS1aWtzOmGJRhyT3REmuyCrU0qBYNsdHKdmanxnHwXPlhiKEEKK2tDcr5nf4KC3rgplQSnHoAvnMoiSBRhVSCg6a64PcUGbEmQKHLkzE/TaEEEKIktJKccg8H1nWzYTCmQKHzJN1QZTkiqxSxy5Lgg3jfhvVQylmt+y4EQshhBC15V0HJ5GOlNOntKajRXGQrAsiJYFGlTp6aYLGFMg8jelR2ueIhQlmt8glL4QQovYcvtCnKWmkTmOalPI5bGFS1gURk0+3Si3u8jlsgYfSEolPj+KkI9JxvwkhhBAiEkvn+Bwy35d1wXQpxclHSF/bqEmgUaU8Dae8o0EKv6ZDaRp8w8lHSB6mEEKI2pTwFe87MiGNYqbJo8BJh0ugETUJNKrYGcekSOqiHJPug9I+Ry3xpT5DCCFETTv96DQJZKDvviid4OglCQ5dIBuQUZMVahU7dIHHuw5OoLT8ouzLee9O43lSzyKEEKJ2Hb7Q57iDk7IumIbz353Gk1Vw5OQjrmJKKS54TyPSZWIvlKKrxXLGMam434kQQggRKa0VHzwhjawL9kxpj84Wy5nHSt1mOUigUeXOOCbJkg4rOZl7oHSC845PM6dNPh8hhBC176zj0iztUlIUvgdKJzj/3WnmzZJ1QTlIoFHlWho0F5/aKEXhu6M0rQ2Wi06WXQshhBD1ob1J84nTGkE2IHdD0ZQMufDkhrjfSN2QQKMGfPDENEs6neRk7kLrJL9xYppDpNhLCCFEHbngPWmWdiHNYnahvAQfOjElReBlJFdgDeho8bj8rEZQUuz8JqXoaDFceobsWgghhKgvbY2ay85IoyTQeJPSHh3NlsvPbIz7rdQVuQJrxEdOauBdy5Scamyn0Hzm7EYWdkqOqhBCiPrz4ZMaOPGwBMqTWREAKI8rzmlkcZesC8pJAo0akUwovvgbTTQkTN0flSqd4MTDEnzyNDnNEEIIUZ/SScUXL2ikwQ/ifiuxU8rj+IMUHz9VTjPKrb5XpDXmhENTfOacZrRXv6caSnk0pR1f+kgzqYSkkgkhhKhfSzo0i9vrvNmt0rQ0wB98pJmGpKwLyk0CjRpzxbmNnHAw9dvWTil++wMNHLO0foMtIYQQohA4vv+LEYKMoTnhcNTjIluhlOK3PtDEcQdJClkcJNCoMQ1JxZ99opV57fXXQ1vpBOe9y+fyM5vjfitCCCFErJavGOWJdUWUC+lMhqS8+jvX0H6a845PcemZTXG/lbolgUYNOmSez19e0kJD0tVPH23tc1CX488ubkXLVS2EEKKOrXhsgtsfnsRZgwN85ehKhXX1fFQ6yVGLLH/68Wa8Ovp7Vxr56GvUqUel+MOLmvE8VfPF4Q5IEpAoFtjUW4z77QghhBCxef71PNfePb79f02dYjgHaWXpShl0HbTCV16KhR2Or1/WQkdLnWy4VqjaXoHWuYtPbeQrH2nE17UbbDgg6cGcVIgJ4Xu/GKG7T4INIYQQ9WfbUMB3bx4mWwDn7E7/zgHNnqErHaJqONhQOsG8dss/XNnGIfOlXjNutbn6FG+67KwmvnJRE56nay7YcEBSw5xUQFI7rDUMTyi+e8sIkzm7z/+/EEIIUSsmc5bv3jLCwJjC2XC3f8a5HcGGqckZv9pLMX+24h+ubOWoJRJkVILaWnmKt9EKLj+riT++qIGGpK6ZAnEHNPqOeemA9P9t776j5azuNN9/937fqjp1ch0lRJJAYILI0YDJGQSSwAmwTTLJnrvmdq/V0z2e6XvXnRmv6ekJPdN959oE22C7wQEjISySyclkk4PJkkAonTr51Kl6373vH0e4wQQFzjnvrqrnsxbWWoCPfmjV+9Z+9t6/vc2/NLi5tMpr7zp+vKyXNG2+xjcREWk+znl+urzMS2+nuPSzV/W9h44oYUahscKGifLMnen4bxd1sfdcnTAVCgWNJvH1o9v5/rc66Gn3GFPfYcMDnXnPrHyNvPEfOx/cJVUeeq7Cjff0Z1GeiIjIlFr6wCAPPFPFpZt3Od8HYWN2MSUf1f89GybKcciuhv91WYndtq/vMU6jMd77ev98yRZ4ZWWN7/+yn1fei3Dp2Pjbpo4YA6W8pzuXYPzHQ8aHxZHlu1/p4Uv76lg7ERFpTI8+P8w//rpMkviP9WVsigESLOvGIkZSW4djgu1md3wAACAASURBVJg4hoWH5vnXCztpLTTQEk2DUNBoQoOjjh8sH2Tp7ytUU4N3adYlbZIHctYzvZDSFjnwm56BMTaio9XyV9+Yxu5zClNRpoiIyJR5690qf/ezDZQH3af2ZWyKAZwx9NUi+sYMDoupgzUOE+WZ0eH4Pxd1cNIBLU15HWE9UNBoUt7Dwy9X+KdlQ7y5NsKnNbwPL3B4xl+CXXlHd84R47bo9WdsxPYzIr534Uymd+mIOxERaQx9Qyn/+dr1vLW6NmEThmPesqEaM5qYYMOGifJYHMfuE/PdBR3sOENbpUKmoNHkBkYcN9w/wo0PjVAezeGTMULardmWg644oWg98NlbpT6NjQvsOy/iL8+ZTouWVUVEpM6N1Tz/9KsNPPFKiksqE/ZzDeAwDKaWgVrMWOqDWSkwNgZj2GM7w8Unt3Hk/AKRDaU6+TQKGgLAyvUp1987zO1PjTJUzY/fJuoSpjp0fLCCUYyhM05pix0G/7m3jVobc/IXW7nojNJElCkiIpKZn91W5pYHhydtJ8IHvRuDiWGwFlFNx//mlA/rjcXaHODYaabnq0e2cerBRdo0aVg3FDTkT7z3vLsh5dYnKtz+1Cgr13u8icElk7qt6oMPYGTGj6xtj1OK1mGZ2JhjbMSFp3dx6uEdE/hTRUREps5djw9y1c39eOeYzMnAD4byiTeMOMtQYhlNzJ8mBCeTsTHGxuRslX3mxiw+rJUj92pRs3cdUtCQTzRccTz1epU7n67wzJtV3i87sDF4NyF7QT0GYzwWKETQFjuK1pE3buM/n3jGRrTkDP/66z0cuHtxEn4HERGRyfPsa6P8ww1lRsYm5rt4c5iN/+M8VH3EcGoYSS21BBxgMHz+b22z8Z4vT86mzJsdc8SeBY7aq8AeO+SxuoyhbiloyGfyHspDjpdW1Hjq9TFeWlHjnbUp/cOOms9hNt42/i8fow9+NXiffuQUjGjjREQ+gpxxFCNPwTpyFszG//9kfxiNjZjWafneBTPYYZZuDRURkfqwZkPC969dz/u96VafMPV5fbCe4Iyh6iyjqaHmDZU0wnmHM7mNd3X5TxgXjP+E8eBixn+aq1KIHdM6LbvvkGfvOTkO2CXPztvEtOS1etEIFDRki3g/fjzuinUpq3vH/1o/kLJhMKVag/5hR5JCW9EwPOJYtWZs/KXiPK15wDkiwOIxZvznTfUHMIoLzNvW8Dfnz6CjVdMkIiIStpGK4+9/vp5X3vGkE9j8vbU+HAGMjZm3Q8xXTyqxYcBtHBc41g8kVJPxyco0hdYCtLdainnD9M6YWd2GWaWI7abFzO6JKCpYNCQFDZk06/pS/vO163h3fYpPEzCGUD5uUVzgiL1jvnP2NKJILzcREQmT83D1kg3c8/TYZt/8PVWMjSl1Wv79BdO1S0A+kaZzZdLM6I64dFE3HUUDNgomZACkyRgPPlvhN/cOZF2KiIjIp1r2wAD3Pl3Bpdlsl/o0xlgKOc+lC7sUMuRTKWjIpNp9bgvfOq0T+8F+zIB4l7L0/kEefnY461JEREQ+5omXRvj13QOkaUpId1zBeM/jOSd1ceDurVmXIgFT0JBJd9T+7Sw+ug1jw7uZO3Hwk9/28eo72e95FRER+cAbq8a4ZlkftXQiTnWaWDbKceLBLZym4+JlExQ0ZEqcdWwXh+9VIIpbsi7lI7xLGRjxXH1zH+v7wlqWFhGR5tQ3mHL1zWXKgy6zE6Y+TRS3sM+8mHNP6c66FKkDChoyJXKx4aIzS+w82288Kzsc3qWsWgfX3FxmdMxlXY6IiDSxsZrnmmVl3n6fKbsrY3MZGzG7x3HZ4mm0FjSElE3Tp0SmTGdbxBVfnsbMbhvcNqo0GeOZ11Ouv6M/61JERKSJ/equfp54uUaajGVdykcYY+kowuVn9TC9O6zvcAmXgoZMqR1m5rjozG4KOfOny/5CkSZj3PnYELc/Oph1KSIi0oTue2qY5Q8Ph3eMrbFYa7hgQTe7zSlkXY7UkbBGetIUDtityDkndm68GTQsHsP1dwzyzB/VHC4iIlPnpbcqXHdrP857Qmv+NjZi8dHtHLlfe9alSJ1R0JBMnHp4Bycc3EoUhzUz4l1Kper40bIyq9aGNaMkIiKN6f0NNa6+ucxwxQfXl2HjAofumePs47qyLkXqkIKGZMIYOO/kbvba2WIDDBtr+xw/vKmXoVE1h4uIyOQZqTiuWtrHe+t9cCdM2SjPLtsaLjqzhzgKbxeChE9BQzLTVrRcuqiH2SWwNqxbRV2a8Noqx0+Xl0nTsJawRUSkMTjn+fntfbz4VhJeX4aN6W7zXLqoRHe7mr9l6yhoSKZmlmIuP6tEe9FjTFgvMpdWue8Po9x030DWpYiISANa/vAgdz8xgkurWZfyEcZY8rHn0sUl5szOZ12O1DEFDcnc7nMLXLCgG2vDWznw3rH0/iEeenY461JERKSBPPHSCL+6ewjvQ9yi6zn35C4O3L2YdSFS5xQ0JAhH7tfGwiPbg7vMD++ppZ7rlvfzxxVhnWkuIiL16c13x/jRsj7Gah7vw5pks1GOEw5p59TDO7IuRRqAgoYE4ysndPOlfVqwUVjLtN6lDIzAlUv62NAfVqOeiIjUl/JAwpVL+igPEVzzdxTl2WdezDdP7Uat3zIRFDQkGHFkOP/0bnbaxgR37K1La6xaP37sbS0Ja/ZJRETqQ7Xm+cnyPt5Z44Ns/t6mBy5d3EOxoOGhTAx9kiQoXe0R3/nyNLraHMYG1hyeVHn61ZQb7ugLbqlbRETC98u7+njsxRppEtZWXGMs7S2ey8/uYUZ3YFuYpa4paEhwdtwmx8VndJOPDcaE9RFN0yq3PzrMnY8NZV2KiIjUkfufHuLWh4fCW8kwFmstFywosfucsHYTSP0LaxQnstEh81v5+okd4zf7BcWTpI7r7xjg2ddGsy5GRETqwCtvj3HdrQOk3gBhrYgbG7PwqDaO2r8t61KkASloSLAWfKmTEw8uYgM7icp7T6VquPrmflatDWtmSkREwvL+hho/XNLLcGX8cJGQ2CjHF+fn+MrxXVmXIg1KQUOCdu4pJfaalwuvOdzVWFtOuWpJL8OjIZ6BLiIiWRsdc1x9cx+r14fX/G3jPDtvG3HhghJxFNruAWkUChoStLYWy2WLSswq+eCaw71L+OMquHZ5mSQNaylcRESylTrPz27r48W3HM6FFTKMsXS3Or7z5Wl0d4T13SqNRUFDgjezJ8fli3toLRBc2EiTCvf/YZSb7x/IuhQREQnI8ocHueuJ4SBPmMrnLd9eWGKHmWFtTZbGo6AhdWGPnQpcuKCEDayJDsB7x2/uHeKR54azLkVERALw1Cuj/PruoY1934F9bxnDuSd1cPCerVlXIk1AQUPqxtEHtHHGkR2YwJrD8Z7Eea5d3s/rK8OauRIRkan1zuoa19xcZqzm8T6sHj4b5TjuwCKnHtaZdSnSJBQ0pK589YQuDturgI3zWZfyEd6l9A/DD5f0saE/rFNFRERkavQPpfzgpl56Bw3eJVmX8xFRlGfvnWPOP70U3snx0rAUNKSu5GLDhWeUmDPLYEM7iSqtsXKt48e39FJLAlsqFxGRSZWmnmt/28dbqx0urWZdzkfYKM/MEly6uIdiQUM/mTr6tEnd6W6P+M7ZPXQWXXDN4S6t8tQrCb/8XT/eK2yIiDSLG+8d4JEXxoILGcZYirmUy88qMbMU2NZjaXgKGlKX5s7Oc+miErnIY0xYH+PU1Vj+yDC/e3wo61JERGQK3PPkEMseHMIFtl0KY7AWzl/QzZ47tWRdjTShsEZoIlvg4D2LfPWETowJa1UD70nTlOvvHOSFNypZVyMiIpPo1XfG+OfbB6jVHAS2km2jPIuO7uSYA9uzLkWalIKG1LUzj+rimAML2CiXdSkf4b1ndAyuWtrHu+vCuqhJREQmxtpywg+X9DFUIcgTpg7ZI+bs4zpR77dkRUFD6poBzj+txPyd4iCbw9f0ply1pJfh0bC+gERE5POpVB1XLy3z3voEl4Y1oWSjPHO3ibhoQYlcpJgh2VHQkLrX2mK5bHEPMzpdcNuonEt4dSVcu7xMkoa1pC4iIlsndZ6f397H8286XBpWX4Yxlq42zxVnlyh1hvWdKM1HQUMawqyemCvOnkZr0QQXNtJkjPufHuG3Dw1mXYqIiEyA2x4Z5M5Hh0iTsC5pNcZSyFsuPrObubPDum9KmpOChjSM+TsXOP+0LozxmKBuI/J4PL++Z4hHXxjJuhgREfkcnnp5hF/eNcj45t3AVqqN5WsndHDo/NasKxEBFDSkwRx7YDtnHNmOsYGdFe49SeL58S39vPluWGesi4jI5lm5pso1t/RTTUxwzd/GWE48uIXTj+jIuhSRP1HQkIbztRO6OXC3PFFozeEuoX/Yc9XSMr39Ye3pFRGRzzYw7Lh6aT+9Az7I5u+95hU475RSYCv60uwUNKTh5GLDJQtL7DDDB3fsrUtrvLU65ZplZaq1wJbcRUTkEyWp5ye/LfPqylp4IcPm2KYHLj+rh9YWDeskLPpESkMqdUZc8eVpdLT64JrDXVrjqVcTfnV3X9aliIjIZlhy3wCPPD8WXMgwxlIswCULS8wsBbZlWAQFDWlgO2+b55KFJfK58ZdxSJyrsfzhEe5+cjjrUkRE5DPc//QwS+4fwrnAtrwaQ2QN3zy1g73mtWRdjcgnCmv0JTLBDp3fytnHdmJsWKsaeE+Spvzs1j5efLOSdTUiIvIJXls5xnW39pEkDnxY212jKM+CL7Vz3MFq/pZwKWhIw1t0dCdH798SXL8G3jNaNVy5tI/31gc2UyYi0uTWlhN+eFMfwxUb3AlTNspx0O45vnpCN2r9lpApaEjDMwbOP62b3XeMsaGdRJXWeH9DylVLNjBSCeuLTESkWVXGHNfc3MvKtQkuDetIchvlmTs74sIFXeTUliGBU9CQptBWtFxxdokZXT64fg3vEl5ZAdctL4d29ZOISNNJnef6O/t57g2HD6wvwxhLd7vnirNKTOtSypDwhTXiEplE20zLccVZJdpbbXBhI03GuPfpMZY9MJB1KSIiTe22Rwa547ER0iSslQyMoZA3XHxGN3Nn57OuRmSzhDXaEplk83du4dyTuzDWjO+pCoYHn/Cbe4d4/KXRrIsREWlKf3h1lF/eNYh3DoJaYzZYG/OV4zo5ZH5r1sWIbDYFDWk6JxzczumHt2FtWM3h3nsqYyk/WlbmrfcCm0kTEWlwq9bWuPrmPqqJCa75O4ryHH9gCwuO1AlTUl8UNKQpff3ELg74Qg4bhbX87L2jbwiuWlqmPBjW3mARkUY1OJxy5ZIyGwZ8cJfy2SjP7nMs553SjQ1qJV5k0xQ0pCnlc5ZvLywxZ5YN7thbl9Z48z3HNTf3UUtCWroXEWk8aer5yfI+/rgyCS9k2Bzb9BguXVSiraghm9QffWqlaU3rirh0UTcdxQBvDk+rPPHKGDfeMxDaHVEiIg1l6f0DPPxsJbiQYYyl2GK4ZGEX284Ia0JMZHOFNboSmWK77FDgojO6yeXCO4nKu5RlDw5xz5NDWZciItKQHnpmmN/cN4Tzadal/BlDFFnOO6WDveYVsy5GZKuFNbISycDh+7Ty1eM6AjuFCvCeNHX89LZ+nn+9knU1IiIN5dV3xvjJbwdIEkdoS8cmilhwRBsnHtyedSkin4uChghwxpEdHLVfMcCTqByVquGaZWVWrw9rWV9EpF6t60u46uYyQxWCO2HKRjkO3r3AV0/oyroUkc9NQUMEsNZw4YISe+wUB9kcvqYXrlxSZnQsrC9EEZF6UxlzXHlTL6vWeVwa1lHiJsqx87YRF59ZIhcHtsoushUUNEQ2aitaLl1YYkaXCS5spGmVV1Y4fnZbX1BXSImI1Jtf3NXP82+muMBu/rY2ptRuuGRhNz2dUdbliEwIBQ2RD9l2Ro5vL+ymkPPBNYenSZW7nxhl+UODWZciIlKX7nxskFsfGca5wLaiGkMcwcVndLPzdoWsqxGZMGGNpEQCsN8Xipx7UifW2sAaxD3ep/zqrgGeeGk062JEROrKs69VuP6O/vHG76Cavw3GxCw6up1D5uuEKWksChoin+DkL3ZwyheLAd4c7qlUHdcsK/P2e2Et+4uIhOrddTWuXNLLSIDN31Gc59gDWlh0dGfWpYhMOAUNkU9gDJxzUon95kUBhg1H3xBctbRM/1BoZ7+LiIRlaNRx5ZJeNgyAD+y+DBvl+cIOlm+e2q3mb2lIChoin6KQN1yyqMSOs2xwzeEurfHGe44fLesjSUPaAiAiEg7n4cfLyry6Ig3u5m8b5ZhVgssWl2hv1XBMGpM+2SKfYXp3zKWLumkv+sD6NcClVR57ucov7+oPa7uxiEggbrqnn4efrwYXMsDQknNctrjEdjPCmsgSmUgKGiKbsOsOBS5aUKKQiwMMGzVueXCQ+54eyroUEZGgPPLcCDfdN4h3SdalfJQxxHHEead0MX/nlqyrEZlUChoim+GIfVs565g2rImBgMKG9zgH1906wMtvjWVdjYhIEF5bOcY1y8okaXjN39bGnHpYGyce0pF1KSKTTkFDZDMtPLqLI/YtEMVhnXHuvWN0DK5cWmZdObCZOxGRKdY3OH7z93DFBNj8neOA3fJ87YTO0BbIRSaFgobIZoosXLigxK7bh3dzuEtrvN87HjZGx9SwISLNqVrzXLlkA6vWm+D6MmyUY+42EZcsLFHIa/glzUGfdJEt0NFqufjMbqZ3hXcSVZqM8dxrY/z89nLWpYiIZOKGO/t46pUKaRLWVlJjYzpbDZcuKtHTGWVdjsiUUdAQ2UJzZ+f59pldFHIeE9jat/cpv3t8hN8+NJB1KSIiU+rORwe59ZHh4HoyMIZcbLjojC7mbR/WvUwik01BQ2Qr7L9bkXNP7twYNMIKG3jPr+4e4omXR7OuRERkSjz72ij/fOdgsEd9n31MG4ft3Zp1GSJTTkFDZCuddEgHpxzWQRSHNUPlvaMy5rjm5jIr14S1R1lEZKK9t77GVUvKjFZccM3fUdzCMQe0ccaRnVmXIpIJBQ2RrWQtnHtSF/vuEmFsnHU5H+F9St+Q4X/f2EvvQFhfvCIiE2Vo1PGD3/SyftAGFzKMjdltBzj/9BK5OLCVb5EpoqAh8jkU8oaLzyyxw8wouOZwl1Z5a7Xj2t+WScP6/hUR+dy8h5/c0ssfV6a4wJq/rY2Z0W25ZFEP7UUNtaR56dMv8jnNLMVctrhEe5EAbw6v8thLNX59d1/WpYiITKib7u3noeeqwR1jizG05OGyxSW2nxnWBJTIVFPQEJkAX9ixwPmndZHPxcGFDe9q3PzgIA89O5J1KSIiE+LhZ4f5zb0DeBfacq0hF8ece3In++zSknUxIplT0BCZIEft38bio9uwJrR+DU+awrW/7eOVtytZlyMi8rm88e4YP7qlTJKa4I6ytVGOUw4tctKhHVmXIhIEBQ2RCbTo6E4O3ztPFIc1k+W9Y2A45colZdb3JVmXIyKyVfoGU374m16GK+E1f0dxC/vtmuNrJ3WHtrAtkhkFDZEJFEeGCxaU2HlbE1xzuPeO1b1w5ZJeKmOBHjYvIvIpqjXHVUt7WbnOBNeXYaMc202HSxd1U8gpZYh8QEFDZIJ1tUdcvribaZ0muGNv06TKc2+kXHdrLz7Um61ERD7BP9/Rx1Ov1kgDO2HK2IiOoufys0pM6wrrnS+SNQUNkUmw4zZ5Lj6zm3zMxtvDw+HSKnc/McJtvx/KuhQRkc1y9xND3P77keBWMjCGXGS58Ixudt0hrMtbRUKgoCEySQ7cvcg5J3VgrAHCChsA198xwFOv6CQqEQnbc6+Pct2tfYS4BmswnHVMO0fs05Z1KSJBUtAQmUSnHt7JSYe0E8VhzXR576jWPFff3MeqtYHNEIqIbPT+hoQrbypTGSO4o2yjuIUj9yty5lE6YUrk0yhoiEwia+C8k7vZaycbXL+G9ynlQcP/vnED/UNhHREpIjI04vjhTb2sHwzvhCljY3bZDi46o4dcHN6KtUgoFDREJllLwXDJohLbzYiCO4nKpVXefM/xk9+WSZU1RCQQ3sNPby3z8jsJLrDmb2tjZnZbLltcoq2oYZTIZ9ETIjIFZvXkuHxxibaiwdgo63I+wqU1fv9ClV/f3Zd1KSIiACy9v5/7/jAWXPO3MRGFPHx7YTc7zAprS6xIiBQ0RKbIbnMKnH9aJ9Z4QmsO9y5h6f1DPPjMcNaliEiTe/T5YX59zyAEtl0KwOA57+RO9vtCMetSROqCgobIFDp6/zYWHtWBjULr13A4B9ct7+PVd8LapiAizePNd6v8+JY+knT8vRSSKM5z8hfbOOlQNX+LbC4FDZEpdvZxXRy2Vx4bhbXs7n3KwAj8f7/pZV05rO0KItL4yoMpP7ipl77h8E6YslGefedFnHNyicCuRhIJmoKGyBTLx4YLF5TYabYNrjncu4T3e+Hqm/uoVEM8tV5EGlG15vnxsjIr13q8S7Iu5yNslGPb6fDtRT0UC0oZIltCQUMkA13tEVecXaLUQXDH3rq0yrOvJ/zstnLWpYhIk/jF7/p47OUqaVLNupSPMDaio+i5bHEPM7rDeleL1AMFDZGMzNkmz7fPLJHPgQlsLd6lVX732DC3PTKQdSki0uDufmKI5Q8P4QM7YQpjiKzh/NO72X1OIetqROqSgoZIhg7ao8jXju/A2DAfxevvGODpV0ezLkNEGtQLb1T46a39eB/WZAuAwXLWMe0cuV9b1qWI1K0wRzciTWTBlzo58ZA2rA2sX8M7qonhqiVlVq4NbKZRROree+tr/OCmMpUqwd38baMcR+1f5Kxju7IuRaSuGe+9Oj5FMjY65vmvP1/PS2+npKHdghvl2WU7y789fwbtrVs2N+E9DFcc5WHPynUJa/pSyoOO/mFH6hhvODdQzBsM0N1hKbVZZpUitpsW0dNhaWux2PAmO0WamnOewVHPmr6U1b0p6wYcvYMpgyPgvWd4zJOPDbkIcrGhu90wvTNim+6I2T2Wlpzhn365npdXOFxSJaSBiLExu24f8zfnT6ejNawLVkXqjYKGSCDW9iZ8/yfrWN2bBne0YxQXOHyvmO9+eRpR9Nmj/v5hxyurajz3VpUX3kl4e02Ndf3jqyPYeLz5/U+vnQ9+3fgzjRk/ccbVyEWe6Z0Rc2fF7Dknz4G75Nl125hSuxZiRbLwfjnlpRU1nnmjymurE95ak1AedCSpwUQ5jI3+7Nn+0LvCjJ9qZ3xCIQddRcPIiKcYJeSMJ289Fo/LeERibMTMkuVvvjWD7WeGtcosUo8UNEQC8sIbo/yPG8oMjbrgwoYxli8f185XTyh97J8NjTqefqPKfc+P8eRrY6zuBW/GZwK9S2ArL94yxsLGU7ksKTO74IBd8hyzdwuH7FagvUVLHSKTacOg48EXKtz/fIUX3qnRN2zxxoL3eJ98KFhsIWP/dCFfbCFnoS12FG1K3vg/RZSpHKAYG1HIwV+eO439dfO3yIRQ0BAJzL1PDnLlkj5SF9atuBhDHFm+c1Y3R+7fDsCq9QnLHx/ljqcrrFg/vuXAu2TSzsE3H6yIuJTtejzH7dfCmYcWmTtLx06KTBTnPC+uSLjlsRHue75CeTgGxlcbJ6uX4oOBSGSgJfJ05BytkcN6P2Vhw9iIC0/v5NTDO6fodxRpfAoaIgH6+W193PLwKC4N60x5ayO62w3nnVbi0dcSfveHUcoj8edatdhaH6x2dBQSTjuoyFeObFXgEPkcnPc8+2aNG+4b4sEXq9T8B892FsMEQyH2dMaOtiglMn5Sy4iiPMcfVOCSRT2T95uINCEFDZEAVWue//fXG3jspQSXhtEcbgBnDP21mIGaJTV5vKtNecD4eGHjN6y35mqccUgL3zyunVklNXCKbInX3kv40R2D3PdCjcTFeFfNKGB8lPdQiKErl9IepVgmfjuVjfPsOy/iL86ZTrGgHjCRiaSgIRKovsGU71+7jhVrHC7Di6wM41/soy6iXLOMJoZQOyOMjZnd7bn01HZOObBILg61UpEwjFQcNzwwws/uGWaoYidt2+NEaMt5uuOEFjtx26msjdl2esT3Lpyum79FJoGChkjA3nqvyn/52Xp6B3wmAwADpBj6kpi+MfPn58gEydgIg+GYvWP+YlEH207T4EHkk7zwdpX/vmSQ51d8vkMbpooHLJ6eFk9nlHzu1Q1jIjrbLH/1jR52m9MyQVWKyIcpaIgE7smXR/mfv9jAWNUxlWewGGDMR2yoRYzUDCaok+43xWDjFmZ11vjeVzs5fM9C1gWJBMN7uOmREf7xlmGGqxE+sLt7Ns3QnvdMi2vEZutXN6LI8q++0sOX9tXN3yKTRUFDpA4sua+fX9w1iEun7sjbER+xbjQireM3hLExxbzn8lNbOffY9uBXY0QmW6Xm+V9LB1jyaI1akga/ivFpPFCIYHo+oWhT/BY+3cZGnHVMO18/sXtyChQRQEFDpC54D1ff3MvdT45NyUlUfUlEuRqF0Av6+RmLMZZzjy7w3QXtFHJq9pTmtGHQ8f1f9PPgywaXVJjaWyomnmf8Do4ZLSltJt3s/xob5ThinzzfPXs6kc6NEJlU+sYVqQPGwDdPLbHn3Igonty9xOVaTO9Yg4QMAD9++eH194/xX24coJo0yn+YyObbMOD46x/38cBLKS4Zpd5DBmzsIXOwdjRi0G1eL5aNC+w823LB6SWFDJEpoKAhUieKBcNli0vM6HIYOznfkOVaTLnaiK+F8Wb6ZU84/v7GQcZq9T/IEtlca/scf/2TPp59x+AzPMFusjgP6yqWYRd/5gYqYyN62h3f/co0OtuUMkSmQiOOKEQa1jbTcly6qERbi53gsOHpq0UNGjL+hU/GWProGP+wdCDrUkSmxFDF8R9u6OOZt/3G7VKNyW8MGyM++sSwYawlHxsuNQIErgAADt5JREFUPrPE9jNzU16fSLNq7FGFSAPae5cWvnFK54Q1NhtgxOco15pjhs+7hBsfrvHjO4eyLkVkUiWp5+9vHOSx1wx+Cnq7suY8rK1EjDr7Ce9Hw7knd3LQHsUMKhNpXgoaInXo+IPbWfClts+9qmGAUWdYO2obpydjM3ifcuUdo9zzbOPO8Ipcd9cwtz2V4Oru+NqtlzpYNxZT418uFjU24qRDWjnt8I5MaxNpRgoaInXq6yd2c/Aeha1uDv/gMr4N1RyuiUIGAN6Rpp7/ftMgb74f7k3IIlvr4ZfGuPbuCs7VaITG7y1RdbChGuOAKC6wz7w8552iY2xFsqCgIVKncrHhkoU97DjLb9XKhmf8y7iSNuftEt6lrOk3/I8lgzqJShrKmr6U/3bTEKNjjqZaqtzIAMM1Q38Sse00z+Vn9VAsaLgjkgU9eSJ1rLsj4vLFPZQ6tqw53BgYdhGDSb3d+D2xvKvx6KsJNz08knUpIhPmh7cOsarX4P3UXfAZor5qzPGHdTG9e/OOvhWRiaegIVLndt4uz0ULuogjMGbzHunEGcrVuNl2VHwy7/nRncO8sbrxjv2U5nPfcxVuf6qKSxq/+XtTHJabHh2lUtWLTiQrChoiDeDQvdr48nEdGLvpmTsD9CcRY9ouBIw3hpeHLdfdrVUNqW+jVc+PfjdMLfVoFgHwKc++5bnl8dGsKxFpWgoaIg1i8dFdHLVvHhvlP/XfMUANy2DNYpqzNeMTeVfjjqcqPPWaZoGlft3y2CgvrxrvP5IPeH5+7zDrB1zWhYg0JQUNkQZhDHzr9BK77WiJ4sKn/EvQV4vQYsbHpeS44YHhZuydlQZQHnL86oER8BpQf5h3Ce9uMNzymFY1RLKgoCHSQDpaLZcv7mF6p/vE5vCqMwzXzIRd9tdIfFrl4ZdqPP2GVjWk/tz9TIW3140PrOWjvE9Z8vsK5SGFMJGppqAh0mC2nZHjsrN6KBY+3hw+lMZazfhUnpqLWPKIejWkvlRrnqWPjqK+jE/hHe+VDXc9o1UNkammoCHSgPae18I3Tu76yN9zxjJUQ6sZn8GnNX7/SpVV6zUrLPXjydervLyiqtWMz+S5/ckKVf0RiUwpBQ2RBnXioR2cfkQ7xsYYYDQ11JxixmfzDIzGPPDCWNaFiGy2O5+uYOOWrMsImnc1Xngn4YW3tTVSZCopaIg0sHNO7uag3fOYqMBIGmljxWbweB54oUrq9Kcl4esdTHn81YpWMzbFexw57tckgsiUUtAQaWD52HDJwhLbzURN4JvJu4SXV9Z4630dESrhe+6tGmsHjILGZvA+5bFXq4zqAj+RKaOgIdLgSp0xh+3XAfbT79eQD/GO4WrEs29pi4WE79FXx8Bs+qJOGZ9EeHtNjRVrNYkgMlUUNESawKvvJeiGvi3zhC7vk8BVqp4X3knAa+C8uVKf5+nXtX1KZKooaIg0uCT1vPhOVbcFbwmf8sbqhJExbbGQcL1fTlixtqZne0sYw4srtc1MZKooaIg0uLX9jjV9XjcGbwHvUlatT1jXrwGchOvN91NGxkD3Z2w+71L+uKpKTRcKiUwJbewUaXAr1yX0D6foBo0tU63BYy+PUa2kJMobEphCzvD4KxUwVluntoR3bBiA9QOO2T1R1tWINDwFDZEG996GFBu34JJK1qXUFY/nutv7uSly6KRbCY0B1lYszuk0uS3hcQyMetb0pQoaIlNAQUOkwa3uTcFrpLw1RquetnyqjSkSHGMNNo4wNYO2Tm0B7/G2wPoBbSUVmQrq0RBpcOv6NVDeOgZjjXacSZC8h2qqJ3trGGB9v4KGyFRQ0BBpcL2DDs14bh2jN6QEynlPVasZW61vWH0tIlNBX6MiDa6qkxy3Wuq1nCFhct7gFTK2mm4HF5kaChoiDU9fqCKNxgNe+/q2igf6h7V1SmQqKGiIiIiIiMiEU9AQERGRptJa0GqQyFRQ0BBpcMbqC3Vr6Y9OQmW1cWqrGaCjqOGPyFTQkybS4LpbDTqjdesYr8GchMkaiKz6r7ZWa0HDH5GpoCdNpMFN74o0WN4qniTxuutQgmStoZjTJMJWMYbpXRr+iEwFPWkiDW6bUgxGg5EtZ8hHXuM4CZJ3Hu+UgrecwaVVpnVo+CMyFfSkiTS47aZFeKfLqbaUNdCaU8qQQBmI8LpLY0sZQ2veM7M7yroSkaagoCHS4LabFtESJ7rmegt57/HO6RoSCVZrTj1EW8oYS3e7ZXaPgobIVNDIQ6TBbTvNUuqwGAWNLWBoyUFezbYSKg84p12RW8pEzJ2Vo5jXH5zIVNDIQ6TBtRYsX9gujzGawdtcHk8E4LUxRcLVEkFLrIbwLWGMZf6OcdZliDQNBQ2RJrDP3JwawrdQa+w0fJNgeca39+VI1aexBVw6xj475bMuQ6RpKGiINIGDvpAHV8m6jLoRWUPBaPAmYTNAa+wxisSbx1hmdVv22CGXdSUiTUNBQ6QJ7LxNzLzZeYzVloFN8Yz3ZuSs0zyxBK9gHbF6iTaLsTF7z4kptWvoIzJV9LSJNIFi3nDEHurT2Cx+fNuU1U19EjgPxAZaYm2e2iwu5bh9W7KuQqSpKGiINIlj920hHyXq1diEyEJ7pNUMqRPe0xapn2hTjI3ZpgQH7VrIuhSRpqKgIdIk9tghZv95OaxVI+Sn8UAx8sTGZV2KyGZrjTx5LVZ+JmNjTtivhWmdGvaITCU9cSJNIrKGxYe14F2SdSnBMkBnXrPDUj88YL2jM+fRbr9PY2iJqyw4pDXrQkSajoKGSBP50l4t7LljpKbwT+AZ3+tetE4DNqk7rTYhr8f6E5kox9F7F9llW/0BiUw1BQ2RJlKIDecc3QpeW4P+nAG68x6jlCF1Zrwp3NOZU0j+GGMo5lK+flQx60pEmpKChkiTOWafFvafV8BE6tX4sNbYUzSJmsClbnVETr0af8ZGBU45sMBec3R3hkgWFDREmkwxb7jopCIR6tX4gLWGUj7VC1HqWmQc3fk06zLCYQzT2lPOP74t60pEmpa+V0Wa0GG7Fzj9kKJWNRjfdtIRp7RY3UUg9c17aI9SWnWvBgDGRHzruCLbT1dvhkhWFDREmtRlp7ax43SavjG8JYbuXIrX5nZpABboyafYJj86zUYFDt89x9lH6KQpkSwZr29Xkab14IsV/upH/dSS5mwOt8YwqyWlLYeaaKVhGKB3DHprcVMe/GBsxPQOww//VYm5s5p7IkUka3oCRZrYkfNbOP/4GtfcOQq+ufZ2Gxuz4KCYA+dGpM03FpMGZ63h1mdrPPG6x6fVrMuZQgZrDX+xuEMhQyQAegpFmty3T2ln5fqUO59Jm2ZAYqICx+xl+JuvdVPINfkeE2lYh+3j+D9+0Mtr7+eb59m2ERcc18LJB7RkXYqIoB4NkaaXiwz/5sud7DvXYOPG/3I2UZ75Oxj+7Vc6FTKkoU3vtPzf53Uxvd01RS+WjYucflCei09uz7oUEdlIQUNE6G6z/IdvdLLrbIexjXvevIny7DQT/uM3O5jWqQsHpPHtvn2O//StLrpbG/vgBxPlOW4v+GtNIIgERUFDRADYblrM313QzW7bNebKhony7Djd83cXdLLjjMYdcIn8uYN2zfO353TQWWzMsGHiFo6Zb/ne1zppLShkiIREp06JyEe8uz7h3/20nxdW0jD7uk3Uwl47eP6fb3QyZ2bjDbRENsfTr4/xtz8fZE2/aZBn22BsxIn75fjbc7oUMkQCpKAhIh+zYTDl7341wL3PJ3hX5zeIG8tR83P8+693M61Ti7jS3F57L+H/+lkfr612eFfPJ82Nny71jWNbueK0DvKNu+NTpK4paIjIJxqrea68bYgbHqhQS6i7wGFsTGTh60flufy0Top5zXaKAKzrT/mvNw5w7wsO55K6u2vDRHm6ip7vnN7KWYe3YvRoiwRLQUNEPpX3cO/zFf5hySCr+2zdbLcwUY4ZHY6/XNzJifs3Xr+JyOdVSz3/fO8wP75zmJGqrZOJBIOJcuw22/O9r3Uyf04+64JEZBMUNERkk97rTfmnZQPc81xK6gzehRk4jM1hjOfYvWO+u6BD/Rgim/DMm1X+8eYBnlthwafBBg4TFyjGKWcfXuCikzrobNUyhkg9UNAQkc2SpJ4HX6xw5a1DvP4+eO/DuU3cWIyN2HUbz0UntXP8vkWs2jFENkul5rnp4RF+fu8wawcivKuNL2cGwNgYa+DAeZYrTu9g77k5jPZKidQNBQ0R2SKDo47lT1T4xf3DrOodH81ns6XKjN/5YWDbUspXvtTOosNa6CgqYYhsjTXllF8/NMItj4/SO5zHu1o2KxzGYG0eSJm/g+Ebx7Vz1PwCed2PIVJ3FDREZKsMjHjufHqUWx4b4aVVDk80PiiZ5MZSYyzYHJaEXWZbzjq8lRP3b6GrTQFDZCKsKacs/f0Idzw9yor1BoydklUOYyKwMfmoxn47x3z5iDaOmN9CQTsgReqWgoaIfC6Vmufp16vc9YcKj/1xjPfLHhsV8D4Fl+K9A7b2NWM2BosIs3GwM73DcfAXCpxyYJED5hUo6ux8kUnRP5zyyMtV7nx6lD+8UWWoGmNMvHFC4YNne2t99NnGjbHdNMsxe7dw/H4t7LljnkhzByJ1T0FDRCZM35DjuberPP7HKs+9WWPl+oShigGb40+vmj8Fjz9/9Zjxv4zBfPCrT2nLJ2w7PeaAeXkOmJdnv3l5utusjrQUmSLOw/vlhGfeTHjytTFeeLvG6t6E0STGYDc+yX7jiscnhY+NicFYDIw/5r5GdyvstE3MfjsX+OLuBb6wXUxbix5skUaioCEik8I5WF1OWbU+4c33E1asTXm/nNA/4qlUPaNj/iNhIR9DsWDoaouYXbLMmZVjzoyIObNiZnVHmt0UCUQ18by7PmXF+pS3VtdYtSFhTdkxOOoYGfMkHzojwhhDSw5a8oZpXRGzSxFzZ8XsMN2y06wcPR2aNBBpZAoaIjKlUucZq3lqf9ZjGkdQyBniSKMOkXqUpFCpOtI/W9Qo5Ay5GCKrZ1uk2ShoiIiIiIjIhNNmBBERERERmXAKGiIiIiIiMuH+f6ZKo1VWxL54AAAAAElFTkSuQmCC;fontFamily=Helvetica;fontSize=25;fontColor=#000000;" parent="1" vertex="1">
                    <mxGeometry x="42420.00000000001" y="17677" width="187.01" height="136.84" as="geometry"/>
                </mxCell>
                <mxCell id="QgR1jz5Ba6JC49zfSx_E-110" value="Azure AD" style="text;html=1;strokeColor=none;fillColor=none;align=center;verticalAlign=middle;whiteSpace=wrap;rounded=0;dashed=1;fontSize=38;fontFamily=Helvetica;fontColor=#000000;" parent="1" vertex="1">
                    <mxGeometry x="40846" y="17385.859999999997" width="60" height="30" as="geometry"/>
                </mxCell>
                <mxCell id="QgR1jz5Ba6JC49zfSx_E-111" value="Azure Firewall" style="text;html=1;strokeColor=none;fillColor=none;align=center;verticalAlign=middle;whiteSpace=wrap;rounded=0;dashed=1;fontSize=38;fontFamily=Helvetica;fontColor=#000000;" parent="1" vertex="1">
                    <mxGeometry x="40970" y="17718.91" width="60" height="30" as="geometry"/>
                </mxCell>
                <mxCell id="QgR1jz5Ba6JC49zfSx_E-112" value="" style="sketch=0;aspect=fixed;html=1;points=[];align=center;image;fontSize=25;image=img/lib/mscae/Kubernetes.svg;dashed=1;strokeWidth=4;fontFamily=Helvetica;fontColor=#000000;" parent="1" vertex="1">
                    <mxGeometry x="41210" y="17691.09" width="143.39" height="137.65" as="geometry"/>
                </mxCell>
                <mxCell id="QgR1jz5Ba6JC49zfSx_E-113" value="" style="edgeStyle=orthogonalEdgeStyle;rounded=0;orthogonalLoop=1;jettySize=auto;html=1;strokeWidth=4;fillColor=#60a917;strokeColor=#2D7600;endArrow=blockThin;endFill=1;startArrow=classic;startFill=0;fontFamily=Helvetica;fontSize=25;fontColor=#000000;" parent="1" source="QgR1jz5Ba6JC49zfSx_E-108" target="QgR1jz5Ba6JC49zfSx_E-112" edge="1">
                    <mxGeometry relative="1" as="geometry">
                        <mxPoint x="41081.74" y="18001.68" as="sourcePoint"/>
                        <mxPoint x="41245.74" y="18004.68" as="targetPoint"/>
                    </mxGeometry>
                </mxCell>
                <mxCell id="QgR1jz5Ba6JC49zfSx_E-114" value="Kubernetes RBAC" style="text;html=1;strokeColor=none;fillColor=none;align=center;verticalAlign=middle;whiteSpace=wrap;rounded=0;dashed=1;fontSize=38;fontFamily=Helvetica;fontColor=#000000;" parent="1" vertex="1">
                    <mxGeometry x="41251.69" y="17860" width="60" height="30" as="geometry"/>
                </mxCell>
                <mxCell id="QgR1jz5Ba6JC49zfSx_E-115" value="" style="verticalLabelPosition=bottom;html=1;verticalAlign=top;align=center;strokeColor=none;fillColor=#00BEF2;shape=mxgraph.azure.virtual_network;pointerEvents=1;dashed=1;fontSize=25;fontFamily=Helvetica;fontColor=#000000;" parent="1" vertex="1">
                    <mxGeometry x="40980" y="18666.39" width="75" height="47.63" as="geometry"/>
                </mxCell>
                <mxCell id="QgR1jz5Ba6JC49zfSx_E-116" value="Virtual Network" style="text;html=1;strokeColor=none;fillColor=none;align=center;verticalAlign=middle;whiteSpace=wrap;rounded=0;dashed=1;fontSize=38;fontFamily=Helvetica;fontColor=#000000;" parent="1" vertex="1">
                    <mxGeometry x="40987.5" y="18735" width="60" height="30" as="geometry"/>
                </mxCell>
                <mxCell id="QgR1jz5Ba6JC49zfSx_E-117" value="" style="sketch=0;aspect=fixed;html=1;points=[];align=center;image;fontSize=38;image=img/lib/mscae/Azure_Firewall.svg;dashed=1;strokeWidth=4;fontFamily=Helvetica;fontColor=#000000;" parent="1" vertex="1">
                    <mxGeometry x="38393.880000000005" y="18140" width="96" height="96" as="geometry"/>
                </mxCell>
                <mxCell id="QgR1jz5Ba6JC49zfSx_E-118" value="Azure Firewall" style="text;html=1;strokeColor=none;fillColor=none;align=center;verticalAlign=middle;whiteSpace=wrap;rounded=0;dashed=1;fontSize=38;labelBackgroundColor=none;fontColor=#000000;fontStyle=0;fontFamily=Helvetica;" parent="1" vertex="1">
                    <mxGeometry x="38408.880000000005" y="18265" width="60" height="30" as="geometry"/>
                </mxCell>
                <mxCell id="QgR1jz5Ba6JC49zfSx_E-119" value="" style="verticalLabelPosition=bottom;html=1;verticalAlign=top;align=center;strokeColor=none;fillColor=#00BEF2;shape=mxgraph.azure.virtual_network;pointerEvents=1;fontSize=38;fontFamily=Helvetica;fontColor=#000000;" parent="1" vertex="1">
                    <mxGeometry x="38417.01" y="17320" width="90.14" height="60" as="geometry"/>
                </mxCell>
                <mxCell id="QgR1jz5Ba6JC49zfSx_E-120" value="Virtual Network" style="text;html=1;strokeColor=none;fillColor=none;align=center;verticalAlign=middle;whiteSpace=wrap;rounded=0;dashed=1;fontSize=38;fontColor=#000000;fontStyle=0;fontFamily=Helvetica;" parent="1" vertex="1">
                    <mxGeometry x="38420.130000000005" y="17398.91" width="92.35" height="50" as="geometry"/>
                </mxCell>
                <mxCell id="QgR1jz5Ba6JC49zfSx_E-121" value="5" style="ellipse;whiteSpace=wrap;html=1;aspect=fixed;labelBackgroundColor=none;fontSize=38;strokeWidth=4;fontStyle=1;fillColor=#d5e8d4;strokeColor=#82b366;fontColor=#000000;fontFamily=Helvetica;" parent="1" vertex="1">
                    <mxGeometry x="38572.76" y="17153" width="70" height="70" as="geometry"/>
                </mxCell>
                <mxCell id="QgR1jz5Ba6JC49zfSx_E-122" value="6" style="ellipse;whiteSpace=wrap;html=1;aspect=fixed;labelBackgroundColor=none;fontSize=38;strokeWidth=4;fontStyle=1;fillColor=#d5e8d4;strokeColor=#82b366;fontColor=#000000;fontFamily=Helvetica;" parent="1" vertex="1">
                    <mxGeometry x="39189.53" y="17750" width="70" height="70" as="geometry"/>
                </mxCell>
                <mxCell id="QgR1jz5Ba6JC49zfSx_E-123" value="7" style="ellipse;whiteSpace=wrap;html=1;aspect=fixed;labelBackgroundColor=none;fontSize=38;strokeWidth=4;fontStyle=1;fillColor=#d5e8d4;strokeColor=#82b366;fontColor=#000000;fontFamily=Helvetica;" parent="1" vertex="1">
                    <mxGeometry x="39337.880000000005" y="18030" width="70" height="70" as="geometry"/>
                </mxCell>
                <mxCell id="QgR1jz5Ba6JC49zfSx_E-124" value="8" style="ellipse;whiteSpace=wrap;html=1;aspect=fixed;labelBackgroundColor=none;fontSize=38;strokeWidth=4;fontStyle=1;fillColor=#d5e8d4;strokeColor=#82b366;fontColor=#000000;fontFamily=Helvetica;" parent="1" vertex="1">
                    <mxGeometry x="38607.9" y="18123" width="70" height="70" as="geometry"/>
                </mxCell>
                <mxCell id="QgR1jz5Ba6JC49zfSx_E-125" value="9" style="ellipse;whiteSpace=wrap;html=1;aspect=fixed;labelBackgroundColor=none;fontSize=38;strokeWidth=4;fontStyle=1;fillColor=#d5e8d4;strokeColor=#82b366;fontColor=#000000;fontFamily=Helvetica;" parent="1" vertex="1">
                    <mxGeometry x="38219.00000000001" y="18210" width="70" height="70" as="geometry"/>
                </mxCell>
                <mxCell id="QgR1jz5Ba6JC49zfSx_E-126" value="10" style="ellipse;whiteSpace=wrap;html=1;aspect=fixed;labelBackgroundColor=none;fontSize=38;strokeWidth=4;fontStyle=1;fillColor=#d5e8d4;strokeColor=#82b366;fontColor=#000000;fontFamily=Helvetica;" parent="1" vertex="1">
                    <mxGeometry x="39176.90000000001" y="18380" width="70" height="70" as="geometry"/>
                </mxCell>
                <mxCell id="QgR1jz5Ba6JC49zfSx_E-127" value="12" style="ellipse;whiteSpace=wrap;html=1;aspect=fixed;labelBackgroundColor=none;fontSize=38;strokeWidth=4;fontStyle=1;fillColor=#d5e8d4;strokeColor=#82b366;fontColor=#000000;fontFamily=Helvetica;" parent="1" vertex="1">
                    <mxGeometry x="39686.96000000001" y="18670" width="70" height="70" as="geometry"/>
                </mxCell>
                <mxCell id="QgR1jz5Ba6JC49zfSx_E-128" value="a" style="ellipse;whiteSpace=wrap;html=1;aspect=fixed;labelBackgroundColor=none;fontSize=38;strokeWidth=4;fontStyle=1;fillColor=#f8cecc;strokeColor=#b85450;fontColor=#000000;fontFamily=Helvetica;" parent="1" vertex="1">
                    <mxGeometry x="39246.899999999994" y="17160" width="70" height="70" as="geometry"/>
                </mxCell>
                <mxCell id="QgR1jz5Ba6JC49zfSx_E-129" value="b" style="ellipse;whiteSpace=wrap;html=1;aspect=fixed;labelBackgroundColor=none;fontSize=38;strokeWidth=4;fontStyle=1;fillColor=#f8cecc;strokeColor=#b85450;fontColor=#000000;fontFamily=Helvetica;" parent="1" vertex="1">
                    <mxGeometry x="39176.9" y="17501" width="70" height="70" as="geometry"/>
                </mxCell>
                <mxCell id="QgR1jz5Ba6JC49zfSx_E-131" value="" style="rounded=0;whiteSpace=wrap;html=1;labelBackgroundColor=default;sketch=0;fontSize=25;fontColor=#000000;fillColor=none;fontFamily=Helvetica;strokeWidth=2;" parent="1" vertex="1">
                    <mxGeometry x="40551.59" y="17851.99" width="370" height="920" as="geometry"/>
                </mxCell>
                <mxCell id="QgR1jz5Ba6JC49zfSx_E-132" value="" style="aspect=fixed;html=1;points=[];align=center;image;fontSize=25;image=img/lib/azure2/devops/Azure_DevOps.svg;labelBackgroundColor=default;sketch=0;fontColor=#000000;fillColor=default;textOpacity=40;imageBackground=#FFFFFF;fontFamily=Helvetica;" parent="1" vertex="1">
                    <mxGeometry x="40870" y="17826" width="64" height="64" as="geometry"/>
                </mxCell>
                <mxCell id="NxfhWxnYNg09Ixo6E7Rh-29" value="" style="edgeStyle=orthogonalEdgeStyle;rounded=0;orthogonalLoop=1;jettySize=auto;html=1;strokeColor=#2D7600;strokeWidth=5;fontSize=38;endArrow=none;endFill=0;" parent="1" source="QgR1jz5Ba6JC49zfSx_E-133" edge="1">
                    <mxGeometry relative="1" as="geometry">
                        <mxPoint x="40950" y="18191" as="targetPoint"/>
                    </mxGeometry>
                </mxCell>
                <mxCell id="QgR1jz5Ba6JC49zfSx_E-133" value="" style="sketch=0;aspect=fixed;html=1;points=[];align=center;image;fontSize=25;image=img/lib/mscae/Azure_Pipelines.svg;labelBackgroundColor=default;fontColor=#000000;fillColor=default;fontFamily=Helvetica;" parent="1" vertex="1">
                    <mxGeometry x="40670.45999999999" y="18135.180000000004" width="111.67" height="111.67" as="geometry"/>
                </mxCell>
                <mxCell id="QgR1jz5Ba6JC49zfSx_E-134" value="" style="sketch=0;aspect=fixed;html=1;points=[];align=center;image;fontSize=25;image=img/lib/mscae/Azure_Repos.svg;labelBackgroundColor=default;fontColor=#000000;fillColor=default;fontFamily=Helvetica;" parent="1" vertex="1">
                    <mxGeometry x="40678.719999999994" y="17876.850000000002" width="108" height="120" as="geometry"/>
                </mxCell>
                <mxCell id="QgR1jz5Ba6JC49zfSx_E-136" value="" style="sketch=0;aspect=fixed;html=1;points=[];align=center;image;fontSize=25;image=img/lib/mscae/Azure_Artifacts.svg;labelBackgroundColor=default;fontColor=#000000;fillColor=default;fontFamily=Helvetica;" parent="1" vertex="1">
                    <mxGeometry x="40676.34999999999" y="18391.99" width="94.74" height="94.74" as="geometry"/>
                </mxCell>
                <mxCell id="QgR1jz5Ba6JC49zfSx_E-137" value="Azure Repo" style="text;html=1;strokeColor=none;fillColor=none;align=center;verticalAlign=middle;whiteSpace=wrap;rounded=0;labelBackgroundColor=none;sketch=0;fontSize=38;fontColor=#000000;fontFamily=Helvetica;" parent="1" vertex="1">
                    <mxGeometry x="40693.719999999994" y="18039.4" width="60" height="30" as="geometry"/>
                </mxCell>
                <mxCell id="QgR1jz5Ba6JC49zfSx_E-138" value="Azure Pipeline" style="text;html=1;strokeColor=none;fillColor=none;align=center;verticalAlign=middle;whiteSpace=wrap;rounded=0;labelBackgroundColor=none;sketch=0;fontSize=38;fontColor=#000000;fontFamily=Helvetica;" parent="1" vertex="1">
                    <mxGeometry x="40691.719999999994" y="18287.13" width="60" height="30" as="geometry"/>
                </mxCell>
                <mxCell id="QgR1jz5Ba6JC49zfSx_E-139" value="Azure Artifacts" style="text;html=1;align=center;verticalAlign=middle;whiteSpace=wrap;rounded=0;labelBackgroundColor=none;sketch=0;fontSize=38;fontFamily=Helvetica;fontColor=#000000;" parent="1" vertex="1">
                    <mxGeometry x="40703.719999999994" y="18526.01" width="50" height="13.25" as="geometry"/>
                </mxCell>
                <mxCell id="QgR1jz5Ba6JC49zfSx_E-140" value="Azure Devops" style="text;html=1;strokeColor=none;fillColor=none;align=center;verticalAlign=middle;whiteSpace=wrap;rounded=0;labelBackgroundColor=none;sketch=0;fontSize=38;fontColor=#000000;fontFamily=Helvetica;strokeWidth=38;" parent="1" vertex="1">
                    <mxGeometry x="40602.97" y="18805.999999999996" width="237.5" height="30" as="geometry"/>
                </mxCell>
                <mxCell id="QgR1jz5Ba6JC49zfSx_E-143" value="" style="shape=image;verticalLabelPosition=bottom;labelBackgroundColor=none;verticalAlign=top;aspect=fixed;imageAspect=0;image=data:image/png,iVBORw0KGgoAAAANSUhEUgAAAZcAAAGACAYAAABhtS8uAAAgAElEQVR4nO3dd2BUVf428GdqOkkghfRCQiD0EjrSW+iIApZV11VX3VVXV3fddS1b9FV/q9jLrq6uigUFBINUo/QOoYQA6Z303qa9f6ArShIyM+fO3DvzfP5xJXO/96xM5pl77znfo7JYLBYQEREJpHb2AIiIyPUwXIiISDiGCxERCcdwISIi4RguREQkHMOFiIiEY7gQEZFwDBciIhKO4UJERMIxXIiISDiGCxERCcdwISIi4RguREQkHMOFiIiEY7gQEZFwDBciIhKO4UJERMIxXIiISDiGCxERCcdwISIi4RguREQkHMOFiIiEY7gQEZFwDBciIhKO4UJERMIxXIiISDiGCxERCcdwISIi4RguREQkHMOFiIiEY7gQEZFwDBciIhKO4UJERMIxXMhltXQY0W40OXsYRG5J6+wBEImWnlWMV3YeR2ZpNVQqFUbGhOCh2aMwMibE2UMjchsqi8VicfYgiER5ecdxvJ6eccWfq9UqPL5wHFaOSXLCqIjcD2+Lkcv44mh2p8ECAGazBU9tPIA9F0odPCoi98RwIZdQWNOIp9MOdvsai8WCR7/Yg7qWdgeNish9MVzIJfzpiz1objdc9XWVjS34x1fdhxAR2Y/hQop3JP8ijuRf7PHr007lobCmUcIRERHDhRTvX7tOWfV6s9mCd3aflmg0RAQwXEjhsivq8N25YquPW38sG7V89kIkGYYLKdrmk3k2HddhNGH7mQLBoyGiHzBcSNG2ZxbacSzDhUgqDBdSrILqRly4WGvz8Qdzy9HUgxlmRGQ9hgsp1jdZtl+1AJduje0+XyJoNER0OYYLKdbxggq7a5wotL8GEV2J4UKKdaqkyu4aJ4vtr0FEV2K4kCJVN7ehrK7Z7jpny2pgMrN3K5FoDBdSpJNFYq442gxGuyYFEFHnGC6kSDkVdcJqZVfWC6tFRJcwXEiRSuqahNUqrRVXi4guYbiQIpXV2/+85QelAoOKiC5huJAiibzaKBUYVER0CcOFFElkIPC2GJF4DBdSHKPZgqa2DmH1uDMlkXgMF1KcNoNR1vWIiOFCCiQ6DFoNJqH1iIjhQgrUJjgMTGYzDCaz0JpE7o7hQorTKsFtLN4aIxKL4UKKY5LgKoP9xYjE0jp7APSjjKJKbM8sRGuHEf5eesT06YWZydHw8dA5e2iy4qET/7b10GmE11S65nYDdmQWoqC6AfWtHfDSazErORrDooKdPTRSAIaLTLz93Sm8sO3oFX/uodNi2oBI3DZxEH+pv+clQbh4avmr8IOMokr8Z+8ZpGcVo/1ntwv/vesUHpw9CndOGeKk0ZFS8DdKBr45W4QXtx/r9GftBiO2nMrH1tMFWDgsHr+fMwohvbwdPEJ58dSLvcrw0GmhUgktqUgVDS34v61HsSkjFxZL17cJX9x+DAkhAZg+MMqBoyOl4TMXGfjv/sxuf5kBwGKxYOOJHMx9cT3WHMxy0MjkSfRVhhdviWHNwSzMfXE9Np7I6dF78b/7Mx00MlIqhouTNXcYcTT/Yo9f39JhwF83HsBDn+5CS4d7znDy1GmgUYt763rr3feZVkuHEQ99ugt/3XgALR2GHh93NP8imt30/Uc9w3BxsoKqBpvWWKSdzMXy179CjpvuRRLs5yWsVqib3mbMqazH8tc3Ie1krtXHGkxmFFQ1SDAqchUMFyezwPYpsLmVdbjhrc3IKKoUOCJlCA/wFVYrLMBHWC2lyCiqxA1vbUauHV9O7HnvkutjuDjZVW5vX1V9aztue3cbDuSWiRmQQkQIDASRQaUEB3LLcNu721Dfal/DTnvfu+TaGC5OFujtYXeNlg4D7nx/B745WyRgRMoQJjAQItwoXL45W4Q7399h1fOVroh475LrYrg4WUSgr5BFkh1GE+7/OB17s0sFjEr+IgPFBYLIWnK2N7sU93+cjg6j/b3ZfDx0iHCT/25kG4aLDCSGBgqpYzCZcd+adGSW1gipJ2eDIvoIq5UssJZcZZbW4L416cIadIp6z5LrYrjIwMCw3sJqNbcbcOf721Hs4rsrJvXtDb3W/vUp4QG+6OPjKWBE8lVc24Q739+O5nb7b4X9QOR7llwTw0UGpiRFCq1X1dSKX723DXV2PrCVM61aJeQDbkhkkIDRyFddazt+9d42VDW1Cq0r+j1LrofhIgMT+oUJb06ZX9WAP6zdLbSm3IgIhiERrh0uf1i7G/mC16P4eOgwoV+Y0JrkehguMqDXajApMUJ43e/OFeOt704JrysXI6ND7K4xPsF1PyTf+u4UvjtXLLzu5MQIIbckybWxcaVMzB0ci62n84XXfXnHcYyMCUFKbKjw2lIymi0orG5ATmU98qvqUdHQisrGFlQ2taKysRVVja12T6fVatT459ajCPbzRrCfF0J7eSMuyB8JIQHo66/sVfuH8y/i5R3HJak9Z3CsJHXJtagsV+tSRw5hNFsw7bm1qGxsEV472M8bG367SLYPrisbW3GiqBKnS6qQU1GP3Mp6FNY0wOjErYd9PXSIDwlAQkgA+gX7Izm8D4ZFBcNbL//vY9XNbVjyykbJ3kvpj1wHrZptpKl78v9NcRNatQorxyThlZ3iv21WNrbgiQ378eqN04TXtpbZYsHZshqcKKzE8cIKnCisRHFto7OHdYWmdgNOFlXi5GWtdTRqNZL6BmJUTChGxoRgZEyILPuSPbFhvyTBAgArxyQxWKhHeOUiI9XNbZj23Fohi9w689IN0zBnUIwktbtT19KO3RdK8G1WMfZcKLG77YicRPb2w9SkSEwbEIUxcX2h0zj3MebWMwW4f026JLX1Wg3SH7lOtlfAJC8MF5n5w+d78OXxbElqB/t5I+2BJejlqZek/uWyK+qwPbMQ350rxsniSpjdYI96Xw8dJiZGYNqAKExJinR4e5SGtg7MX71BsquWxSMS8OzySZLUJtfDcJGZwppGzF+9XthK6p9bPjoRf186UZLalY2tSDuZh40ncpBZWi3JOZRCo1ZjYmI4lo5IwIyBUQ6ZXfXY+r34/MgFSWrrNGqkPbAU0b39JKlProfhIkNPbTyAjyXcbfKjO1MxKsb+abwA0GYwYduZfGw8kYv9OWUwmZ33EF6uenl5IHVILJaMTMDwqGBJznG0oAI3vr1ZktoAcMO4AXh84TjJ6pPrYbjIUFVTK2b/c52QzrWdGR4dgk/uSrWrRll9Mz46kIW1h8+71DMUqcUF+eOm8QOxbFQCvHTi5tOsfGszThRWCKt3OW+9DtseWoYgX3EbtJHrY7jI1Ms7juP19AzJ6r9643TMTI62+rijBRX4775M7Mgs5FWKHfy9PLBiTBJuGjcAIXbOONuRWYjffPSNoJFd6Z5pw3DfzBGS1SfXxHCRqZYOIxa8tAGlddI0oOwXEoBN9y2GWtWzaaXbMwvxRnqG2z9LEU2nUWPekDj8ctIgDLChV5rZYsHCl79ETkWdBKO71Njzq/uXKGJ9D8kLw0XGdp8vwR3vb5es/j+WTcK1oxK6fU16VjFe2XmcoeIAcwbH4v6ZIxAf7N/jY744mo0/r9sj2Zj+dcssTO4vvjURuT6Gi8w9snY3Np7IkaR2fHAANj+wpNOf7T5fgpd3Hsep4ipJzk2d06jVWDQ8Hr+ZMbxHO2Smrt6A3EpprloWDe+H566bLEltcn0MF5mra2nHvNXrUdvcJkn9d3855ycdbrPKavC3rw7iaP5FSc5HPaPXanB9Sn/cPW1Yl4sW92aX4vb/bJPk/IE+nvj6gaUI4FbGZCN2RZa5AG8PSaeAfrAvE8ClfT+e2ngAy17fxGCRgQ6jCR/uP4u5L6zDRweyYO7kO+CH+89Kdv7HF45jsJBdeOWiEE98uR+fHjonvK5arcJvpg/Hf/dloq6FU4rlalBEHzy5aPz/9rApqmnEnBfXSdL5YMWYJDy1eLzwuuReGC4K0WE0YeVbm/lg/TIqlQoB3h7w89TDQ6uBh1YD/ff/1GrU6DCa0G40oc1g/N//rm/tQFNbh7OHbhO1WoXrRvfHg7NH4cP9ZyVpcpoc3gef3JXK/VrIbgwXBSmqacSy1zahUaEfjtZSqVSICPBFfIg/+gX7IzbIH6G9vBHk64VgPy/08fWyqUNvm8GEisYWVDZe2iPmYkMLcivrkV1Rh5yKOtlfwfX28YS3Xie8m7Sfpx7r7l2IKLZ4IQEYLgqzPbMQ961Jh6v9talUKsQF9cKI6BCMiA7BoIg+iAvyh6fO8d+gq5vbkF1RhzMl1ThWUIHjhRWoFrwHvdyoVCq8fMM0zLJhYS1RZxguCvTO7tN4fssRZw/Dbv1CAjClfyTGxvfF8OgQ+HtJ363ZVgXVjThacBGH88qx63yJy4XNw3NH4/bJg509DHIhDBeFeibtEN7/fqaXUui1GozrF4Yp/SMxNSkSEYFXX8chRxYLkFFciW+zipCeVYRz5bXOHpJdbpmQjEfnj3H2MMjFMFwUymIBHvz0O3x9Ks/ZQ+mWSqVCSmwoFo/ohzmDY+HroXP2kIQrqW3CxhM52HA8BwXVDc4ejlXmDYnDCyumoIddgIh6jOGiYAaTGXd/sBN7LpQ4eyhXiA3qhWUjE7FweDzC/H2cPRyHOV5YgXXHsvH1qXzZz0qblBiBN26e4fTdM8k1MVwUzmAy48FPv8P2MwXOHgpUKhUmJoTjFxOScY2b96NqM5iw4Xg23t+bibyqemcP5wqzBsXghRVTGCwkGYaLCzBbLPjTur3YcEya7ZGvxlOnxdKRCbh5/ECrmi66i/SsYvxnz2kcyit39lAAAEtGJuDpZRN73BGbyBYMFxfy6Bd7sN6BAaPXarByTBLunDKEG0n1wJnSary04zh2nSt22hhunTgIf0xNcdr5yX0wXFzEkfyLuPfDbxyyK6Req8G1oxJx99Shdm905Y6OFVTghW1HccSBPdy8PbT4+9KJSB0S57BzkntjuLiAzafy8MfP96DDaJL8XHMHx+KReSkID3Cfh/RS2X2+BP/cdhRZZTWSnysy0A8f3DHXrSZXkHMxXBRu/bFs/Hn9XkkaGF4uMTQQjy0Yi7HxfSU9j7sxWyxYczALL20/Lnlbn1B/H7xz6ywkhARIeh4igOGiaF8cvYDH1u+TtBWMn6cev505AjeOHQCNDX28qGeqmlrx7ObD2JSRK+l5/L088N7tczDQhi2ViazBcFGozw6fxxNf7pc0WCb3j8Dfl05EKJ+rOMzBvHI8vn6fpIsxA7098d875iKRVzAkIYaLAn1y6Bye2nhAsmDx9dDhkXkpuD6lvyT1qXutBiOeSTuMzw6L37/nB0G+XvjgjnmIC+ol2TnIvTFcFOaLo9l4bP1eyYJlbHwYnr52Yo/2bydpfZNVhMfW7UWNRFtch/byxod3zGOLfZIEw0VBdp0vwT0f7oTRZBZeW6VS4e5pw/Db6cPZZ0pGaprb8OgXe/CdRGtjwgN88eEd8zj7j4RjuCjEqeIq3PLOVrR0GITXDvD2wPPXXYPJbt6yRc5e2XkCr6dnSHLF2i8kAJ/+er5LNhUl52G4KEBhTSNWvpkmye2RIZFBeGnVNH5zVYBvsorwyNrdkjTEnJAQjn/dMoszAkkYhovM1TS3YcWbaSiqEbulLQCkDo3Ds8sns3mhguRV1ePeD79BbqX4ZpjXpyThr0vGC69L7omfKjJmNFvwm4/SJQmWX10zhF1xFSguyB+f3b0AY+LEL2b97PA5vLvnjPC65J74ySJjz24+jGMFYvtPadRqPLl4PH4/Z5TQuuQ4vh46/PvWWZg1KEZ47f/begQ7zxYKr0vuh+EiU5sycvHBfrHbGHvotHjtpulYOSZJaF1yPL1Wg5dWTcUKwX+XZrMFf1i7G4USXC2Te2G4yNC58lr8Zf0+oTU9dFq8ftN0TE2KFFqXnEetUuGpxeNxz7RhQus2tRvwwMffwiDBlHdyHwwXmWlo68BvPvoGbQajsJqeOi3evHkGJiaEC6tJ8nHfzBHCAyaztBrPbD4ktCa5F4aLzDy+YZ/QB/heei3e+sVMjO8XJqwmyc99M0fg9smDhdZccyALW07nC61J7oPhIiObMnKx5ZS4X2a9VoM3bp7BNvlu4uG5o3Hz+GShNR9bL/bLDrkPhotMXGxowd82HRRWT6VS4ZlrJ2FcPK9Y3MmfF4zB8tHiGo42tXXgkbW7wdVwZC2Gi0w8+sUeNAjcoviReaMxfyi3tHVHTy0eL7SVz/HCCnxw4KyweuQeGC4y8OGBs9iXXSqs3q0TB+G2iYOE1SNl0ahVWL1yKhJDA4XVXL3tGEpqm4TVI9fHcJEBvUYDH0FNA2ckR+OPqSlCapFy+Xjo8NYvZiLI10tIvZYOAx4TPD2eXBvDRQauT+mPr+5fgsn97VuDEhfkj+eWTxY0KlK68AAfvH7zDHjotELq7c8pxRdHLwipRa6P4SITYf4++NctM/H89dcg0NvT6uN9PHR49abpwq6AyDUMjQzCn+ePEVbvowNZwmqRa2NXZBmqbWnH3zcdRNrJ3B4fs3rVVMwdHCvhqEjJHvp0l1Xvp5/TazX41eTBuGvqUHhoNQJHRq6K4SJj354rxpNf7kd5fXO3r7tlQjIeFfjtlFxPc4cR1762EflVDVYfOykxAn9ZOA4xfbgdMvUcw0XmmtsN+L+tR/HJoXOd7kKYEBKAdfcuhJ7fJukqsspqcP2baegwmnr0+r7+PvhjagqviMkmDBeFOFpQgcfW7UVe1Y+bROk0anx29wIMDOvtxJGRkry/LxPPpHXfM0yrUeOWCcm4d/pweOvFTAYg98NwUZAOowmvpWfgnd2nYTSZ8cCskfj11KHOHhYpiMUCrHp7M04UVnT685S4vnhi0TgkhAQ4eGTkahguCpRVVoM1B8/hycXjoFZxz3OyTm5lPZa8uvEnt8eCfL3wyLzRWDS8nxNHRq6E4ULkht789iRWbz8GtVqFVWMG4IFZI+DnqXf2sMiF8IYqkRu645ohKKxpxE3jBiI5nM/sSDxeuRARkXBcoU9ERMIxXIiISDiGCxERCcdwISIi4RguREQkHMOFiIiEY7gQEZFwil5EeTC3HAaTWUitvv7ekvRTqmpqRVZZrbB6w6OD4WvHhmBl9c3Iqai/+gtlKjm8N3r7WL+ZGgA0tnUgo6hK2FgGhvdGHxvH4ih7s0shciXboIg+CPT2EFfQCqV1zcitFPfe9dZrMTImRFg9+ilFh8tv16SjobVdSK3loxPx96UThdS63JH8i3jg42+F1Vt79wIMiQyy+fj0rCL8deMBYeNxtFdvnI6ZydE2HZtTWY9fvbdN2FhevmEaZg+KEVZPCne+vwMms5gvYABw++TBeHjuaGH1rPHc14ex5XS+sHrxwf7Y/MBSYfXop3hbjIh6bOOJXJid0NSjsa0D32QVOfy8ZDuGCxH1WGVjC3adL3H4ebeczu/xJmckDwwXIrLKuqMXHH7OL4/nOPycZB+GCxFZ5dtzxagT9KyzJ0rqmnC0oPPNzUi+GC5EZJUOowmbTuQ67HwbT+SCzduVh+FCRFZbdyzbYefadIK3xJSI4UJEVjtbWo1z5eLWb3XlVHGV0LUt5DgMFyKyyRcOeLD/Ja9aFIvhQkQ22ZSRC6NZumchJrMFaSfzJKtP0mK4EJFNapvbkC7hwsZd50tQ29wmWX2SFsOFiGwm5ZqXL084btIAicdwISKb7b5QgmoJri6a2g1IzyoWXpcch+FCRDYzmsySrJ7fciof7Qaj8LrkOAwXIrKLFLfGOEtM+RguRGSX7Io6nCoWt09OaV0zjuRfFFaPnEPR+7mQ8627dxHCA30cdj4fve0bpZF01h3LtmufocttPJHDdi8ugOFCdvH30iPAyzk7E5J8pJ3Mw6OpKdBrNXbX2ujAvmUkHd4WIyK7NbS2Y8fZQrvrnC6pRm5lnYARkbMxXIhIiHVH7V+XspEP8l0Gw4WIhNiXU4qLDS02H28yW/BVBm+JuQqGCxEJYTZbsMGONS97LpSghu1eXAbDhYiEWX/M9jUvXNviWhguRCRMflUDjtmwJXFzuwHfnJWuCSY5HsOFiIRaZ8PVy5bTBWhjuxeXwnAhok5NSYq0ad3KllP5aDOYrDrGllliKXF9EejtafVx5BgMFyLqVLCfFyYnRlh9XFO7AVtP5/f49WX1zTiUV271eX4xIRnNHQarjyPH4Ar97+08W4Rz5V8Jr1vf2iG8ppx8e64YfXyl+/Y4rl8YOwA4SXFtE5aP7o+dNiyOXHcsG4tH9OvRazedyLW63Yu/lwcGhvVGh9G6KyRyHIbL92qb27jrnQ3+tumApPU/+fV8DI8KlvQc1Lni2iZMHxAFT53W6uchh/LKUVLbhIhA36u+1pZZYnMGx6LCjjU1JD3eFiOiTpXXN8NDq8HUAZFWH2uxWLD++NVX7J8prUZOhfXtXhYOj0dxbaPVx5HjMFyIqFNGkxnl9c1IHRJn0/Ebjl39isSWJpVhAT5IiQ1FUU2TLcMiB2G4EFGXimobMTUpEr4e1m91UFzbiIyiym5fs+VUntV15w+N/199ki+GCxF1qbSuGXqtBtMHRtt0/Nenup41diT/ok29yBYNvxQuZXXNNo2JHIPhQkRdKq+/9AGeOtS2W2NbupmS3F3wdKV/aCD6hwYCuDSFmeSL4UJEXfrhA3xSYgT8bZgSXl7f3Gk7GLPFYtVamB8s/P6qBQDKOVtM1hguRNSlH65ctGoVZg2KsanG5k6eqxzOu4iqplar6qhUKiwYdilcaprb0M52MbLGcCGiLl3+XMPWW2NbTxfg52skOwucqxkVE4Iwf59L4+ItMdljuBBRl8ov+xAfF98XfXy9rK5R2diCQ/k/tncxmS3YdrrA6joLh/+44r+c4SJ7DBci6lJTuwFN7Zf6d6lVKsy28dbY1yd/vFLZn1OG2hbrumHotRrMHRz7v38vr+fzFrljuBBRtyobf3w2Mt/WW2NnCmAyX7o39rUNt8QmJ0bA30v/v3+39nkNOR7DhYi6dfnWw6NjQxH6/XMPa9Q2t+FAbhkMJjO2Z1rfCPPyWWIAw0UJGC5E1K2ff5BffnvKGl+fysPe7FI0tLZbdZyvhw7TBkT95M+qGS6yx3Ahom79/IN8gR2zxl7Zedzq42YPjoXHzzYtq2piB3O5Y7gQUbd+/kE+JDIIA8J6W12nsa0DZ0qqrT5uRUr/K/6MVy7yx/1cvjclKRK/umaI8LoHc8vw6s4TwuvKxdYHr+3Rnh220qpVktWmnunsg3zV2AF4YsM+yc89MLwPhnWynw+vXOSP4fK9YD8vpMSGCq/r6t+wtGoVA8DFVXfyQb5wWDye33IETW3S7rS6akzSFX/W3GHk6nwF4G0xIupWfScP4L31Wiwe3rNtjG3l66m/YpYYAKsnBJBzMFyIqFsNrZ1fnawce+VVhUhLRvSDl+7KmytdjYfkheFCRN1qaOv8SiExJACjJbiV/INVYwd0MR6GixIwXIioW20GU5c/6yoA7JUS1xf9gv07H08Hn7coAcOFiLplMJm7/NnsQTE2NbO8mhu6Ca3uxkPywXAhom5192Gu06ixfHSi0PMF+Xp1u3eMwcxwUQKGCxF1y/LzzVh+5vqU/lALnI6+fHRit9PbrzYekgeGCxHZJSLAF9f0jxRSS61W4foUaWehkWMwXIjIbt09I7HG1KRIhAdY33WZ5IfhQkR2m5wYgchAP7vrrBojzewzcjyGCxHZTaUCVoy5ssGkNSJ7+2FSYoSgEZGzsbcY2eXXH+yEXuvY7yi3TEjGIolbj/TEc1uO4K3vTjrsfI8tGIcR0Vc2cZSL5aP745WdJ9Bh7HpdTHdWpiRBxTZ1LoPhQna5cLHW4eeUS0fc4ppGFDvwfM3t8l6ZHujtgTmDYrApI9fqY/VaDa4VPKWZnIu3xYhIGFtX7M8dHItAbw/BoyFnYrgQkTAjY0LQPzTQ6uNWSdwEkxyP4UJEQll79ZLUNxAjokMkGg05C8OFiIRaNKIffDx0PX69VM0vybkYLkQklI9e2+PZfL4eOiyUwcw/Eo/hQkTC9fQZysLh/eCj56RVV8RwISLh+ocGYmTM1Z+j8JaY62K4EJEkrhYco2JD0T80wEGjIUfj9SgRSWLu4FhcuFgHCzpvkT81KcrBIyJHYrgQkSR0GjUenD3S2cMgJ+FtMSIiEo7hQkREwjFciIhIOIYLEREJp+gH+jeOG4A2g1FIrWFR0uyTERfkj9smDRJWL8jPy67jB4b1FjoeZxgc0cem40L8vBX9/z0i0NfqY26dmAyzpfPZWj2lUcvrO6io36k+Pvb9LlH3VBaLne88IiKin5HXVxIiInIJDBciIhKO4UJERMIxXIiISDiGCxERCcdwISIi4RguREQkHMOFiIiEY7goWHOHEWX1zc4eBinIwbxytBlMzh4GuQGGi0IdK6jA4le+xB3vbUdLh5gWOOTaMooqccd727H01Y04VVzl7OGQi2P7F4UxmMx4eedxvLP7NMzmS391c4fEYvXKqU4eGclZTXMblr62CRe/v9LVatS4a8pQ3DNtGDRqlZNHR66I4aIgFyrq8PBnu5BVVnPFzx6eOxq3Tx7shFGR3JnMFtz27lYcyiu/4mdDIoPw3HWTERfk74SRkStjuCjEe3sz8cK2o+gwdn6/XKNW493bZmNsfF8Hj4zk7tmvD+M/e850+XNPnRa/nzsKN40b6MBRkatjuMhcWX0zHv18Dw7kll31tb19PLHu3kXo6+/tgJGREmw5nY8HPv62R6+dkBCOZ66dhNBefP+Q/RguMrYpIxd/3XgAjW0dPT5mSGQQ1tyZCp2GczXcXXZFHa5/Iw0tHYYeH9PLywOPLxqHBUPjJBwZuQOGiwzVt3bgiQ37sOV0vk3HX5fSH39bMkHwqEhJmtsNWP76V8irqrfp+HlD4vDk4vHw99ILHhm5C4aLzOy5UII/rduLioYWu+o8tWQCVl8BDhoAABILSURBVKT0FzQqUhKzxYLffpSOnWcL7aoT2ssb/1g2CZMSwwWNjNwJw0VGnvv6CN7dc1pILbVahWeXT8bCYfFC6pEymC0WPLJ2N77KyBVW89H5Y3DLhGRh9cg98Ma8jMQF9xJWy2y24A+f78bGEznCapK8SREsvh46TBsQJaweuQ+Gi4xcN7o/5g8Vd6VhNlvwxy/24MvjDBhXJ0WwAJdur0b39hNak9wDw0Vm/rpkPKL7iL2CeXTdHmxgwLgss8WChz8THyzLR/fHfM4aIxsxXGTGx0OHF1dOgV6rEVbTbLbgTwwYl/RDsKSdFBssCSEBeGzBWKE1yb0wXGRoUHgfPDx3tNCaPwTM+mPZQuuS80gVLN56HVavmgpPnbgvOOR+GC4ydfP4gVg+OlFoTbPZgj+v34t1DBjFM5kt+P1nu4QHi0qlwvPXT0ZCSIDQuuR+GC4y9uTiCUiJE9srzGy24M/r9uKNb08KrUuO09jWgTvf347NJ/OE135w9kjMGBgtvC65H65zkbm61nZc/0YaCqsbhNdeMCweTy+bKPT5DkmroLoRd3+wA7mVtq28787iEQl4dvkk4XXJPTFcFCC3sh4r3kyzqsdYTw2NCsZrN05HsJ+X8Nok1sHccty3Jh31re3Ca4+MCcH7t89lTzoShuGiEPtzynDXf3d02XLfHqH+Pvjn9ddgdGyo8Nokxju7T+PF7cdgNJmF144L8seau1IR6O0hvDa5L4aLguzILMT9H38Lk1n8B4xGrca904fh7qnDoOLGhLJR29KOR9buxu7zxZLUDw/wxZo7U7lNAwnHcFGYjSdy8IfP90Cqv7ax8WF4/vprEMLbZE53MK8cD3+2y+4mpl0J8vXCR3emIqYPV+CTeAwXBfr44Dk8tXG/ZPUDfTzxl4VjkTqEq7Odod1owss7juM/e8/AbJbm19PfywMf3DEP/UM55ZikwXBRqHd2n8bzW45Ieo7pA6Pw5KLxCOHOhA5zKK8cf1m/DwUSzA78ga+HDu/+cg6GRgZJdg4ihouCvb8vE/9v82HJbpEBgK+nHg/PHc29YSTW1G7A81uO4LPD5yX9+wz09sS/bp2FwRF9JDsHEcBwUbwvjmbj8Q37JHnIf7lhUcF4dP4YDI8KlvQ87sZiAb44egGrtx9DVVOrpOfy99JjzV3z0S/YX9LzEAEMF5ew9UwBHv5slyTTlH9u/tB4PDRnFMIDfCQ/l6s7kFuGZ9IO41x5jcPOeevEQfhjaorDzkfui+HiAswWC25/bzv2Z5c65HweOi1+MWEgbp88GAFeXBthrXPltXhpxzF8c7bIKedfMjIBTy+bCDXnnJOEGC4KZzCZ8eCn32H7mQKHn9vHQ4dVYwfgtkmD0MfH0+HnV5rTJdV4Iz0D32QVSfpcpSdmDYrBCyumcEU+SYbhomAGkxl3f7ATey6UOHUcnjotVqT0x22TBnMxXieOFVTgze9OYtc5aRZC2mpSYgTeuHkGA4YkwXBRKIsFePDT7/D1KfGdcW2lUasxbUAUbhw3AOP7hTl7OE7VZjBhU0YO1hw8h7Ol1c4eTpfmDYnDCyumsCsDCcdwUahn0g7h/X2Zzh5Gl+KD/bFy7AAsGhaPADfqWZVdUYe1Ry5g/bFsNEjQYFIKt0xIxqPzxzh7GORiGC4K5IgFlKJoNWpMSAjHgqFxmJEcAx+91tlDEq6krglpGXlIO5mLc+W1zh6OTR6eOxq3Tx7s7GGQC2G4KMz2zELctybd6Q+EbeGh02JqUiSmJkViUmKEotv8n79Yi93nS7AjsxDHCyucPRy7qVQqvHzDNMxK5kZhJAbDRUGKahqx7LVNkuzr4gwDwnpjcv8ITEqMwLDIYFnv2V7d3IbDeeXYfb4Eey6U4KJEzSSdyc9Tj3X3LkRUbzayJPsxXBSiw2jCyrc2I1PGD4ftodWo0T80EMOigjEsKhhDI4MQG9TLKWsxWg1GnCuvxcmiSpwoqsTJoioU1zY6fBzOkBzeB5/clcrdScluDBeFeOLL/fj00DlnD8Oh9FoNonr7IT7YH3FB/ogL6oXwAF/08fVEkJ+XzQs4jWYLappaUdXUhqqmVhTVNCKvqh55lfXIrapHeX2LrG87Bvl64e5pw/CPtIOSdE1eMSYJTy0eL7wuuRfXe7rqgr4+lS9ZsPh66tEk09tsHUYTcirqkFNR1+nPtRo1+vh6oZenHh5aDfRaDTy0GnjoNNCoVegwmtFhNKHDaEK70YQ2gwm1zW2oa22XdXh0Z9moRPwxNQW9PPXYc6EE6VniV/l/eugcxsWHYd6QWOG1yX3wykXm6lraMW/1etQ2t0lS/1+3zsa5shq8ln4CrR1GSc5B9ovu0wtPLBqHiQnh//uzfTll+OW7WyU5X6CPJ75+YKlbTSMnsbg0V+aeTjskWbDEBwdgcmI4fnXNYGz93TIsGZkAFVfTyYqfpx6PzEtB2v1LfhIsADChXxjig6XZ7Ku2uQ1Ppx2SpDa5B4aLjO0+X4KNJ3Ikq3/5uoaQXt74f9dOwuf3LEBKXF/Jzkk9o1GrsWrsAGx/6Fr8ctKgLlu0SLk2ZeOJHOw+79zWQqRcvC0mUy0dRix4aQNK65okqd8vJACb7lvc5Wys7ZmFeGHrUeRV1Utyfura1AFReHju6B7tu2K2WLDw5S+7fC5lr/AAX3x1/xJ4u+DiV5IWr1xk6t+7TkkWLADw4OyR3U7znZUcjc0PLMU/V0xBYmigZOOgS1QqFWYkR+OLexfizZtn9HhDL7VKhd/NGinZuErrmvDvXackq0+ui1cuMlTV1IrZ/1yHlg6DJPWHR4fgk7tSrTpm25kCvPHtSVk3YVQitVqF2YNicM+0YehvR4ivfGszTkjUKcBbr8O2h5YhyFe5HRXI8RguMvTUxgP4+GCWZPU/ujMVo2JCbDr223PF+HD/WezNLlXsdF458NbrsHB4PG6ZkIx4AdsOHy2owI1vbxYwss7dMG4AHl84TrL65HoYLjJTWNOI+avXw2AyS1J/+ehE/H3pRLvrFFQ3Ys3BLEV1/5WD+GB/rBo7AEtHJsDXQye09mPr9+LzIxeE1vyBTqNG2gNLEc3WMNRDDBeZ+cPne/Dl8WxJagf7eSPtgSXo5akXVrPNYMJXGblYe+Q8MooqhdV1JR46LaYlRWLFmCRJ97lpaOvA/NUbUNkoTd+zxSMS8OzySZLUJtfDcJGR6uY2THtuLTqMJknqv3TDNMwZFCNJbQAorm1C2sk8pGXk4vxFZbaeF0WrUWN8vzDMHxqPWcnR8BF8ldKVrWcKcP+adElq67UapD9yHbe0ph5huMjIa99k4JWdxyWpPTM5Bq/eOE2S2p25UFGHtIxc7DxbhAtuEjR6rQYjo0MwZ3As5g6JRaCTVrf/5qN07MgskKT2b2eMwL3Th0lSm1wLw0UmjGYLpj23VpJbGsF+3tjw20VO+8ZZXt+CPRdKsPtCCfZll7rMlgEAENnbD5MTIzC5fwTGxYfJYj1IdXMblryyUbL3Uvoj10GrZicH6h7DRSa+PpWP333yrfC6GrUa790+BymxocJr28JktiCjqBJH8i8io/hSO3upnhGIplKpEBfkj+HRl7YFGBvfF7F9ejl7WJ06nH8Rt76zFSaz+IkhL66cyqaWdFXO/5pFAIAtp/MlqXv/zBGyCRYA0KhVGBkTgpGXTYUurWtGRlElMooqceFirSza3uu1GkT39kNcsD+Sw3pj6Pd7zPgJnAwhpZTYUNw/cwRe2HZUeO0tp/MZLnRVDBcZ6DCasOeC+B5OU5IiceeUIcLrihYe4IPwAJ+ffGC1GUzIr7q0v0peZQPK6ptQ2diK6qY2VDa1oqapVch07YgAHwyKCEKQnxeievshLsgf8cH+iAz0dcpGZSLdOWUIjhZcxHfnioXW3XOhBB1GEzcUo24xXGRgX04ZmtvFrsaPDeqF5667RmhNR/LUaTAgrDcGhPXu8jXLXt+EzBL7OgYMjgzGS6um2lVDzp69bjJWvpmG/KoGYTWb2w3Yl1OGqUmRwmqS62FvMRkQ/c0yyNcL/751Nvy9lHELxxZGswXZF+1v1niy2LXX5gR4eeDft84W3rpF9HuWXA/DRQbOltUIq+XjocPbt8xCZKCvsJpydK68Rsh6oLK6ZlRLtF+OXEQG+uLtW2YJXWsj8j1LronhIgOi1oHoNGq8fMM0JId3fSvJVZyx83bY5ey9taYEyeG98fIN07rcF8Za7rJ2iWzHcHGyktomIc9b9FoNVq+aesVuha6quFbcdgQia8nZxIRwrF41VciD+OZ2A0rc5L8b2Ybh4mS1LfY3ffTW6/D2LTMxY2C0gBEpg8i9bkok3DdHbmYMjMbbt8yEt97+W2Qi3rvkuhguTmbvbFd/Lw/855ezMS5euoaIclRa1yywlvuECwCMiw/Df345G/5e9rWnUfhMbZIYw8XJVLD9NzQ+OABr7krFsKhggSNSBpGBUCYwqJRiWFQw1tyVatdeMva8d8n1MVycLCaol00PWVOHxuHzexb0eDtcV1MhsGXMxQZltJ8RrV+wPz6/ZyFSh8ZZfaxOo0ZMkDxb35A8MFyczEevxSgr2rN463V4fNE4vLBiiiyaJDpDm8EEs1lcaxiptpNWAm+9Fi+smILHF42z6jnMqNhQ+Ljp+496huEiA78YnwzVVW5gq1QqLBreD1t+txQ3jB3goJHJU5vBKLReq0Ga/XOU5IaxA7Dld0uxaHi/Hr0XfzE+2UEjI6ViuMjA9IFR+N2skZ3+zEOnxdwhsfjkrlQ8d91khPTydvDo5KdVcLi0G4xgb3AgpJc3nrtuMj65KxVzh8TCQ9f5lcnvZo3E9IFRDh4dKQ1b7stIRlEltmcWorXDCH8vPWL69MJMB+5iqBR5VQ2Y9+I6oTWPP3kTvLr4MHVXze0G7MgsREF1A+pbO+Cl12JWcrRbTiAh6/G3SUaGRQXzF7cHRN8WA4B2g4nh8jM+HjosHtHP2cMgheJtMVIcraAWJpfTcGdFIqEYLqQ4UlxhePKqhUgohgspjqdO7CZVGrVaWENHIrqEv1GkOKKvXLwEhxURMVxIgUTfwuItMSLxGC6kOBq1Cr6e4nbZDPC2r4EjEV2J4UKKFO7vI66Wi+/aSeQMDBdSJJGBEBHAcCESjeFCihQeIO7KJUzgVRARXcJwIUUK9xd3tcHbYkTiMVxIkfqFBAirleCme+IQSYnhQoo0NCpISB1PnRaJoYFCahHRjxgupEh9fDwRJuC5S3J4b/YVI5IAw4UUa2ik/R2kh0SIuQIiop9iuJBiDY+2P1yGR4cIGAkR/RzDhRRr+oBou47XazWY3D9C0GiI6HIMF1KsmD5+dj2MHxsfBl/u8kkkCYYLKdqsZNuvXuw5loi6x3AhRUsdGmfTcXqtBrMGxQgeDRH9gOFCipYQEoApSZFWH7d0ZAIC2Q2ZSDIMF1K8O64ZYtXr1WoVbp88WKLREBHAcCEXMDo2FKNjQ3v8+vlD4hDd20/CERERw4VcwtPXToJPD2Z+Bft5488LxjpgRETujeFCLiG6tx/+NL/70FCpVHjm2knceZLIARgu5DKuHZWAe6YN6/RnarUKTywah0mJ4Q4eFZF7UlksFouzB0EkUnpWMV7ZeRyZpdVQqVQYGROCh2aPwsgYtnohchSGC7mslg4jNGoVPLQaZw+FyO0wXIiISDg+cyEiIuEYLkREJBzDhYiIhGO4EBGRcAwXIiISjuFCRETCMVyIiEg4hgsREQnHcCEiIuEYLkREJBzDhYiIhGO4EBGRcAwXIiISjuFCRETCMVyIiEg4hgsREQnHcCEiIuEYLkREJBzDhYiIhGO4EBGRcAwXIiISjuFCRETCMVyIiEg4hgsREQnHcCEiIuEYLkREJBzDhYiIhGO4EBGRcAwXIiISjuFCRETCMVyIiEg4hgsREQnHcCEiIuEYLkREJBzDhYiIhGO4EBGRcAwXIiISjuFCRETCMVyIiEg4hgsREQnHcCEiIuEYLkREJBzDhYiIhGO4EBGRcAwXIiISjuFCRETCMVyIiEg4hgsREQnHcCEiIuEYLkREJBzDhYiIhGO4EBGRcAwXIiISjuFCRETCMVyIiEg4hgsREQnHcCEiIuEYLkREJBzDhYiIhGO4EBGRcAwXIiISjuFCRETCMVyIiEi4/w+07TTupVxU5AAAAABJRU5ErkJggg==;fontFamily=Helvetica;fontSize=25;fontColor=#000000;" parent="1" vertex="1">
                    <mxGeometry x="40658.77" y="18615" width="139.9" height="132" as="geometry"/>
                </mxCell>
                <mxCell id="QgR1jz5Ba6JC49zfSx_E-145" value="" style="edgeStyle=orthogonalEdgeStyle;rounded=0;orthogonalLoop=1;jettySize=auto;html=1;fontSize=38;fontColor=#000000;startArrow=none;startFill=0;endArrow=block;endFill=1;strokeWidth=5;fillColor=#60a917;strokeColor=#2D7600;fontFamily=Helvetica;" parent="1" source="QgR1jz5Ba6JC49zfSx_E-146" edge="1">
                    <mxGeometry relative="1" as="geometry">
                        <mxPoint x="38997.119999999995" y="16422" as="targetPoint"/>
                    </mxGeometry>
                </mxCell>
                <mxCell id="QgR1jz5Ba6JC49zfSx_E-146" value="" style="verticalLabelPosition=bottom;html=1;verticalAlign=top;align=center;strokeColor=none;fillColor=#00BEF2;shape=mxgraph.azure.user;labelBackgroundColor=default;fontSize=38;fontColor=#000000;fontFamily=Helvetica;" parent="1" vertex="1">
                    <mxGeometry x="38941.02" y="16193" width="112.51" height="102.92" as="geometry"/>
                </mxCell>
                <mxCell id="QgR1jz5Ba6JC49zfSx_E-147" value="" style="rounded=1;whiteSpace=wrap;html=1;labelBackgroundColor=default;fontSize=38;strokeWidth=4;fillColor=#bac8d3;strokeColor=#23445d;fontFamily=Helvetica;fontColor=#000000;" parent="1" vertex="1">
                    <mxGeometry x="38904.1" y="17065.86" width="176.61" height="100" as="geometry"/>
                </mxCell>
                <mxCell id="QgR1jz5Ba6JC49zfSx_E-148" style="edgeStyle=orthogonalEdgeStyle;rounded=0;orthogonalLoop=1;jettySize=auto;html=1;fontSize=38;fontColor=#000000;startArrow=classic;startFill=1;endArrow=classic;endFill=1;strokeColor=#2D7600;strokeWidth=5;fillColor=#60a917;fontFamily=Helvetica;" parent="1" source="QgR1jz5Ba6JC49zfSx_E-149" target="QgR1jz5Ba6JC49zfSx_E-150" edge="1">
                    <mxGeometry relative="1" as="geometry">
                        <mxPoint x="39605.44" y="16869.34" as="targetPoint"/>
                    </mxGeometry>
                </mxCell>
                <mxCell id="QgR1jz5Ba6JC49zfSx_E-149" value="" style="rounded=1;whiteSpace=wrap;html=1;labelBackgroundColor=default;fontSize=38;strokeWidth=4;fillColor=#bac8d3;strokeColor=#23445d;fontFamily=Helvetica;fontColor=#000000;" parent="1" vertex="1">
                    <mxGeometry x="39328.83" y="16820.170000000002" width="176.61" height="98.34" as="geometry"/>
                </mxCell>
                <mxCell id="QgR1jz5Ba6JC49zfSx_E-150" value="" style="sketch=0;aspect=fixed;html=1;points=[];align=center;image;fontSize=38;image=img/lib/mscae/BlobBlock.svg;labelBackgroundColor=default;fontColor=#000000;strokeWidth=4;fillColor=none;fontFamily=Helvetica;" parent="1" vertex="1">
                    <mxGeometry x="39710.13" y="16809.34" width="142.86" height="120" as="geometry"/>
                </mxCell>
                <mxCell id="QgR1jz5Ba6JC49zfSx_E-151" value="Azure Blob storage" style="text;html=1;strokeColor=none;fillColor=none;align=center;verticalAlign=middle;whiteSpace=wrap;rounded=0;fontSize=38;strokeWidth=1;dashed=1;fontColor=#000000;fontFamily=Helvetica;" parent="1" vertex="1">
                    <mxGeometry x="39584.71" y="16939.34" width="371.8" height="54.36" as="geometry"/>
                </mxCell>
                <mxCell id="QgR1jz5Ba6JC49zfSx_E-152" value="Azure Front door" style="text;html=1;strokeColor=none;fillColor=none;align=center;verticalAlign=middle;whiteSpace=wrap;rounded=0;fontSize=38;strokeWidth=1;dashed=1;fontColor=#000000;fontFamily=Helvetica;" parent="1" vertex="1">
                    <mxGeometry x="38806.829999999994" y="16940.870000000003" width="371.8" height="54.36" as="geometry"/>
                </mxCell>
                <mxCell id="QgR1jz5Ba6JC49zfSx_E-153" value="Static Content" style="text;html=1;strokeColor=none;fillColor=none;align=center;verticalAlign=middle;whiteSpace=wrap;rounded=0;fontSize=38;strokeWidth=1;dashed=1;fontColor=#000000;fontFamily=Helvetica;" parent="1" vertex="1">
                    <mxGeometry x="39315.44" y="16844.34" width="198.8" height="50" as="geometry"/>
                </mxCell>
                <mxCell id="QgR1jz5Ba6JC49zfSx_E-154" value="Dynamic Content" style="text;html=1;strokeColor=none;fillColor=none;align=center;verticalAlign=middle;whiteSpace=wrap;rounded=0;fontSize=38;strokeWidth=1;dashed=1;fontColor=#000000;fontFamily=Helvetica;" parent="1" vertex="1">
                    <mxGeometry x="38903.69" y="17089.36" width="183.43" height="55" as="geometry"/>
                </mxCell>
                <mxCell id="QgR1jz5Ba6JC49zfSx_E-155" value="1" style="ellipse;whiteSpace=wrap;html=1;aspect=fixed;labelBackgroundColor=none;fontSize=38;strokeWidth=4;fontStyle=1;fillColor=#d5e8d4;strokeColor=#82b366;fontColor=#000000;fontFamily=Helvetica;" parent="1" vertex="1">
                    <mxGeometry x="39017.96" y="16325" width="70" height="70" as="geometry"/>
                </mxCell>
                <mxCell id="QgR1jz5Ba6JC49zfSx_E-156" value="2" style="ellipse;whiteSpace=wrap;html=1;aspect=fixed;labelBackgroundColor=none;fontSize=38;strokeWidth=4;fontStyle=1;fillColor=#d5e8d4;strokeColor=#82b366;fontColor=#000000;fontFamily=Helvetica;" parent="1" vertex="1">
                    <mxGeometry x="39019.39" y="16710" width="70" height="70" as="geometry"/>
                </mxCell>
                <mxCell id="QgR1jz5Ba6JC49zfSx_E-157" value="3" style="ellipse;whiteSpace=wrap;html=1;aspect=fixed;labelBackgroundColor=none;fontSize=38;strokeWidth=4;fontStyle=1;fillColor=#d5e8d4;strokeColor=#82b366;fontColor=#000000;fontFamily=Helvetica;" parent="1" vertex="1">
                    <mxGeometry x="39561.88" y="16775.96" width="70" height="70" as="geometry"/>
                </mxCell>
                <mxCell id="QgR1jz5Ba6JC49zfSx_E-159" style="edgeStyle=orthogonalEdgeStyle;rounded=0;orthogonalLoop=1;jettySize=auto;html=1;exitX=0.5;exitY=1;exitDx=0;exitDy=0;fontFamily=Helvetica;fontSize=38;fontColor=#000000;" parent="1" source="QgR1jz5Ba6JC49zfSx_E-102" target="QgR1jz5Ba6JC49zfSx_E-102" edge="1">
                    <mxGeometry relative="1" as="geometry"/>
                </mxCell>
                <mxCell id="QgR1jz5Ba6JC49zfSx_E-163" value="http://&amp;lt;kubernetes ingress&amp;gt;" style="text;html=1;strokeColor=none;fillColor=none;align=center;verticalAlign=middle;whiteSpace=wrap;rounded=0;strokeWidth=6;fontSize=38;fontColor=#000000;fontFamily=Helvetica;" parent="1" vertex="1">
                    <mxGeometry x="38607.90000000001" y="18400" width="468.25" height="30" as="geometry"/>
                </mxCell>
                <mxCell id="QgR1jz5Ba6JC49zfSx_E-202" style="edgeStyle=orthogonalEdgeStyle;rounded=0;orthogonalLoop=1;jettySize=auto;html=1;strokeWidth=5;fillColor=#60a917;strokeColor=#2D7600;fontFamily=Helvetica;fontSize=38;fontColor=#000000;" parent="1" source="QgR1jz5Ba6JC49zfSx_E-165" target="QgR1jz5Ba6JC49zfSx_E-200" edge="1">
                    <mxGeometry relative="1" as="geometry"/>
                </mxCell>
                <mxCell id="QgR1jz5Ba6JC49zfSx_E-165" value="" style="aspect=fixed;html=1;points=[];align=center;image;fontSize=38;image=img/lib/azure2/networking/Front_Doors.svg;fontFamily=Helvetica;fontColor=#000000;" parent="1" vertex="1">
                    <mxGeometry x="38925.1" y="16802.91" width="146.15" height="128.96" as="geometry"/>
                </mxCell>
                <mxCell id="QgR1jz5Ba6JC49zfSx_E-168" value="" style="aspect=fixed;html=1;points=[];align=center;image;fontSize=38;image=img/lib/azure2/identity/Azure_AD_B2C.svg;shadow=0;glass=0;fontColor=#000000;strokeColor=#6E92C4;strokeWidth=1;fillColor=none;fontFamily=Helvetica;" parent="1" vertex="1">
                    <mxGeometry x="38150.00000000001" y="18540" width="112.13" height="104" as="geometry"/>
                </mxCell>
                <mxCell id="QgR1jz5Ba6JC49zfSx_E-169" value="" style="aspect=fixed;html=1;points=[];align=center;image;fontSize=38;image=img/lib/azure2/identity/Azure_AD_B2C.svg;shadow=0;glass=0;fontColor=#000000;strokeColor=#6E92C4;strokeWidth=1;fillColor=none;fontFamily=Helvetica;" parent="1" vertex="1">
                    <mxGeometry x="38407.880000000005" y="18536.25" width="112.13" height="104" as="geometry"/>
                </mxCell>
                <mxCell id="QgR1jz5Ba6JC49zfSx_E-170" value="" style="aspect=fixed;html=1;points=[];align=center;image;fontSize=38;image=img/lib/azure2/identity/Azure_AD_B2C.svg;shadow=0;glass=0;fontColor=#000000;strokeColor=#6E92C4;strokeWidth=1;fillColor=none;fontFamily=Helvetica;" parent="1" vertex="1">
                    <mxGeometry x="38281.81000000001" y="18540" width="112.13" height="104" as="geometry"/>
                </mxCell>
                <mxCell id="QgR1jz5Ba6JC49zfSx_E-173" style="edgeStyle=orthogonalEdgeStyle;rounded=0;orthogonalLoop=1;jettySize=auto;html=1;fillColor=#60a917;strokeColor=#2D7600;strokeWidth=5;fontFamily=Helvetica;fontSize=38;fontColor=#000000;" parent="1" source="QgR1jz5Ba6JC49zfSx_E-171" target="QgR1jz5Ba6JC49zfSx_E-168" edge="1">
                    <mxGeometry relative="1" as="geometry"/>
                </mxCell>
                <mxCell id="QgR1jz5Ba6JC49zfSx_E-176" style="edgeStyle=orthogonalEdgeStyle;rounded=0;orthogonalLoop=1;jettySize=auto;html=1;fillColor=#60a917;strokeColor=#2D7600;strokeWidth=5;fontFamily=Helvetica;fontSize=38;fontColor=#000000;" parent="1" source="QgR1jz5Ba6JC49zfSx_E-171" target="QgR1jz5Ba6JC49zfSx_E-169" edge="1">
                    <mxGeometry relative="1" as="geometry"/>
                </mxCell>
                <mxCell id="QgR1jz5Ba6JC49zfSx_E-179" style="edgeStyle=orthogonalEdgeStyle;rounded=0;orthogonalLoop=1;jettySize=auto;html=1;strokeWidth=5;fillColor=#60a917;strokeColor=#2D7600;fontFamily=Helvetica;fontSize=38;fontColor=#000000;" parent="1" source="QgR1jz5Ba6JC49zfSx_E-171" target="QgR1jz5Ba6JC49zfSx_E-170" edge="1">
                    <mxGeometry relative="1" as="geometry"/>
                </mxCell>
                <mxCell id="QgR1jz5Ba6JC49zfSx_E-171" value="" style="aspect=fixed;html=1;points=[];align=center;image;fontSize=38;image=img/lib/azure2/identity/App_Registrations.svg;fontFamily=Helvetica;fontColor=#000000;" parent="1" vertex="1">
                    <mxGeometry x="38295.079999999994" y="18350" width="88.59" height="90" as="geometry"/>
                </mxCell>
                <mxCell id="QgR1jz5Ba6JC49zfSx_E-177" value="&amp;nbsp;AD 3" style="text;html=1;strokeColor=none;fillColor=none;align=center;verticalAlign=middle;whiteSpace=wrap;rounded=0;fontSize=38;fontColor=#000000;fontFamily=Helvetica;" parent="1" vertex="1">
                    <mxGeometry x="38422.259999999995" y="18657.27" width="100.87" height="22.73" as="geometry"/>
                </mxCell>
                <mxCell id="QgR1jz5Ba6JC49zfSx_E-178" value="&amp;nbsp;AD 1" style="text;html=1;strokeColor=none;fillColor=none;align=center;verticalAlign=middle;whiteSpace=wrap;rounded=0;fontSize=38;fontColor=#000000;fontFamily=Helvetica;" parent="1" vertex="1">
                    <mxGeometry x="38160.82" y="18657.27" width="101.31" height="22.73" as="geometry"/>
                </mxCell>
                <mxCell id="QgR1jz5Ba6JC49zfSx_E-197" value="" style="rounded=0;whiteSpace=wrap;html=1;fontSize=38;fillColor=none;arcSize=8;labelBackgroundColor=default;fontFamily=Helvetica;strokeWidth=5;fontColor=#000000;" parent="1" vertex="1">
                    <mxGeometry x="39924.09" y="18707" width="360" height="603" as="geometry"/>
                </mxCell>
                <mxCell id="QgR1jz5Ba6JC49zfSx_E-101" value="" style="sketch=0;aspect=fixed;html=1;points=[];align=center;image;fontSize=38;image=img/lib/mscae/SQL_Database_generic.svg;shadow=0;glass=0;fontColor=#000000;strokeColor=#6E92C4;strokeWidth=1;fillColor=none;fontFamily=Helvetica;" parent="1" vertex="1">
                    <mxGeometry x="40057.950000000004" y="18730.000000000004" width="76" height="100" as="geometry"/>
                </mxCell>
                <mxCell id="lQurSwyLrw8fbkpN2eua-7" value="" style="edgeStyle=orthogonalEdgeStyle;rounded=0;orthogonalLoop=1;jettySize=auto;html=1;strokeWidth=5;" parent="1" source="QgR1jz5Ba6JC49zfSx_E-102" target="lQurSwyLrw8fbkpN2eua-3" edge="1">
                    <mxGeometry relative="1" as="geometry"/>
                </mxCell>
                <mxCell id="QgR1jz5Ba6JC49zfSx_E-102" value="Azure Sql DB" style="text;html=1;strokeColor=none;fillColor=none;align=center;verticalAlign=middle;whiteSpace=wrap;rounded=0;fontSize=38;fontColor=#000000;labelBackgroundColor=default;fontFamily=Helvetica;" parent="1" vertex="1">
                    <mxGeometry x="39985.31" y="18841" width="234" height="30" as="geometry"/>
                </mxCell>
                <mxCell id="QgR1jz5Ba6JC49zfSx_E-198" value="" style="verticalLabelPosition=bottom;html=1;verticalAlign=top;align=center;strokeColor=none;fillColor=#00BEF2;shape=mxgraph.azure.virtual_network;pointerEvents=1;fontSize=38;fontFamily=Helvetica;fontColor=#000000;" parent="1" vertex="1">
                    <mxGeometry x="40230" y="19314" width="90.14" height="62.5" as="geometry"/>
                </mxCell>
                <mxCell id="QgR1jz5Ba6JC49zfSx_E-199" value="Virtual Network" style="text;html=1;strokeColor=none;fillColor=none;align=center;verticalAlign=middle;whiteSpace=wrap;rounded=0;dashed=1;fontSize=38;fontColor=#000000;fontStyle=0;fontFamily=Helvetica;" parent="1" vertex="1">
                    <mxGeometry x="40240.69000000001" y="19393.23" width="92.35" height="50" as="geometry"/>
                </mxCell>
                <mxCell id="QgR1jz5Ba6JC49zfSx_E-200" value="" style="aspect=fixed;html=1;points=[];align=center;image;fontSize=38;image=img/lib/azure2/security/Key_Vaults.svg;fontFamily=Helvetica;fontColor=#000000;" parent="1" vertex="1">
                    <mxGeometry x="38386.88" y="16801.87" width="130" height="130" as="geometry"/>
                </mxCell>
                <mxCell id="QgR1jz5Ba6JC49zfSx_E-201" value="Key Vault (Certificate)" style="text;html=1;strokeColor=none;fillColor=none;align=center;verticalAlign=middle;whiteSpace=wrap;rounded=0;dashed=1;fontSize=38;fontColor=#000000;fontStyle=0;fontFamily=Helvetica;" parent="1" vertex="1">
                    <mxGeometry x="38369.31" y="16983.699999999997" width="166.87" height="50" as="geometry"/>
                </mxCell>
                <mxCell id="QgR1jz5Ba6JC49zfSx_E-215" value="" style="edgeStyle=orthogonalEdgeStyle;rounded=0;orthogonalLoop=1;jettySize=auto;html=1;strokeWidth=5;fontSize=38;fillColor=#008a00;strokeColor=#005700;fontFamily=Helvetica;fontColor=#000000;" parent="1" edge="1">
                    <mxGeometry relative="1" as="geometry">
                        <mxPoint x="39149" y="18768" as="targetPoint"/>
                        <Array as="points">
                            <mxPoint x="39149" y="18738"/>
                            <mxPoint x="39149" y="18738"/>
                        </Array>
                        <mxPoint x="39149" y="18698" as="sourcePoint"/>
                    </mxGeometry>
                </mxCell>
                <mxCell id="QgR1jz5Ba6JC49zfSx_E-211" value="" style="sketch=0;aspect=fixed;html=1;points=[];align=center;image;fontSize=38;image=img/lib/mscae/Application_Gateway.svg;fontFamily=Helvetica;fontColor=#000000;" parent="1" vertex="1">
                    <mxGeometry x="39076.71000000001" y="18494.8" width="145.45" height="145.45" as="geometry"/>
                </mxCell>
                <mxCell id="QgR1jz5Ba6JC49zfSx_E-225" value="11" style="ellipse;whiteSpace=wrap;html=1;aspect=fixed;labelBackgroundColor=none;fontSize=38;strokeWidth=4;fontStyle=1;fillColor=#d5e8d4;strokeColor=#82b366;fontColor=#000000;fontFamily=Helvetica;" parent="1" vertex="1">
                    <mxGeometry x="39181.90000000001" y="18690" width="70" height="70" as="geometry"/>
                </mxCell>
                <mxCell id="lQurSwyLrw8fbkpN2eua-1" value="" style="edgeStyle=orthogonalEdgeStyle;rounded=0;orthogonalLoop=1;jettySize=auto;html=1;" parent="1" source="QgR1jz5Ba6JC49zfSx_E-226" target="QgR1jz5Ba6JC49zfSx_E-225" edge="1">
                    <mxGeometry relative="1" as="geometry"/>
                </mxCell>
                <mxCell id="QgR1jz5Ba6JC49zfSx_E-226" value="AGW-Ingress" style="text;html=1;strokeColor=none;fillColor=none;align=center;verticalAlign=middle;whiteSpace=wrap;rounded=0;fontSize=38;fontColor=#000000;fontFamily=Helvetica;" parent="1" vertex="1">
                    <mxGeometry x="38970.41" y="18644" width="364.18" height="30" as="geometry"/>
                </mxCell>
                <mxCell id="QgR1jz5Ba6JC49zfSx_E-230" style="edgeStyle=orthogonalEdgeStyle;rounded=0;orthogonalLoop=1;jettySize=auto;html=1;exitX=0.5;exitY=1;exitDx=0;exitDy=0;strokeWidth=5;fontSize=38;fontFamily=Helvetica;fontColor=#000000;" parent="1" source="QgR1jz5Ba6JC49zfSx_E-102" target="QgR1jz5Ba6JC49zfSx_E-102" edge="1">
                    <mxGeometry relative="1" as="geometry"/>
                </mxCell>
                <mxCell id="QgR1jz5Ba6JC49zfSx_E-232" value="" style="rounded=0;whiteSpace=wrap;html=1;fontSize=38;strokeWidth=6;fillColor=#ffe6cc;strokeColor=#000000;fontFamily=Helvetica;fontColor=#000000;" parent="1" vertex="1">
                    <mxGeometry x="39904.67" y="18172.73" width="392.57" height="184.55" as="geometry"/>
                </mxCell>
                <mxCell id="QgR1jz5Ba6JC49zfSx_E-231" value="API Management sends request to Application Gateway acting as Ingress" style="text;html=1;strokeColor=none;fillColor=none;align=center;verticalAlign=middle;whiteSpace=wrap;rounded=0;fontSize=38;fontColor=#000000;fontFamily=Helvetica;" parent="1" vertex="1">
                    <mxGeometry x="39922.24" y="18250" width="361.85" height="30" as="geometry"/>
                </mxCell>
                <mxCell id="fNkq7-LuSQphSgBtCGgK-1" value="Users" style="text;html=1;strokeColor=none;fillColor=none;align=center;verticalAlign=middle;whiteSpace=wrap;rounded=0;fontSize=38;fontColor=#000000;fontFamily=Helvetica;" parent="1" vertex="1">
                    <mxGeometry x="38812.96" y="16144" width="394.42" height="30" as="geometry"/>
                </mxCell>
                <mxCell id="fNkq7-LuSQphSgBtCGgK-9" style="edgeStyle=orthogonalEdgeStyle;rounded=0;orthogonalLoop=1;jettySize=auto;html=1;fontSize=38;fontColor=#000000;startArrow=classic;startFill=1;endArrow=classic;endFill=1;strokeColor=#2D7600;strokeWidth=5;fillColor=#60a917;fontFamily=Helvetica;entryX=0;entryY=0.5;entryDx=0;entryDy=0;" parent="1" source="QgR1jz5Ba6JC49zfSx_E-165" target="QgR1jz5Ba6JC49zfSx_E-153" edge="1">
                    <mxGeometry relative="1" as="geometry">
                        <mxPoint x="39220" y="16869" as="targetPoint"/>
                        <mxPoint x="39404.44" y="16869.2" as="sourcePoint"/>
                    </mxGeometry>
                </mxCell>
                <mxCell id="fNkq7-LuSQphSgBtCGgK-13" style="edgeStyle=orthogonalEdgeStyle;rounded=0;orthogonalLoop=1;jettySize=auto;html=1;exitX=0.5;exitY=1;exitDx=0;exitDy=0;strokeWidth=5;fontFamily=Helvetica;fontSize=25;startArrow=none;startFill=0;endArrow=none;endFill=0;fontColor=#000000;" parent="1" source="QgR1jz5Ba6JC49zfSx_E-82" target="QgR1jz5Ba6JC49zfSx_E-82" edge="1">
                    <mxGeometry relative="1" as="geometry"/>
                </mxCell>
                <mxCell id="fNkq7-LuSQphSgBtCGgK-17" style="edgeStyle=orthogonalEdgeStyle;rounded=0;orthogonalLoop=1;jettySize=auto;html=1;fontSize=38;fontColor=#000000;startArrow=classic;startFill=1;endArrow=classic;endFill=1;strokeColor=#2D7600;strokeWidth=5;fillColor=#60a917;fontFamily=Helvetica;exitX=0.5;exitY=1;exitDx=0;exitDy=0;entryX=0.5;entryY=0;entryDx=0;entryDy=0;" parent="1" source="QgR1jz5Ba6JC49zfSx_E-152" target="QgR1jz5Ba6JC49zfSx_E-147" edge="1">
                    <mxGeometry relative="1" as="geometry">
                        <mxPoint x="39325.44" y="16879.34" as="targetPoint"/>
                        <mxPoint x="39081.25" y="16877.5" as="sourcePoint"/>
                        <Array as="points"/>
                    </mxGeometry>
                </mxCell>
                <mxCell id="lQurSwyLrw8fbkpN2eua-3" value="" style="aspect=fixed;html=1;points=[];align=center;image;fontSize=12;image=img/lib/azure2/databases/Data_Factory.svg;" parent="1" vertex="1">
                    <mxGeometry x="40056.950000000004" y="18927.02" width="90" height="90" as="geometry"/>
                </mxCell>
                <mxCell id="lQurSwyLrw8fbkpN2eua-8" value="" style="edgeStyle=orthogonalEdgeStyle;rounded=0;orthogonalLoop=1;jettySize=auto;html=1;strokeWidth=5;" parent="1" source="lQurSwyLrw8fbkpN2eua-4" target="lQurSwyLrw8fbkpN2eua-5" edge="1">
                    <mxGeometry relative="1" as="geometry"/>
                </mxCell>
                <mxCell id="lQurSwyLrw8fbkpN2eua-4" value="ADF" style="text;html=1;strokeColor=none;fillColor=none;align=center;verticalAlign=middle;whiteSpace=wrap;rounded=0;fontSize=38;fontColor=#000000;labelBackgroundColor=none;fontFamily=Helvetica;" parent="1" vertex="1">
                    <mxGeometry x="39978.95" y="19022.02" width="234" height="30" as="geometry"/>
                </mxCell>
                <mxCell id="lQurSwyLrw8fbkpN2eua-19" value="" style="edgeStyle=orthogonalEdgeStyle;rounded=0;orthogonalLoop=1;jettySize=auto;html=1;strokeWidth=5;entryX=0.867;entryY=0.304;entryDx=0;entryDy=0;entryPerimeter=0;" parent="1" source="lQurSwyLrw8fbkpN2eua-5" target="lQurSwyLrw8fbkpN2eua-17" edge="1">
                    <mxGeometry relative="1" as="geometry">
                        <mxPoint x="39962.799999999996" y="19165" as="targetPoint"/>
                    </mxGeometry>
                </mxCell>
                <mxCell id="lQurSwyLrw8fbkpN2eua-5" value="" style="aspect=fixed;html=1;points=[];align=center;image;fontSize=12;image=img/lib/azure2/databases/SQL_Data_Warehouses.svg;" parent="1" vertex="1">
                    <mxGeometry x="40042.799999999996" y="19110" width="108.31" height="110" as="geometry"/>
                </mxCell>
                <mxCell id="lQurSwyLrw8fbkpN2eua-6" value="Azure DW" style="text;html=1;strokeColor=none;fillColor=none;align=center;verticalAlign=middle;whiteSpace=wrap;rounded=0;fontSize=38;fontColor=#000000;labelBackgroundColor=none;fontFamily=Helvetica;" parent="1" vertex="1">
                    <mxGeometry x="39978.95" y="19240" width="234" height="30" as="geometry"/>
                </mxCell>
                <mxCell id="lQurSwyLrw8fbkpN2eua-11" value="" style="sketch=0;pointerEvents=1;shadow=0;dashed=0;html=1;strokeColor=#006EAF;fillColor=#1ba1e2;labelPosition=center;verticalLabelPosition=bottom;verticalAlign=top;align=center;outlineConnect=0;shape=mxgraph.veeam2.report;labelBackgroundColor=none;fontColor=#ffffff;" parent="1" vertex="1">
                    <mxGeometry x="39374.02" y="19120" width="75.98" height="100" as="geometry"/>
                </mxCell>
                <mxCell id="lQurSwyLrw8fbkpN2eua-12" value="Power BI" style="text;html=1;strokeColor=none;fillColor=none;align=center;verticalAlign=middle;whiteSpace=wrap;rounded=0;fontSize=38;fontColor=#000000;labelBackgroundColor=none;fontFamily=Helvetica;" parent="1" vertex="1">
                    <mxGeometry x="39303.01" y="19248" width="234" height="30" as="geometry"/>
                </mxCell>
                <mxCell id="lQurSwyLrw8fbkpN2eua-23" value="" style="edgeStyle=orthogonalEdgeStyle;rounded=0;orthogonalLoop=1;jettySize=auto;html=1;strokeWidth=5;" parent="1" source="lQurSwyLrw8fbkpN2eua-14" target="lQurSwyLrw8fbkpN2eua-11" edge="1">
                    <mxGeometry relative="1" as="geometry">
                        <mxPoint x="39529.485" y="19175" as="targetPoint"/>
                    </mxGeometry>
                </mxCell>
                <mxCell id="lQurSwyLrw8fbkpN2eua-14" value="" style="sketch=0;aspect=fixed;html=1;points=[];align=center;image;fontSize=12;image=img/lib/mscae/Analysis_Services.svg;labelBackgroundColor=none;" parent="1" vertex="1">
                    <mxGeometry x="39620" y="19120" width="128.21" height="100" as="geometry"/>
                </mxCell>
                <mxCell id="lQurSwyLrw8fbkpN2eua-16" value="SQL Analysis&lt;br&gt;Services" style="text;html=1;strokeColor=none;fillColor=none;align=center;verticalAlign=middle;whiteSpace=wrap;rounded=0;fontSize=38;fontColor=#000000;labelBackgroundColor=none;fontFamily=Helvetica;" parent="1" vertex="1">
                    <mxGeometry x="39556.880000000005" y="19268" width="234" height="30" as="geometry"/>
                </mxCell>
                <mxCell id="NxfhWxnYNg09Ixo6E7Rh-5" value="" style="rounded=1;whiteSpace=wrap;html=1;fontSize=25;strokeWidth=4;fillColor=#dae8fc;strokeColor=#6c8ebf;dashed=1;fontFamily=Helvetica;fontColor=#000000;" parent="1" vertex="1">
                    <mxGeometry x="42130" y="18281.68" width="427.61" height="308.32" as="geometry"/>
                </mxCell>
                <mxCell id="NxfhWxnYNg09Ixo6E7Rh-6" value="" style="sketch=0;html=1;dashed=0;whitespace=wrap;fillColor=#2875E2;strokeColor=#ffffff;points=[[0.005,0.63,0],[0.1,0.2,0],[0.9,0.2,0],[0.5,0,0],[0.995,0.63,0],[0.72,0.99,0],[0.5,1,0],[0.28,0.99,0]];shape=mxgraph.kubernetes.icon;prIcon=deploy;fontSize=25;fontFamily=Helvetica;fontColor=#000000;" parent="1" vertex="1">
                    <mxGeometry x="42407.75" y="18427.84" width="79.86" height="62.16" as="geometry"/>
                </mxCell>
                <mxCell id="NxfhWxnYNg09Ixo6E7Rh-7" value="" style="sketch=0;html=1;dashed=0;whitespace=wrap;fillColor=#2875E2;strokeColor=#ffffff;points=[[0.005,0.63,0],[0.1,0.2,0],[0.9,0.2,0],[0.5,0,0],[0.995,0.63,0],[0.72,0.99,0],[0.5,1,0],[0.28,0.99,0]];shape=mxgraph.kubernetes.icon;prIcon=svc;fontSize=25;fontFamily=Helvetica;fontColor=#000000;" parent="1" vertex="1">
                    <mxGeometry x="42410.43" y="18281.16" width="74.51" height="61.66" as="geometry"/>
                </mxCell>
                <mxCell id="NxfhWxnYNg09Ixo6E7Rh-8" value="&lt;font style=&quot;font-size: 38px;&quot;&gt;user-mgmt-cm&lt;/font&gt;" style="text;html=1;strokeColor=none;fillColor=none;align=center;verticalAlign=middle;whiteSpace=wrap;rounded=0;fontSize=38;fontFamily=Helvetica;fontColor=#000000;" parent="1" vertex="1">
                    <mxGeometry x="42130" y="18371.68" width="220" height="31.72" as="geometry"/>
                </mxCell>
                <mxCell id="NxfhWxnYNg09Ixo6E7Rh-9" value="" style="sketch=0;html=1;dashed=0;whitespace=wrap;fillColor=#2875E2;strokeColor=#ffffff;points=[[0.005,0.63,0],[0.1,0.2,0],[0.9,0.2,0],[0.5,0,0],[0.995,0.63,0],[0.72,0.99,0],[0.5,1,0],[0.28,0.99,0]];shape=mxgraph.kubernetes.icon;prIcon=pod;fontSize=25;fontFamily=Helvetica;fontColor=#000000;" parent="1" vertex="1">
                    <mxGeometry x="42197.479999999996" y="18419.56" width="65.11" height="83.24" as="geometry"/>
                </mxCell>
                <mxCell id="NxfhWxnYNg09Ixo6E7Rh-10" value="user-mgmt&lt;span style=&quot;font-size: 38px;&quot;&gt;-service&lt;/span&gt;" style="text;html=1;strokeColor=none;fillColor=none;align=center;verticalAlign=middle;whiteSpace=wrap;rounded=0;fontSize=38;fontFamily=Helvetica;fontColor=#000000;" parent="1" vertex="1">
                    <mxGeometry x="42359.89" y="18370.47" width="210.11" height="30" as="geometry"/>
                </mxCell>
                <mxCell id="NxfhWxnYNg09Ixo6E7Rh-11" value="&lt;span style=&quot;font-size: 38px;&quot;&gt;user-mgmt&lt;/span&gt;&lt;span style=&quot;font-size: 39px;&quot;&gt;-deployment&lt;/span&gt;" style="text;html=1;strokeColor=none;fillColor=none;align=center;verticalAlign=middle;whiteSpace=wrap;rounded=0;fontSize=39;fontFamily=Helvetica;fontColor=#000000;" parent="1" vertex="1">
                    <mxGeometry x="42374.81" y="18524.68" width="145.75" height="26.65" as="geometry"/>
                </mxCell>
                <mxCell id="NxfhWxnYNg09Ixo6E7Rh-12" value="user-mgmt-&lt;span style=&quot;font-size: 38px;&quot;&gt;-&amp;lt;pod-id&amp;gt;&lt;/span&gt;" style="text;html=1;strokeColor=none;fillColor=none;align=center;verticalAlign=middle;whiteSpace=wrap;rounded=0;fontSize=38;fontFamily=Helvetica;fontColor=#000000;" parent="1" vertex="1">
                    <mxGeometry x="42130" y="18520" width="200" height="30" as="geometry"/>
                </mxCell>
                <mxCell id="NxfhWxnYNg09Ixo6E7Rh-14" value="" style="sketch=0;html=1;dashed=0;whitespace=wrap;fillColor=#2875E2;strokeColor=#ffffff;points=[[0.005,0.63,0],[0.1,0.2,0],[0.9,0.2,0],[0.5,0,0],[0.995,0.63,0],[0.72,0.99,0],[0.5,1,0],[0.28,0.99,0]];shape=mxgraph.kubernetes.icon;prIcon=cm;fontFamily=Helvetica;fontSize=25;fontColor=#000000;" parent="1" vertex="1">
                    <mxGeometry x="42199.13" y="18284.61" width="67.48" height="65.39" as="geometry"/>
                </mxCell>
                <mxCell id="NxfhWxnYNg09Ixo6E7Rh-22" value="" style="sketch=0;aspect=fixed;html=1;points=[];align=center;image;fontSize=25;image=img/lib/mscae/Azure_Firewall.svg;dashed=1;strokeWidth=4;fontFamily=Helvetica;fontColor=#000000;" parent="1" vertex="1">
                    <mxGeometry x="40944" y="18079.550000000003" width="151.03" height="151.03" as="geometry"/>
                </mxCell>
                <mxCell id="NxfhWxnYNg09Ixo6E7Rh-23" value="Azure Firewall" style="text;html=1;strokeColor=none;fillColor=none;align=center;verticalAlign=middle;whiteSpace=wrap;rounded=0;dashed=1;fontSize=38;fontFamily=Helvetica;fontColor=#000000;" parent="1" vertex="1">
                    <mxGeometry x="40980" y="18272.49" width="60" height="30" as="geometry"/>
                </mxCell>
                <mxCell id="NxfhWxnYNg09Ixo6E7Rh-30" value="" style="edgeStyle=orthogonalEdgeStyle;rounded=0;orthogonalLoop=1;jettySize=auto;html=1;strokeColor=#2D7600;strokeWidth=5;fontSize=38;entryX=1;entryY=0.692;entryDx=0;entryDy=0;entryPerimeter=0;" parent="1" target="QgR1jz5Ba6JC49zfSx_E-5" edge="1">
                    <mxGeometry relative="1" as="geometry">
                        <mxPoint x="41030" y="18192" as="sourcePoint"/>
                        <mxPoint x="40960" y="18201" as="targetPoint"/>
                    </mxGeometry>
                </mxCell>
            </root>
        </mxGraphModel>
    </diagram>
</mxfile>